<?xml version="1.0" encoding="utf-8"?>
<!-- Generator: Adobe Illustrator 18.0.0, SVG Export Plug-In . SVG Version: 6.00 Build 0)  -->
<!DOCTYPE svg PUBLIC "-//W3C//DTD SVG 1.1//EN" "http://www.w3.org/Graphics/SVG/1.1/DTD/svg11.dtd">
<svg version="1.1" xmlns="http://www.w3.org/2000/svg" xmlns:xlink="http://www.w3.org/1999/xlink" x="0px" y="0px"
	 viewBox="0 0 157.2 157.2" style="enable-background:new 0 0 157.2 157.2;" xml:space="preserve">
<style type="text/css">
	.st0{fill:#66BB6A;}
	.st1{fill:#546E7A;}
	.st2{fill:url(#SVGID_1_);}
	.st3{fill:url(#SVGID_2_);}
	.st4{fill:url(#SVGID_3_);}
	.st5{fill:url(#SVGID_4_);}
	.st6{fill:url(#SVGID_5_);}
	.st7{fill:url(#SVGID_6_);}
	.st8{fill:url(#SVGID_7_);}
	.st9{fill:url(#SVGID_8_);}
	.st10{fill:url(#SVGID_9_);}
	.st11{fill:url(#SVGID_10_);}
	.st12{fill:url(#SVGID_11_);}
	.st13{fill:url(#SVGID_12_);}
	.st14{fill:url(#SVGID_13_);}
	.st15{fill:url(#SVGID_14_);}
	.st16{fill:#FFFFFF;}
	.st17{fill:url(#SVGID_15_);}
	.st18{clip-path:url(#SVGID_17_);fill:#FFFFFF;}
	.st19{clip-path:url(#SVGID_19_);fill:#FFFFFF;}
</style>
<g id="Layer_1">
</g>
<g id="Layer_2">
	<circle class="st0" cx="78.6" cy="78.6" r="78.6"/>
	<g>
		<defs>
			<circle id="SVGID_18_" cx="78.6" cy="78.6" r="78.6"/>
		</defs>
		<clipPath id="SVGID_1_">
			<use xlink:href="#SVGID_18_"  style="overflow:visible;"/>
		</clipPath>
		<path style="clip-path:url(#SVGID_1_);fill:#FFFFFF;" d="M89.8,84.2c0.3,0.7,1,1.3,1,1.3c13.9,1.7,33.6-0.2,48.6-2.2
			c-8.6,18.5-24,30.8-38.1,30.8C74.8,114.1,54.4,82,54.4,82c8.2-7.2,21.7-30.8,41.2-30.8s28,10.7,28,10.7l2.2-3.5
			c0,0-9.1-31.9-34.9-31.9s-53.2,42.3-69.2,52c0,0,22,52.2,70.2,52.2c40.4,0,50.6-38.6,52.5-48.2c5.4-0.8,9.9-1.6,12.8-2.1
			c1-2.2,2.1-6.1,1.3-11.3c-16.1,6.2-40.5,13.2-69.1,13.2C89.3,82.3,89.4,83.3,89.8,84.2z"/>
	</g>
</g>
</svg>
