<svg width="74" height="73" viewBox="0 0 74 73" fill="none" xmlns="http://www.w3.org/2000/svg">
	<path d="M28.0645 48.6709V71.9834H40.5645V67.0459L48.5645 56.1709L47.877 53.8584H46.0645L41.502 58.6084V46.6709L40.127 44.7959L38.1895 45.6084V42.4834L36.5645 41.2959L34.5645 42.1084V45.6084L33.127 44.7959L31.752 45.6084L31.377 48.3584L29.877 47.7334L28.0645 48.6709Z" fill="#E9C5BB"/>
	<path d="M46.252 23.5641L46.252 0.251587L33.752 0.251586L33.752 5.18909L25.752 16.0641L26.4395 18.3766L28.252 18.3766L32.8145 13.6266L32.8145 25.5641L34.1895 27.4391L36.127 26.6266L36.127 29.7516L37.752 30.9391L39.752 30.1266L39.752 26.6266L41.1895 27.4391L42.5645 26.6266L42.9395 23.8766L44.4395 24.5016L46.252 23.5641Z" fill="#E9C5BB"/>
	<path d="M48.9902 44.604L72.3027 44.604L72.3027 32.104L67.3652 32.104L56.4902 24.104L54.1777 24.7915L54.1777 26.604L58.9277 31.1665L46.9902 31.1665L45.1152 32.5415L45.9277 34.479L42.8027 34.479L41.6152 36.104L42.4277 38.104L45.9277 38.104L45.1152 39.5415L45.9277 40.9165L48.6777 41.2915L48.0527 42.7915L48.9902 44.604Z" fill="#C09E96"/>
	<path d="M23.3125 26.8584L0 26.8584L-5.46392e-07 39.3584L4.9375 39.3584L15.8125 47.3584L18.125 46.6709L18.125 44.8584L13.375 40.2959L25.3125 40.2959L27.1875 38.9209L26.375 36.9834L29.5 36.9834L30.6875 35.3584L29.875 33.3584L26.375 33.3584L27.1875 31.9209L26.375 30.5459L23.625 30.1709L24.25 28.6709L23.3125 26.8584Z" fill="#C09E96"/>
	<path d="M29.6489 37.7943H17.3186C17.0888 37.7943 16.8684 37.7002 16.7059 37.5326C16.5434 37.365 16.4521 37.1377 16.4521 36.9007C16.4521 36.6637 16.5434 36.4364 16.7059 36.2688C16.8684 36.1012 17.0888 36.0693 17.3186 36.0693H29.6489C29.8566 36.0693 30.0558 35.9219 30.2027 35.7704C30.3496 35.619 30.4321 35.4135 30.4321 35.1993C30.4321 34.9851 30.3496 34.7796 30.2027 34.6282C30.0558 34.4767 29.8566 34.3916 29.6489 34.3916L17.3186 34.3193C17.0888 34.3193 16.8684 34.2974 16.7059 34.1298C16.5434 33.9622 16.4521 33.7349 16.4521 33.4979C16.4521 33.2609 16.5434 33.0336 16.7059 32.866C16.8684 32.6984 17.0888 32.6043 17.3186 32.6043H29.6489C30.0037 32.5621 30.363 32.5978 30.7035 32.7089C31.0439 32.8201 31.3577 33.0042 31.6242 33.2493C31.8908 33.4943 32.1041 33.7948 32.2501 34.1308C32.3962 34.4669 32.4717 34.831 32.4717 35.1993C32.4717 35.5676 32.3962 35.9317 32.2501 36.2678C32.1041 36.6038 31.8908 36.9043 31.6242 37.1493C31.3577 37.3944 31.0439 37.5785 30.7035 37.6897C30.363 37.8008 30.0037 37.8365 29.6489 37.7943Z" fill="black"/>
	<path d="M26.1831 34.3373H15.1858C14.956 34.3373 14.7356 34.246 14.5731 34.0835C14.4106 33.9209 14.3193 33.7004 14.3193 33.4706C14.3193 33.2407 14.4106 33.0202 14.5731 32.8577C14.7356 32.6951 14.956 32.6038 15.1858 32.6038H26.1831C26.3908 32.6038 26.59 32.5213 26.7369 32.3743C26.8838 32.2274 26.9663 32.0282 26.9663 31.8204C26.9663 31.6126 26.8838 31.4133 26.7369 31.2664C26.59 31.1195 26.3908 31.0369 26.1831 31.0369H13.8528C13.623 31.0369 13.4026 30.9456 13.2401 30.7831C13.0776 30.6205 12.9863 30.4001 12.9863 30.1702C12.9863 29.9403 13.0776 29.7198 13.2401 29.5573C13.4026 29.3947 13.623 29.3034 13.8528 29.3034H26.1831C26.5379 29.2625 26.8972 29.2971 27.2376 29.4049C27.5781 29.5127 27.8919 29.6914 28.1584 29.929C28.425 30.1667 28.6383 30.4581 28.7843 30.784C28.9304 31.11 29.0059 31.4632 29.0059 31.8204C29.0059 32.1776 28.9304 32.5307 28.7843 32.8567C28.6383 33.1827 28.425 33.474 28.1584 33.7117C27.8919 33.9494 27.5781 34.128 27.2376 34.2358C26.8972 34.3436 26.5379 34.3782 26.1831 34.3373Z" fill="black"/>
	<path d="M23.1837 30.9354H14.7191C14.4893 30.9354 14.2689 30.9456 14.1065 30.783C13.944 30.6205 13.8527 30.4 13.8527 30.1701C13.8527 29.9403 13.944 29.7198 14.1065 29.5572C14.2689 29.3947 14.4893 29.3034 14.7191 29.3034H23.1837C23.3914 29.3034 23.5906 29.2208 23.7375 29.0739C23.8844 28.927 23.9669 28.7277 23.9669 28.5199C23.9669 28.3122 23.8844 28.1129 23.7375 27.966C23.5906 27.8191 23.3914 27.7365 23.1837 27.7365H6.15454C5.92474 27.7365 5.70436 27.6452 5.54187 27.4827C5.37937 27.3201 5.28809 27.0996 5.28809 26.8698C5.28809 26.6399 5.37937 26.4194 5.54187 26.2569C5.70436 26.0943 5.92474 26.003 6.15454 26.003H23.1837C23.5385 25.9621 23.8978 25.9967 24.2383 26.1045C24.5787 26.2123 24.8925 26.3909 25.159 26.6286C25.4256 26.8663 25.6389 27.1577 25.7849 27.4836C25.931 27.8096 26.0065 28.1627 26.0065 28.5199C26.0065 28.8771 25.931 29.2303 25.7849 29.5563C25.6389 29.8822 25.4256 30.1736 25.159 30.4113C24.8925 30.649 24.5787 30.8276 24.2383 30.9354C23.8978 31.0432 23.5385 30.9763 23.1837 30.9354Z" fill="black"/>
	<path d="M17.2853 48.1723C16.6853 48.1897 16.0974 48.0015 15.619 47.6389L6.35462 40.6381C6.03736 40.4001 5.65147 40.2714 5.25489 40.2714H1.05591C0.826112 40.2714 0.605725 40.1801 0.443233 40.0175C0.280741 39.855 0.189453 39.6345 0.189453 39.4046V26.8698C0.189453 26.6399 0.280741 26.4195 0.443233 26.2569C0.605725 26.0944 0.826112 26.0031 1.05591 26.0031H6.15467C6.38447 26.0031 6.60486 26.0944 6.76735 26.2569C6.92984 26.4195 7.02113 26.6399 7.02113 26.8698C7.02113 27.0997 6.92984 27.3202 6.76735 27.4827C6.60486 27.6453 6.38447 27.7366 6.15467 27.7366H1.92237V38.5045H5.25489C6.02263 38.5021 6.77065 38.7476 7.38771 39.2046L16.7521 46.4054C16.9066 46.5192 17.0935 46.5805 17.2853 46.5805C17.4772 46.5805 17.664 46.5192 17.8185 46.4054C17.9115 46.3211 17.9858 46.2181 18.0367 46.1033C18.0876 45.9885 18.1138 45.8643 18.1138 45.7387C18.1138 45.6131 18.0876 45.4889 18.0367 45.3741C17.9858 45.2592 17.9115 45.1563 17.8185 45.0719L13.4196 40.8714C13.292 40.7522 13.2034 40.5972 13.1653 40.4267C13.1273 40.2563 13.1417 40.0783 13.2065 39.9161C13.2714 39.7539 13.3837 39.6151 13.5287 39.5179C13.6738 39.4207 13.8448 39.3696 14.0194 39.3713H26.0832C26.2909 39.3713 26.4901 39.2887 26.6369 39.1418C26.7838 38.9949 26.8663 38.7956 26.8663 38.5878C26.8663 38.3801 26.7838 38.1808 26.6369 38.0339C26.4901 37.887 26.2909 37.8044 26.0832 37.8044H15.0192C14.7894 37.8044 14.569 37.7131 14.4065 37.5506C14.244 37.388 14.1527 37.1675 14.1527 36.9377C14.1527 36.7078 14.244 36.4873 14.4065 36.3248C14.569 36.1622 14.7894 36.0709 15.0192 36.0709H26.1831C26.8549 36.0709 27.4991 36.3378 27.974 36.813C28.449 37.2881 28.7159 37.9326 28.7159 38.6045C28.7159 39.2765 28.449 39.9209 27.974 40.3961C27.4991 40.8712 26.8549 41.1381 26.1831 41.1381H16.1856L18.9516 43.6384C19.3225 43.9928 19.5819 44.4478 19.6978 44.9476C19.8138 45.4475 19.7813 45.9703 19.6043 46.4518C19.4273 46.9334 19.1135 47.3528 18.7016 47.6584C18.2896 47.9641 17.7974 48.1427 17.2853 48.1723Z" fill="black"/>
	<path d="M37.8291 31.9704C37.1705 31.9704 36.5388 31.7035 36.0731 31.2283C35.6073 30.7532 35.3457 30.1087 35.3457 29.4368V17.102C35.3457 16.8721 35.4352 16.6517 35.5945 16.4891C35.7539 16.3266 35.97 16.2352 36.1953 16.2352C36.4206 16.2352 36.6367 16.3266 36.796 16.4891C36.9554 16.6517 37.0449 16.8721 37.0449 17.102V29.4368C37.0449 29.6445 37.1258 29.8438 37.2698 29.9907C37.4138 30.1377 37.6091 30.2202 37.8128 30.2202C38.0164 30.2202 38.2117 30.1377 38.3557 29.9907C38.4997 29.8438 38.5806 29.6445 38.5806 29.4368V17.102C38.5806 16.8721 38.6701 16.6517 38.8295 16.4891C38.9888 16.3266 39.2049 16.2352 39.4302 16.2352C39.6555 16.2352 39.8716 16.3266 40.031 16.4891C40.1903 16.6517 40.2798 16.8721 40.2798 17.102V29.4368C40.2798 30.103 40.0227 30.7424 39.564 31.2166C39.1053 31.6908 38.482 31.9616 37.8291 31.9704Z" fill="black"/>
	<path d="M41.0795 28.5033C40.4078 28.5033 39.7636 28.2364 39.2886 27.7612C38.8137 27.2861 38.5801 26.6416 38.5801 25.9697V14.9684C38.5801 14.7385 38.6381 14.518 38.8006 14.3555C38.9631 14.1929 39.1835 14.1016 39.4133 14.1016C39.6431 14.1016 39.8635 14.1929 40.026 14.3555C40.1884 14.518 40.2797 14.7385 40.2797 14.9684V25.9697C40.2797 26.1774 40.3622 26.3767 40.5091 26.5236C40.656 26.6706 40.8552 26.7531 41.0629 26.7531C41.2706 26.7531 41.4698 26.6706 41.6166 26.5236C41.7635 26.3767 41.846 26.1774 41.846 25.9697V13.6349C41.846 13.405 41.9373 13.1846 42.0998 13.022C42.2623 12.8594 42.4827 12.7681 42.7125 12.7681C42.9423 12.7681 43.1627 12.8594 43.3252 13.022C43.4877 13.1846 43.5789 13.405 43.5789 13.6349V25.9697C43.579 26.6359 43.3167 27.2753 42.8489 27.7495C42.3811 28.2237 41.7455 28.4945 41.0795 28.5033Z" fill="black"/>
	<path d="M44.3793 25.503C43.7303 25.4949 43.1092 25.238 42.6441 24.7851C42.179 24.3323 41.9055 23.7181 41.8799 23.0693V14.535C41.8799 14.3051 41.9712 14.0847 42.1337 13.9221C42.2962 13.7596 42.5165 13.6683 42.7463 13.6683C42.9761 13.6683 43.1965 13.7596 43.359 13.9221C43.5215 14.0847 43.5806 14.3051 43.5806 14.535V23.0693C43.5806 23.2771 43.6953 23.4764 43.8422 23.6233C43.989 23.7702 44.1882 23.8528 44.3959 23.8528C44.6036 23.8528 44.8028 23.7702 44.9497 23.6233C45.0966 23.4764 45.1791 23.2771 45.1791 23.0693V5.96735C45.1791 5.73747 45.2704 5.51701 45.4329 5.35446C45.5954 5.19191 45.8157 5.10059 46.0455 5.10059C46.2753 5.10059 46.4957 5.19191 46.6582 5.35446C46.8207 5.51701 46.912 5.73747 46.912 5.96735V23.0693C46.8861 23.7238 46.6079 24.3429 46.1357 24.7966C45.6635 25.2503 45.034 25.5035 44.3793 25.503Z" fill="black"/>
	<path d="M34.4816 28.5033C33.8099 28.5033 33.1657 28.2364 32.6907 27.7612C32.2157 27.2861 31.9489 26.6416 31.9489 25.9697V15.9685L29.2496 18.8022C28.9885 19.0732 28.6723 19.2852 28.3224 19.4237C27.9725 19.5622 27.597 19.624 27.2212 19.6051C26.8454 19.5861 26.478 19.4868 26.1438 19.3138C25.8096 19.1408 25.5164 18.8981 25.2839 18.6022C24.8994 18.1318 24.6895 17.5429 24.6895 16.9353C24.6895 16.3277 24.8994 15.7388 25.2839 15.2684L32.2822 6.16738C32.5201 5.85 32.6487 5.46397 32.6487 5.06725V0.866762C32.6487 0.752937 32.6711 0.640222 32.7147 0.535061C32.7582 0.4299 32.8221 0.334346 32.9025 0.25386C32.983 0.173373 33.0785 0.109536 33.1836 0.0659765C33.2887 0.0224174 33.4014 0 33.5152 0H46.0455C46.1593 0 46.2719 0.0224174 46.3771 0.0659765C46.4822 0.109536 46.5777 0.173373 46.6582 0.25386C46.7386 0.334346 46.8024 0.4299 46.846 0.535061C46.8895 0.640222 46.9119 0.752937 46.9119 0.866762V5.96735C46.9119 6.19723 46.8207 6.4177 46.6582 6.58026C46.4957 6.74281 46.2753 6.83413 46.0455 6.83413C45.8157 6.83413 45.5953 6.74281 45.4328 6.58026C45.2703 6.4177 45.179 6.19723 45.179 5.96735V1.73352H34.3816V5.06725C34.3841 5.83526 34.1386 6.58356 33.6818 7.20084L26.6502 16.4019C26.5365 16.5565 26.4752 16.7434 26.4752 16.9353C26.4752 17.1272 26.5365 17.3141 26.6502 17.4687C26.7295 17.5704 26.8305 17.653 26.9458 17.7107C27.0611 17.7684 27.1878 17.7996 27.3167 17.8021C27.4401 17.8057 27.563 17.784 27.6777 17.7381C27.7923 17.6922 27.8963 17.6232 27.9832 17.5354L32.2822 13.3015C32.4013 13.1739 32.5563 13.0852 32.7267 13.0472C32.8971 13.0092 33.075 13.0235 33.2372 13.0884C33.3993 13.1533 33.538 13.2656 33.6352 13.4107C33.7324 13.5559 33.7835 13.727 33.7818 13.9016V25.9697C33.7818 26.1775 33.8643 26.3767 34.0112 26.5237C34.158 26.6706 34.3572 26.7531 34.5649 26.7531C34.7726 26.7531 34.9718 26.6706 35.1187 26.5237C35.2656 26.3767 35.3481 26.1775 35.3481 25.9697V14.8017C35.3481 14.5718 35.4394 14.3514 35.6019 14.1888C35.7643 14.0263 35.9847 13.9349 36.2145 13.9349C36.4443 13.9349 36.6647 14.0263 36.8272 14.1888C36.9897 14.3514 37.0493 14.5718 37.0493 14.8017V25.9697C37.0494 26.3081 37.0135 26.6431 36.882 26.9549C36.7506 27.2667 36.5581 27.5491 36.3158 27.7852C36.0735 28.0214 35.7863 28.2066 35.4713 28.3299C35.1563 28.4533 34.8198 28.5122 34.4816 28.5033Z" fill="black"/>
	<path d="M38.1136 56.4066C37.8838 56.4066 37.6634 56.3152 37.5009 56.1527C37.3384 55.9901 37.2832 55.7697 37.2832 55.5398V43.0717C37.2832 42.855 37.1611 42.6473 37.008 42.4941C36.8549 42.3409 36.6472 42.2549 36.4307 42.2549C36.2141 42.2549 36.0064 42.3409 35.8533 42.4941C35.7002 42.6473 35.6142 42.855 35.6142 43.0717V55.4064C35.6142 55.5203 35.5918 55.633 35.5482 55.7381C35.5047 55.8433 35.4409 55.9388 35.3604 56.0193C35.2799 56.0998 35.1844 56.1637 35.0793 56.2072C34.9742 56.2508 34.8615 56.2732 34.7477 56.2732C34.6339 56.2732 34.5213 56.2508 34.4162 56.2072C34.311 56.1637 34.2155 56.0998 34.1351 56.0193C34.0546 55.9388 34.0958 55.8433 34.0523 55.7381C34.0087 55.633 33.9863 55.5203 33.9863 55.4064V43.0717C33.9863 42.3997 34.1481 41.7553 34.6231 41.2801C35.0981 40.805 35.7423 40.538 36.414 40.538C37.0857 40.538 37.7299 40.805 38.2049 41.2801C38.6799 41.7553 38.9467 42.3997 38.9467 43.0717V55.4064C38.9657 55.5282 38.9585 55.6525 38.9257 55.7713C38.8928 55.89 38.8351 56.0003 38.7562 56.095C38.6774 56.1896 38.5793 56.2664 38.4685 56.3201C38.3577 56.3738 38.2367 56.4033 38.1136 56.4066Z" fill="black"/>
	<path d="M31.5149 59.7403C31.2851 59.7403 31.0647 59.649 30.9022 59.4864C30.7397 59.3239 30.6484 59.1034 30.6484 58.8735V46.5388C30.6484 45.8668 30.9153 45.2224 31.3903 44.7472C31.8652 44.2721 32.5094 44.0051 33.1812 44.0051C33.8529 44.0051 34.4971 44.2721 34.9721 44.7472C35.447 45.2224 35.611 45.8668 35.611 46.5388V57.54C35.611 57.7699 35.6226 57.9904 35.4601 58.1529C35.2976 58.3155 35.0772 58.4068 34.8474 58.4068C34.6176 58.4068 34.3972 58.3155 34.2347 58.1529C34.0723 57.9904 33.981 57.7699 33.981 57.54V46.5388C33.981 46.331 33.8985 46.1317 33.7516 45.9848C33.6047 45.8379 33.4055 45.7553 33.1978 45.7553C32.9901 45.7553 32.7909 45.8379 32.6441 45.9848C32.4972 46.1317 32.4147 46.331 32.4147 46.5388V58.8735C32.4148 58.9902 32.3913 59.1057 32.3457 59.2131C32.3001 59.3205 32.2333 59.4176 32.1492 59.4985C32.0652 59.5795 31.9657 59.6426 31.8567 59.6841C31.7477 59.7257 31.6315 59.7448 31.5149 59.7403Z" fill="black"/>
	<path d="M28.286 67.5412C28.0377 67.5412 27.7995 67.4499 27.6239 67.2873C27.4483 67.1248 27.3497 66.9043 27.3497 66.6744V49.7391C27.3436 49.3584 27.3438 48.9912 27.3438 48.6081C27.4339 48.2355 27.6138 47.8866 27.87 47.5875C28.1263 47.2883 28.4523 47.0466 28.8237 46.8805C29.195 46.7143 29.6022 46.6281 30.0146 46.6281C30.4271 46.6281 30.8342 46.7143 31.2055 46.8805C31.5769 47.0466 31.9029 47.2883 32.1592 47.5875C32.4154 47.8866 32.075 48.2355 32.1651 48.6081C32.2552 48.9807 32.2532 49.3673 32.1592 49.7391V58.2068C32.1592 58.4366 32.0605 58.6571 31.8849 58.8196C31.7093 58.9822 31.9916 59.0735 31.7432 59.0735C31.4949 59.0735 31.2567 58.9822 31.0811 58.8196C30.9055 58.6571 30.8069 58.4366 30.8069 58.2068V49.7391C30.8069 49.5269 30.7158 49.3234 30.5537 49.1734C30.3916 49.0233 30.1718 48.939 29.9426 48.939C29.7134 48.939 29.4935 49.0233 29.3314 49.1734C29.1693 49.3234 29.0783 49.5269 29.0783 49.7391V66.7744C29.0566 66.9654 28.9671 67.1444 28.8237 67.2831C28.6803 67.4219 28.4911 67.5127 28.286 67.5412Z" fill="black"/>
	<path d="M40.7464 72.6418H28.2161C27.9863 72.6418 27.7659 72.5504 27.6034 72.3879C27.4409 72.2253 27.3496 72.0049 27.3496 71.775V66.6744C27.3496 66.4445 27.4409 66.2241 27.6034 66.0615C27.7659 65.899 27.9863 65.8076 28.2161 65.8076C28.4459 65.8076 28.6663 65.899 28.8287 66.0615C28.9912 66.2241 29.0825 66.4445 29.0825 66.6744V70.9082H39.8466V67.5745C39.8442 66.8065 40.0896 66.0582 40.5464 65.4409L47.6114 56.0732C47.725 55.9186 47.7864 55.7317 47.7864 55.5398C47.7864 55.3479 47.725 55.161 47.6114 55.0064C47.5321 54.9047 47.4311 54.822 47.3158 54.7643C47.2005 54.7067 47.0737 54.6755 46.9449 54.673C46.8209 54.6649 46.6967 54.6847 46.5814 54.7309C46.4661 54.777 46.3626 54.8484 46.2784 54.9397L42.0794 59.3402C41.9602 59.4679 41.8052 59.5565 41.6348 59.5945C41.4644 59.6326 41.2865 59.6182 41.1244 59.5534C40.9622 59.4885 40.8235 59.3761 40.7263 59.231C40.6291 59.0859 40.578 58.9148 40.5797 58.7401V46.6387C40.5797 46.4309 40.4972 46.2317 40.3504 46.0848C40.2035 45.9378 40.0043 45.8553 39.7966 45.8553C39.5889 45.8553 39.3897 45.9378 39.2428 46.0848C39.096 46.2317 39.0134 46.4309 39.0134 46.6387V57.8067C39.0134 57.9205 38.991 58.0332 38.9475 58.1384C38.9039 58.2436 38.8401 58.3391 38.7597 58.4196C38.6792 58.5001 38.5837 58.5639 38.4786 58.6075C38.3734 58.6511 38.2608 58.6735 38.147 58.6735C38.0332 58.6735 37.9205 58.6511 37.8154 58.6075C37.7103 58.5639 37.6148 58.5001 37.5343 58.4196C37.4539 58.3391 37.39 58.2436 37.3465 58.1384C37.3029 58.0332 37.2805 57.9205 37.2805 57.8067V46.6387C37.2805 46.306 37.346 45.9765 37.4733 45.6691C37.6006 45.3618 37.7872 45.0825 38.0224 44.8472C38.2575 44.6119 38.5367 44.4253 38.844 44.298C39.1513 44.1706 39.4807 44.1051 39.8133 44.1051C40.1459 44.1051 40.4752 44.1706 40.7825 44.298C41.0898 44.4253 41.369 44.6119 41.6042 44.8472C41.8393 45.0825 42.0259 45.3618 42.1532 45.6691C42.2805 45.9765 42.346 46.306 42.346 46.6387V56.6399L45.0453 53.8062C45.3058 53.5333 45.6226 53.3204 45.9736 53.1822C46.3247 53.044 46.7016 52.984 47.0782 53.0061C47.5278 53.0591 47.9562 53.2273 48.322 53.4943C48.6878 53.7613 48.9785 54.1182 49.1661 54.5304C49.3537 54.9426 49.4319 55.3963 49.393 55.8476C49.3542 56.2989 49.1997 56.7325 48.9444 57.1066L41.9794 66.4077C41.7414 66.7251 41.6128 67.1111 41.6128 67.5078V71.7083C41.622 71.8276 41.6064 71.9475 41.567 72.0605C41.5276 72.1735 41.4653 72.2771 41.3839 72.3648C41.3025 72.4525 41.2038 72.5224 41.0941 72.57C40.9844 72.6177 40.866 72.6421 40.7464 72.6418Z" fill="black"/>
	<path d="M56.076 38.8896H43.7456C43.0739 38.8896 42.4297 38.6312 41.9547 38.1711C41.4797 37.7111 41.2129 37.0871 41.2129 36.4365C41.2129 35.7859 41.4797 35.162 41.9547 34.7019C42.4297 34.2419 43.0739 33.9834 43.7456 33.9834H56.076C56.3058 33.9834 56.5261 34.0718 56.6886 34.2292C56.8511 34.3866 56.9424 34.6 56.9424 34.8226C56.9424 35.0452 56.8511 35.2587 56.6886 35.4161C56.5261 35.5734 56.3058 35.6618 56.076 35.6618H43.7456C43.5379 35.6618 43.3387 35.7418 43.1918 35.884C43.045 36.0263 42.9625 36.2192 42.9625 36.4204C42.9625 36.6216 43.045 36.8145 43.1918 36.9568C43.3387 37.099 43.5379 37.1789 43.7456 37.1789H56.076C56.3102 37.1789 56.5348 37.269 56.7004 37.4295C56.866 37.5899 56.9591 37.8074 56.9591 38.0343C56.9591 38.2611 56.866 38.4787 56.7004 38.6391C56.5348 38.7995 56.3102 38.8896 56.076 38.8896Z" fill="black"/>
	<path d="M59.5418 42.2382H47.2114C46.5397 42.2382 45.8955 41.9713 45.4205 41.4962C44.9456 41.021 44.6787 40.3766 44.6787 39.7046C44.6787 39.0326 44.9456 38.3882 45.4205 37.913C45.8955 37.4379 46.5397 37.171 47.2114 37.171H58.2088C58.4386 37.171 58.659 37.2623 58.8214 37.4248C58.9839 37.5874 59.0752 37.8079 59.0752 38.0377C59.0752 38.2676 58.9839 38.4881 58.8214 38.6506C58.659 38.8132 58.4386 38.9045 58.2088 38.9045H47.2114C47.0037 38.9045 46.8045 38.987 46.6577 39.134C46.5108 39.2809 46.4283 39.4802 46.4283 39.6879C46.4283 39.8957 46.5108 40.095 46.6577 40.2419C46.8045 40.3888 47.0037 40.4714 47.2114 40.4714H59.5418C59.776 40.4714 60.0006 40.5644 60.1662 40.7301C60.3319 40.8958 60.4249 41.1205 60.4249 41.3548C60.4249 41.5891 60.3319 41.8138 60.1662 41.9795C60.0006 42.1452 59.776 42.2382 59.5418 42.2382Z" fill="black"/>
	<path d="M67.2063 45.572H50.2104C49.5387 45.572 48.8945 45.305 48.4195 44.8299C47.9446 44.3547 47.6777 43.7103 47.6777 43.0383C47.6777 42.3664 47.9446 41.7219 48.4195 41.2468C48.8945 40.7716 49.5387 40.5047 50.2104 40.5047H58.6751C58.9049 40.5047 59.1252 40.596 59.2877 40.7586C59.4502 40.9211 59.5415 41.1416 59.5415 41.3715C59.5415 41.6014 59.4502 41.8218 59.2877 41.9844C59.1252 42.1469 58.9049 42.2382 58.6751 42.2382H50.2104C50.0027 42.2382 49.8035 42.3208 49.6567 42.4677C49.5098 42.6146 49.4273 42.8139 49.4273 43.0217C49.4273 43.2294 49.5098 43.4287 49.6567 43.5756C49.8035 43.7225 50.0027 43.8051 50.2104 43.8051H67.2396C67.4739 43.8095 67.6967 43.9068 67.8592 44.0756C68.0217 44.2444 68.1105 44.4709 68.1061 44.7052C68.1017 44.9395 68.0044 45.1624 67.8357 45.325C67.6669 45.4875 67.4405 45.5764 67.2063 45.572Z" fill="black"/>
	<path d="M72.272 45.5721H67.2066C66.9768 45.5721 66.7564 45.4808 66.5939 45.3182C66.4314 45.1557 66.3401 44.9352 66.3401 44.7053C66.3401 44.4755 66.4314 44.255 66.5939 44.0924C66.7564 43.9299 66.9768 43.8037 67.2066 43.8037H71.4389V33.0706H68.1064C67.3386 33.073 66.5906 32.8274 65.9735 32.3705L56.6091 25.3363C56.4546 25.2225 56.2678 25.1612 56.0759 25.1612C55.8841 25.1612 55.6973 25.2225 55.5427 25.3363C55.4449 25.4176 55.3661 25.5195 55.312 25.6348C55.258 25.75 55.2299 25.8757 55.2299 26.003C55.2299 26.1303 55.258 26.2561 55.312 26.3713C55.3661 26.4865 55.4449 26.5884 55.5427 26.6698L59.9417 30.8703C60.0693 30.9895 60.1579 31.1445 60.1959 31.315C60.2339 31.4855 60.2196 31.6635 60.1547 31.8257C60.0899 31.9878 59.9776 32.1266 59.8325 32.2239C59.6875 32.3211 59.5164 32.3722 59.3418 32.3705H47.2114C47.0037 32.3705 46.8045 32.453 46.6577 32.5999C46.5108 32.7469 46.4283 32.9461 46.4283 33.1539C46.4283 33.3617 46.5108 33.561 46.6577 33.7079C46.8045 33.8548 47.0037 33.9373 47.2114 33.9373H58.3754C58.6052 33.9373 58.8256 34.0287 58.9881 34.1912C59.1506 34.3538 59.2418 34.5742 59.2418 34.8041C59.2418 35.034 59.1506 35.2545 58.9881 35.417C58.8256 35.5796 58.6052 35.6709 58.3754 35.6709H47.2114C46.5397 35.6709 45.8955 35.4039 45.4205 34.9288C44.9456 34.4536 44.6787 33.8092 44.6787 33.1372C44.6787 32.4653 44.9456 31.8208 45.4205 31.3457C45.8955 30.8705 46.5397 30.6036 47.2114 30.6036H57.209L54.3764 27.9033C53.9587 27.4319 53.7238 26.8263 53.7142 26.1965C53.7046 25.5667 53.921 24.9543 54.3241 24.4704C54.7272 23.9865 55.2903 23.6632 55.9113 23.559C56.5323 23.4549 57.1701 23.5768 57.7089 23.9028L67.0733 30.937C67.3905 31.175 67.7764 31.3037 68.173 31.3037H72.272C72.5018 31.3037 72.7222 31.395 72.8847 31.5576C73.0472 31.7201 73.1385 31.9406 73.1385 32.1705V44.7053C73.1385 44.8192 73.1161 44.9319 73.0725 45.037C73.029 45.1422 72.9652 45.2378 72.8847 45.3182C72.8042 45.3987 72.7087 45.4626 72.6036 45.5061C72.4985 45.5497 72.3858 45.5721 72.272 45.5721Z" fill="black"/>
	<path d="M50.8102 1.73353H28.0491C27.8193 1.73353 27.5989 1.64222 27.4364 1.47967C27.2739 1.31712 27.1826 1.09665 27.1826 0.866764C27.1826 0.636882 27.2739 0.416411 27.4364 0.25386C27.5989 0.0913093 27.8193 0 28.0491 0H50.8435C51.0733 0.00442083 51.292 0.0999721 51.4513 0.265649C51.6107 0.431326 51.6978 0.653555 51.6933 0.883436C51.6889 1.11332 51.5934 1.33202 51.4278 1.49144C51.2622 1.65087 51.04 1.73795 50.8102 1.73353Z" fill="black"/>
	<path d="M72.2717 50.3392C72.0419 50.3392 71.8215 50.2479 71.6591 50.0853C71.4966 49.9228 71.4053 49.7023 71.4053 49.4724V26.6698C71.4053 26.4399 71.4966 26.2194 71.6591 26.0569C71.8215 25.8943 72.0419 25.803 72.2717 25.803C72.5015 25.803 72.7219 25.8943 72.8844 26.0569C73.0469 26.2194 73.1382 26.4399 73.1382 26.6698V49.4724C73.1382 49.7023 73.0469 49.9228 72.8844 50.0853C72.7219 50.2479 72.5015 50.3392 72.2717 50.3392Z" fill="black"/>
	<path d="M46.2116 72.6418H23.4504C23.2206 72.6418 23.0003 72.5505 22.8378 72.3879C22.6753 72.2254 22.584 72.0049 22.584 71.775C22.584 71.5452 22.6753 71.3247 22.8378 71.1621C23.0003 70.9996 23.2206 70.9083 23.4504 70.9083H46.2449C46.4747 70.9127 46.6933 71.0082 46.8527 71.1739C47.0121 71.3396 47.0991 71.5618 47.0947 71.7917C47.0903 72.0216 46.9948 72.2403 46.8291 72.3997C46.6635 72.5591 46.4414 72.6462 46.2116 72.6418Z" fill="black"/>
	<path d="M1.05591 45.7387C0.826112 45.7387 0.605725 45.6473 0.443233 45.4848C0.280741 45.3222 0.189453 45.1018 0.189453 44.8719V22.0692C0.189453 21.8393 0.280741 21.6189 0.443233 21.4563C0.605725 21.2938 0.826112 21.2025 1.05591 21.2025C1.28571 21.2025 1.50609 21.2938 1.66859 21.4563C1.83108 21.6189 1.92237 21.8393 1.92237 22.0692V44.8719C1.92237 45.1018 1.83108 45.3222 1.66859 45.4848C1.50609 45.6473 1.28571 45.7387 1.05591 45.7387Z" fill="black"/>
</svg>
