<svg width="36" height="36" viewBox="0 0 36 36" fill="none" xmlns="http://www.w3.org/2000/svg">
<g id="Payment gateway">
<path id="Vector" d="M16.9737 6L25.6161 8.736C25.8571 8.81225 26.0678 8.96458 26.2173 9.17075C26.3669 9.37691 26.4475 9.62612 26.4474 9.882V12H28.8158C29.1299 12 29.4311 12.1264 29.6532 12.3515C29.8752 12.5765 30 12.8817 30 13.2V15.6H14.6053V13.2C14.6053 12.8817 14.73 12.5765 14.9521 12.3515C15.1742 12.1264 15.4754 12 15.7895 12H24.0789V10.764L16.9737 8.5128L9.86842 10.764V19.6488C9.86825 20.3835 10.0345 21.1084 10.3544 21.7677C10.6743 22.427 11.1392 23.0031 11.7134 23.4516L11.9372 23.6148L16.9737 27.096L21.4524 24H15.7895C15.4754 24 15.1742 23.8736 14.9521 23.6485C14.73 23.4235 14.6053 23.1183 14.6053 22.8V18H30V22.8C30 23.1183 29.8752 23.4235 29.6532 23.6485C29.4311 23.8736 29.1299 24 28.8158 24L25.0026 24.0012C24.5443 24.6132 23.9878 25.1532 23.3447 25.5972L16.9737 30L10.6026 25.5984C9.64641 24.9377 8.86392 24.0504 8.32319 23.0135C7.78247 21.9766 7.49988 20.8216 7.5 19.6488V9.882C7.50014 9.62633 7.58087 9.37739 7.7304 9.17146C7.87994 8.96554 8.09047 8.81339 8.33132 8.7372L16.9737 6Z" fill="#0B72D9"/>
</g>
</svg>
