<svg width="14" height="14" viewBox="0 0 14 14" fill="none" xmlns="http://www.w3.org/2000/svg">
<path d="M7.22015 0.333801C3.53851 0.333801 0.553482 3.3199 0.553482 7.00047C0.553482 10.6832 3.53851 13.6671 7.22015 13.6671C10.9018 13.6671 13.8868 10.6832 13.8868 7.00047C13.8868 3.3199 10.9018 0.333801 7.22015 0.333801ZM7.22015 3.29079C7.8437 3.29079 8.34918 3.79627 8.34918 4.41982C8.34918 5.04337 7.8437 5.54886 7.22015 5.54886C6.5966 5.54886 6.09112 5.04337 6.09112 4.41982C6.09112 3.79627 6.5966 3.29079 7.22015 3.29079ZM8.72553 10.1187C8.72553 10.2969 8.58109 10.4413 8.40294 10.4413H6.03735C5.85921 10.4413 5.71477 10.2969 5.71477 10.1187V9.47359C5.71477 9.29544 5.85921 9.15101 6.03735 9.15101H6.35993V7.43058H6.03735C5.85921 7.43058 5.71477 7.28614 5.71477 7.10799V6.46283C5.71477 6.28469 5.85921 6.14025 6.03735 6.14025H7.75778C7.93593 6.14025 8.08036 6.28469 8.08036 6.46283V9.15101H8.40294C8.58109 9.15101 8.72553 9.29544 8.72553 9.47359V10.1187Z" fill="#8C8C8C"/>
</svg>
