<svg width="16" height="14" viewBox="0 0 16 14" fill="none" xmlns="http://www.w3.org/2000/svg">
<path d="M10.9844 2.49878L13.3333 4.84774C13.4323 4.9467 13.4323 5.10815 13.3333 5.20711L7.64583 10.8946L5.22917 11.1628C4.90625 11.1993 4.63281 10.9259 4.66927 10.6029L4.9375 8.18628L10.625 2.49878C10.724 2.39982 10.8854 2.39982 10.9844 2.49878ZM15.2031 1.90243L13.9323 0.631592C13.5365 0.235758 12.8932 0.235758 12.4948 0.631592L11.5729 1.55347C11.474 1.65243 11.474 1.81388 11.5729 1.91284L13.9219 4.2618C14.0208 4.36076 14.1823 4.36076 14.2812 4.2618L15.2031 3.33992C15.599 2.94149 15.599 2.29826 15.2031 1.90243V1.90243ZM10.5 9.34774V11.9988H2.16667V3.66545H8.15104C8.23437 3.66545 8.3125 3.63159 8.3724 3.5743L9.41406 2.53263C9.61198 2.33472 9.47135 1.99878 9.19271 1.99878H1.75C1.0599 1.99878 0.5 2.55867 0.5 3.24878V12.4154C0.5 13.1055 1.0599 13.6654 1.75 13.6654H10.9167C11.6068 13.6654 12.1667 13.1055 12.1667 12.4154V8.30607C12.1667 8.02742 11.8307 7.8894 11.6328 8.08472L10.5911 9.12638C10.5339 9.18628 10.5 9.2644 10.5 9.34774Z" fill="#8C8C8C"/>
</svg>
