<svg xmlns="http://www.w3.org/2000/svg" width="24" height="24" viewBox="0 0 24 24" fill="none">
    <circle cx="12" cy="12" r="8" fill="white"/>

    <path
        fill-rule="evenodd"
        clip-rule="evenodd"
        d="M17.838 2H6.162c-.527 0-.981 0-1.356.03-.395.033-.789.104-1.167.297a3 3 0 0 0-1.311 1.311c-.193.378-.264.772-.296 1.167C2 5.18 2 5.635 2 6.161V17.84c0 .527 0 .982.03 1.356.033.395.104.789.297 1.167a3 3 0 0 0 1.311 1.311c.378.193.772.264 1.167.296.375.031.83.031 1.356.031H17.84c.527 0 .982 0 1.356-.03.395-.033.789-.104 1.167-.297a3 3 0 0 0 1.311-1.311c.193-.378.264-.772.296-1.167.031-.375.031-.83.031-1.356V6.16c0-.527 0-.981-.03-1.356-.033-.395-.104-.789-.297-1.167a3 3 0 0 0-1.311-1.311c-.378-.193-.772-.264-1.167-.296A17.9 17.9 0 0 0 17.838 2zM9.6 8.116c-.1.133-.1.372-.1.85v6.069c0 .477 0 .716.1.849a.5.5 0 0 0 .364.199c.166.012.367-.117.769-.375l4.72-3.035c.349-.224.523-.336.583-.479a.5.5 0 0 0 0-.389c-.06-.142-.234-.254-.583-.478l-4.72-3.035c-.402-.258-.603-.387-.769-.375a.5.5 0 0 0-.364.2z"
        fill="#000"
    />
</svg>
