<svg xmlns="http://www.w3.org/2000/svg" width="14" height="15" viewBox="0 0 14 15" fill="none">
    <path
        d="M3.209 1.667a.583.583 0 1 0-1.167 0v.875h-.875a.583.583 0 1 0 0 1.167h.875v.875a.583.583 0 1 0 1.167 0v-.875h.875a.583.583 0 1 0 0-1.167h-.875v-.875zM3.209 10.417a.583.583 0 0 0-1.167 0v.875h-.875a.583.583 0 0 0 0 1.167h.875v.875a.583.583 0 1 0 1.167 0v-.875h.875a.583.583 0 0 0 0-1.167h-.875v-.875zM8.128 2.041a.583.583 0 0 0-1.088 0l-1.012 2.63c-.175.456-.23.587-.306.693-.075.107-.168.2-.274.275-.106.075-.238.13-.693.306l-2.63 1.011a.583.583 0 0 0 0 1.09l2.63 1.01c.455.176.587.231.693.306.106.076.199.169.274.275.076.106.13.237.306.693l1.012 2.63a.583.583 0 0 0 1.088 0l1.012-2.63c.175-.456.23-.587.306-.693.075-.106.168-.2.274-.275.106-.075.238-.13.693-.305l2.63-1.012a.583.583 0 0 0 0-1.089l-2.63-1.011c-.455-.176-.587-.23-.693-.306a1.167 1.167 0 0 1-.274-.275c-.076-.106-.13-.237-.306-.693l-1.012-2.63z"
        fill="#FFFDF2"
    />
</svg>
