<svg width="20" height="21" viewBox="0 0 20 21" fill="none" xmlns="http://www.w3.org/2000/svg">
    <path fill-rule="evenodd" clip-rule="evenodd"
          d="M2.922 3.457c2.24-1.913 5.123-1.565 7.073.14 1.947-1.705 4.8-2.03 7.065-.147 2.478 2.06 2.775 5.572.867 8.027-.662.853-1.895 2.09-3.13 3.27a144.65 144.65 0 0 1-3.376 3.103l-.018.016c-.136.121-.271.242-.396.337-.14.106-.313.216-.533.282-.31.093-.648.093-.958 0a1.664 1.664 0 0 1-.533-.282c-.124-.095-.26-.216-.395-.337l-.019-.016a144.705 144.705 0 0 1-3.375-3.104c-1.236-1.178-2.469-2.416-3.131-3.269-1.916-2.465-1.564-5.95.859-8.02zm10.585 4.715a.833.833 0 0 0-1.179-1.179l-3.16 3.16L8.09 9.077a.833.833 0 0 0-1.178 1.179l1.666 1.666a.833.833 0 0 0 1.179 0l3.75-3.75z"
          fill="#0CF27F"/>
</svg>
