<svg width="1236" height="358" fill="none" xmlns="http://www.w3.org/2000/svg">
    <g filter="url(#filter0_d_2202_25027)">
        <g clip-path="url(#clip0_2202_25027)">
            <rect x="2" y="1" width="1232" height="354" rx="8" fill="url(#paint0_linear_2202_25027)"/>
            <g opacity="0.5">
                <path
                    d="M1276.17 202.81C1301.41 224.505 1297.38 272.342 1287.62 300.299C1285.02 307.735 1269.61 351.886 1232.55 362.838C1193.79 374.291 1176.29 336.167 1124.94 335.037C1067.71 333.777 1056.41 380.409 1007.3 379.506C953.105 378.51 880.076 320.157 884.045 244.307C887.138 185.212 936.157 130.993 982.758 128.841C1035.25 126.416 1043.72 191.943 1116.75 210.087C1192.47 228.903 1241.27 172.826 1276.17 202.81Z"
                    fill="#F7F9F9"/>
                <path
                    d="M1069.7 131.877C1064.14 143.069 1104.61 185.751 1157.1 191.735C1184.74 194.885 1222.03 188.577 1223.05 178.014C1225.11 156.624 1078.87 113.421 1069.7 131.876"
                    fill="#F7F9F9"/>
                <path d="M1101.59 162.513L1136.17 176.705L1113.74 231.239L1079.16 217.048L1101.59 162.513Z"
                      fill="#4CA258"/>
                <path d="M1103.48 167.773L1131.12 179.115L1113.19 222.697L1085.56 211.356L1103.48 167.773Z"
                      fill="#81C56D"/>
                <path
                    d="M1101.59 162.514L1098.38 170.315C1100.41 171.115 1102.67 171.086 1104.68 170.234C1106.69 169.381 1108.28 167.773 1109.1 165.759L1109.16 165.62L1101.59 162.514ZM1136.17 176.705L1132.96 184.506C1130.95 183.651 1129.37 182.042 1128.54 180.027C1127.71 178.011 1127.71 175.752 1128.54 173.737L1128.6 173.598L1136.17 176.705Z"
                    fill="#4CA258"/>
                <path
                    d="M1110.15 198.543C1114.41 198.541 1117.86 195.091 1117.86 190.837C1117.86 186.582 1114.4 183.135 1110.14 183.137C1105.88 183.139 1102.43 186.589 1102.44 190.843C1102.44 195.098 1105.89 198.545 1110.15 198.543Z"
                    fill="#4CA258"/>
                <path d="M959.119 167.646L996.5 167.273L997.09 226.226L959.709 226.6L959.119 167.646Z" fill="#4CA258"/>
                <path d="M962.914 171.753L992.788 171.456L993.259 218.57L963.386 218.868L962.914 171.753Z"
                      fill="#81C56D"/>
                <path
                    d="M959.119 167.646L959.203 176.079C961.383 176.028 963.455 175.122 964.971 173.556C966.487 171.991 967.325 169.892 967.304 167.714L967.303 167.564L959.119 167.646ZM996.5 167.273L996.584 175.706C994.403 175.699 992.313 174.834 990.766 173.299C989.219 171.764 988.339 169.682 988.316 167.504L988.316 167.355L996.5 167.273Z"
                    fill="#4CA258"/>
                <path
                    d="M978.042 198.113C982.301 198.111 985.751 194.661 985.75 190.407C985.748 186.153 982.294 182.706 978.035 182.708C973.777 182.709 970.326 186.16 970.328 190.414C970.33 194.668 973.783 198.115 978.042 198.113Z"
                    fill="#4CA258"/>
                <path
                    d="M1248.9 328.841C1242.35 316.213 1218.63 270.856 1213.65 266.416L1221.73 246.435C1225.05 238.22 1219.58 228.823 1210.73 228.229C1210.42 228.208 1210.11 228.198 1209.79 228.198L1208.8 228.198C1207.74 221.478 1204.79 216.638 1201.31 216.64L1179.18 216.65C1175.7 216.651 1172.76 221.494 1171.7 228.215L1171.28 228.215C1170.97 228.215 1170.65 228.226 1170.34 228.247C1161.49 228.848 1156.03 238.25 1159.35 246.462L1167.45 266.437L1133.48 327.926C1131.23 331.896 1129.81 336.277 1129.3 340.808C1128.79 345.339 1129.2 349.926 1130.51 354.295C1134.53 367.195 1146.05 377.34 1160.9 377.935C1161.38 377.954 1161.86 377.964 1162.35 377.963L1219.42 377.938C1219.91 377.938 1220.39 377.928 1220.87 377.908C1239.43 377.148 1252.76 361.48 1252.79 344.171C1252.74 338.824 1251.41 333.565 1248.9 328.841Z"
                    fill="#FFCB5C"/>
                <path
                    d="M1165.11 229.691C1167.01 241.765 1179.9 265.352 1179.9 265.352C1174.89 249.914 1171.7 228.217 1171.7 228.217L1171.28 228.217C1169.14 228.219 1167.03 228.724 1165.11 229.691ZM1215.22 229.658C1215.23 229.544 1215.24 229.444 1215.26 229.334C1213.53 228.584 1211.67 228.199 1209.79 228.2L1208.8 228.201L1208.77 228.028L1208.63 228.201C1208.63 228.201 1205.45 249.899 1200.46 265.343C1200.46 265.343 1213.34 241.73 1215.22 229.658ZM1215.29 301.004C1213.4 288.93 1200.51 265.344 1200.51 265.344C1205.51 280.782 1208.71 302.479 1208.71 302.479L1209.12 302.479C1211.27 302.477 1213.38 301.972 1215.29 301.004L1215.29 301.004ZM1165.19 301.038C1165.17 301.153 1165.16 301.252 1165.15 301.362C1166.87 302.112 1168.74 302.497 1170.62 302.496L1171.6 302.495C1171.61 302.554 1171.63 302.61 1171.63 302.669L1171.78 302.495C1171.78 302.495 1174.95 280.797 1179.94 265.352C1179.94 265.352 1167.06 288.965 1165.19 301.038Z"
                    fill="#F29720"/>
                <path
                    d="M1190.89 271.247L1190.17 271.247C1181.86 271.221 1173.55 270.722 1165.3 269.752C1164.91 269.704 1164.53 269.579 1164.19 269.385C1163.85 269.19 1163.55 268.93 1163.31 268.619C1163.07 268.309 1162.89 267.953 1162.79 267.574C1162.69 267.195 1162.66 266.799 1162.71 266.41C1162.82 265.635 1163.22 264.933 1163.84 264.455C1164.46 263.977 1165.24 263.763 1166.02 263.857C1182.54 265.8 1199.24 265.792 1215.76 263.835C1216.53 263.739 1217.32 263.953 1217.94 264.431C1218.56 264.909 1218.96 265.612 1219.07 266.387C1219.12 266.776 1219.1 267.172 1219 267.551C1218.89 267.93 1218.72 268.285 1218.48 268.596C1218.24 268.907 1217.94 269.167 1217.6 269.362C1217.26 269.556 1216.88 269.681 1216.49 269.73C1207.99 270.735 1199.44 271.241 1190.89 271.247ZM1182.34 337.016C1184.56 338.35 1187.1 339.064 1189.7 339.087C1193.89 339.085 1196.35 336.869 1196.34 333.666C1196.34 330.698 1194.64 329.002 1190.35 327.355C1185.16 325.521 1181.96 322.836 1181.95 318.36C1181.95 313.415 1186.05 309.738 1192.23 309.735C1194.67 309.652 1197.08 310.186 1199.26 311.286L1198.13 314.633C1196.27 313.636 1194.2 313.119 1192.09 313.127C1187.75 313.129 1186.1 315.721 1186.1 317.888C1186.1 320.856 1188.04 322.315 1192.43 324.009C1197.8 326.08 1200.54 328.67 1200.54 333.333C1200.54 338.233 1196.91 342.475 1189.42 342.478C1186.35 342.479 1183 341.587 1181.3 340.456L1182.34 337.016Z"
                    fill="#32333C"/>
                <path d="M1189.53 304.164L1193.2 304.162L1193.22 348.275L1189.55 348.277L1189.53 304.164Z"
                      fill="#32333C"/>
                <path
                    d="M910.332 201.137C923.806 201.131 934.724 190.215 934.718 176.755C934.712 163.296 923.785 152.389 910.311 152.395C896.837 152.401 885.919 163.317 885.925 176.777C885.931 190.237 896.858 201.143 910.332 201.137Z"
                    fill="#FFCB5C"/>
                <path
                    d="M905.566 183.874C906.835 184.634 908.284 185.042 909.763 185.054C912.157 185.053 913.555 183.789 913.554 181.963C913.553 180.27 912.584 179.302 910.137 178.363C907.178 177.317 905.348 175.786 905.347 173.233C905.346 170.413 907.684 168.316 911.208 168.314C912.598 168.267 913.977 168.571 915.217 169.199L914.571 171.107C913.513 170.539 912.329 170.244 911.128 170.249C908.654 170.25 907.713 171.728 907.714 172.964C907.715 174.657 908.817 175.489 911.319 176.455C914.386 177.636 915.946 179.113 915.947 181.773C915.949 184.567 913.879 186.986 909.603 186.988C907.987 187.009 906.393 186.612 904.977 185.835L905.566 183.874Z"
                    fill="#F29720"/>
                <path d="M909.67 165.141L911.76 165.14L911.772 190.297L909.681 190.298L909.67 165.141Z" fill="#F29720"/>
                <path
                    d="M895.796 176.773C895.794 171.165 897.728 165.728 901.271 161.378C904.814 157.028 909.75 154.032 915.247 152.893C911.7 152.166 908.035 152.236 904.519 153.1C901.003 153.963 897.723 155.597 894.917 157.884C892.112 160.17 889.851 163.052 888.299 166.32C886.747 169.588 885.943 173.16 885.944 176.777C885.946 180.394 886.754 183.965 888.308 187.232C889.863 190.499 892.127 193.378 894.934 195.663C897.742 197.947 901.023 199.578 904.54 200.438C908.057 201.298 911.721 201.365 915.268 200.635C909.77 199.501 904.831 196.509 901.285 192.163C897.738 187.816 895.799 182.381 895.796 176.773Z"
                    fill="#F29720"/>
                <path
                    d="M910.047 154.592C909.05 155.047 908.084 155.571 907.158 156.158L897.283 156.163C897.711 155.892 898.144 155.636 898.589 155.39L900.172 154.595L910.047 154.592ZM903.549 158.943C903.012 159.44 902.5 159.962 902.014 160.508L892.143 160.513C892.629 159.97 893.139 159.448 893.673 158.947L903.549 158.943ZM898.316 165.965C898.06 166.477 897.826 166.999 897.612 167.531L887.742 167.536C887.955 167.003 888.19 166.481 888.446 165.969L898.316 165.965ZM896.052 173.242C895.974 173.759 895.916 174.281 895.875 174.808L886.005 174.813C886.046 174.286 886.104 173.763 886.182 173.246L896.052 173.242ZM896.767 183.582L886.897 183.587C886.745 183.075 886.614 182.553 886.499 182.021L896.369 182.016C896.485 182.549 896.615 183.066 896.767 183.582ZM900.93 191.723L891.065 191.727C890.669 191.221 890.294 190.698 889.941 190.162L899.811 190.157C900.161 190.695 900.537 191.217 900.93 191.723ZM899.057 198.389L908.938 198.385C908.039 197.918 907.169 197.395 906.335 196.82L896.465 196.824L899.057 198.389Z"
                    fill="#FFCB5C"/>
                <path
                    d="M1078.08 165.83C1084.51 165.827 1089.72 160.62 1089.71 154.2C1089.71 147.78 1084.5 142.578 1078.07 142.581C1071.65 142.584 1066.44 147.79 1066.44 154.21C1066.44 160.63 1071.66 165.832 1078.08 165.83Z"
                    fill="#FFCB5C"/>
                <path
                    d="M1075.81 157.598C1076.42 157.961 1077.11 158.156 1077.81 158.162C1078.95 158.161 1079.62 157.559 1079.62 156.688C1079.62 155.881 1079.16 155.419 1077.99 154.972C1076.58 154.472 1075.71 153.743 1075.71 152.526C1075.71 151.181 1076.82 150.181 1078.5 150.181C1079.16 150.158 1079.82 150.303 1080.41 150.603L1080.1 151.512C1079.6 151.241 1079.04 151.101 1078.46 151.103C1077.28 151.103 1076.83 151.808 1076.83 152.397C1076.83 153.205 1077.36 153.601 1078.55 154.062C1080.02 154.626 1080.76 155.329 1080.76 156.597C1080.76 157.93 1079.77 159.083 1077.74 159.084C1076.96 159.094 1076.2 158.904 1075.53 158.534L1075.81 157.598Z"
                    fill="#F29720"/>
                <path d="M1077.77 148.664L1078.76 148.664L1078.77 160.664L1077.77 160.664L1077.77 148.664Z"
                      fill="#F29720"/>
                <path
                    d="M1071.15 154.209C1071.15 151.534 1072.07 148.94 1073.76 146.865C1075.45 144.79 1077.81 143.361 1080.43 142.818C1078.74 142.471 1076.99 142.505 1075.31 142.917C1073.63 143.328 1072.07 144.108 1070.73 145.198C1069.39 146.289 1068.31 147.664 1067.57 149.223C1066.83 150.781 1066.45 152.485 1066.45 154.21C1066.45 155.936 1066.84 157.639 1067.58 159.197C1068.32 160.755 1069.4 162.129 1070.74 163.218C1072.08 164.308 1073.64 165.086 1075.32 165.496C1077 165.906 1078.75 165.939 1080.44 165.59C1077.81 165.05 1075.46 163.622 1073.77 161.549C1072.08 159.476 1071.15 156.884 1071.15 154.209Z"
                    fill="#F29720"/>
                <path
                    d="M1077.95 143.628C1077.47 143.845 1077.01 144.095 1076.57 144.376L1071.86 144.378C1072.06 144.248 1072.27 144.126 1072.48 144.009L1073.24 143.63L1077.95 143.628ZM1074.85 145.704C1074.6 145.94 1074.35 146.189 1074.12 146.45L1069.41 146.453C1069.64 146.193 1069.88 145.945 1070.14 145.706L1074.85 145.704ZM1072.35 149.053C1072.23 149.297 1072.12 149.546 1072.02 149.8L1067.31 149.802C1067.41 149.548 1067.52 149.299 1067.64 149.055L1072.35 149.053ZM1071.27 152.524C1071.24 152.771 1071.21 153.02 1071.19 153.271L1066.48 153.273C1066.5 153.021 1066.53 152.773 1066.56 152.526L1071.27 152.524ZM1071.61 157.456L1066.91 157.458C1066.83 157.214 1066.77 156.965 1066.72 156.711L1071.42 156.709C1071.48 156.963 1071.54 157.21 1071.61 157.456ZM1073.6 161.339L1068.89 161.341C1068.7 161.1 1068.53 160.851 1068.36 160.595L1073.07 160.593C1073.23 160.849 1073.41 161.098 1073.6 161.339ZM1072.71 164.519L1077.42 164.517C1076.99 164.294 1076.58 164.045 1076.18 163.77L1071.47 163.772L1072.71 164.519Z"
                    fill="#FFCB5C"/>
                <path
                    d="M920.723 281.392C927.15 281.389 932.358 276.183 932.355 269.763C932.352 263.343 927.14 258.14 920.713 258.143C914.286 258.146 909.078 263.353 909.081 269.773C909.084 276.193 914.296 281.395 920.723 281.392Z"
                    fill="#FFCB5C"/>
                <path
                    d="M918.449 273.161C919.054 273.524 919.745 273.718 920.45 273.724C921.591 273.724 922.258 273.121 922.258 272.25C922.257 271.443 921.796 270.982 920.628 270.534C919.217 270.035 918.344 269.306 918.344 268.088C918.343 266.743 919.459 265.744 921.139 265.743C921.801 265.72 922.459 265.865 923.05 266.164L922.743 267.074C922.238 266.804 921.674 266.663 921.101 266.665C919.921 266.666 919.473 267.37 919.473 267.96C919.473 268.766 919.999 269.164 921.192 269.624C922.655 270.188 923.398 270.892 923.398 272.16C923.399 273.492 922.412 274.646 920.374 274.647C919.603 274.656 918.843 274.467 918.168 274.097L918.449 273.161Z"
                    fill="#F29720"/>
                <path d="M920.406 264.219L921.403 264.218L921.409 276.218L920.412 276.219L920.406 264.219Z"
                      fill="#F29720"/>
                <path
                    d="M913.789 269.771C913.788 267.096 914.71 264.503 916.4 262.428C918.09 260.353 920.444 258.924 923.066 258.381C921.374 258.034 919.626 258.067 917.949 258.479C916.272 258.891 914.707 259.67 913.369 260.761C912.031 261.852 910.953 263.226 910.212 264.785C909.472 266.344 909.088 268.048 909.089 269.773C909.09 271.498 909.475 273.202 910.217 274.76C910.958 276.318 912.038 277.691 913.377 278.781C914.716 279.87 916.281 280.649 917.959 281.059C919.637 281.469 921.385 281.501 923.076 281.153C920.454 280.612 918.099 279.185 916.407 277.111C914.715 275.038 913.791 272.446 913.789 269.771Z"
                    fill="#F29720"/>
                <path
                    d="M920.588 259.19C920.112 259.408 919.651 259.658 919.21 259.938L914.499 259.94C914.703 259.81 914.91 259.688 915.122 259.571L915.877 259.192L920.588 259.19ZM917.488 261.266C917.234 261.503 916.987 261.752 916.755 262.013L912.047 262.015C912.279 261.755 912.523 261.507 912.778 261.268L917.488 261.266ZM914.992 264.616C914.87 264.86 914.758 265.109 914.656 265.362L909.948 265.364C910.05 265.11 910.161 264.862 910.284 264.618L914.992 264.616ZM913.912 268.087C913.874 268.333 913.847 268.582 913.828 268.833L909.12 268.835C909.139 268.584 909.167 268.335 909.203 268.089L913.912 268.087ZM914.253 273.019L909.545 273.021C909.473 272.777 909.41 272.528 909.356 272.274L914.063 272.272C914.118 272.526 914.181 272.772 914.253 273.019ZM916.239 276.901L911.533 276.903C911.343 276.662 911.166 276.414 910.997 276.157L915.705 276.155C915.872 276.411 916.052 276.66 916.239 276.901ZM915.346 280.081L920.058 280.079C919.629 279.857 919.215 279.607 918.817 279.333L914.109 279.335L915.346 280.081Z"
                    fill="#FFCB5C"/>
                <path
                    d="M910.006 368.965C923.48 368.959 934.398 358.043 934.392 344.584C934.386 331.124 923.458 320.218 909.985 320.224C896.511 320.23 885.593 331.146 885.599 344.605C885.605 358.065 896.532 368.971 910.006 368.965Z"
                    fill="#FFCB5C"/>
                <path
                    d="M905.242 351.71C906.51 352.47 907.959 352.877 909.438 352.889C911.831 352.888 913.23 351.625 913.229 349.799C913.228 348.106 912.259 347.138 909.812 346.199C906.852 345.153 905.023 343.621 905.022 341.069C905.021 338.249 907.36 336.152 910.883 336.15C912.272 336.103 913.651 336.407 914.891 337.034L914.247 338.942C913.188 338.375 912.005 338.08 910.803 338.085C908.328 338.086 907.389 339.564 907.389 340.8C907.39 342.492 908.493 343.325 910.994 344.291C914.061 345.472 915.622 346.949 915.623 349.609C915.624 352.403 913.554 354.822 909.277 354.824C907.661 354.845 906.067 354.448 904.65 353.671L905.242 351.71Z"
                    fill="#F29720"/>
                <path d="M909.346 332.969L911.436 332.968L911.447 358.126L909.357 358.127L909.346 332.969Z"
                      fill="#F29720"/>
                <path
                    d="M895.47 344.601C895.468 338.993 897.402 333.556 900.945 329.206C904.488 324.856 909.424 321.86 914.92 320.721C911.374 319.994 907.709 320.065 904.193 320.928C900.677 321.791 897.397 323.425 894.591 325.712C891.786 327.998 889.525 330.88 887.973 334.148C886.421 337.416 885.617 340.988 885.618 344.605C885.62 348.222 886.427 351.794 887.982 355.06C889.537 358.327 891.801 361.206 894.608 363.491C897.415 365.775 900.697 367.406 904.214 368.266C907.731 369.126 911.395 369.194 914.942 368.463C909.444 367.33 904.505 364.337 900.959 359.991C897.412 355.644 895.473 350.209 895.47 344.602L895.47 344.601Z"
                    fill="#F29720"/>
                <path
                    d="M909.721 322.419C908.723 322.875 907.758 323.399 906.832 323.986L896.957 323.991C897.385 323.719 897.819 323.464 898.263 323.218L899.846 322.423L909.721 322.419ZM903.223 326.77C902.687 327.268 902.174 327.791 901.688 328.337L891.816 328.341C892.304 327.797 892.814 327.275 893.347 326.775L903.223 326.77ZM897.99 333.793C897.735 334.304 897.5 334.827 897.286 335.359L887.416 335.364C887.63 334.831 887.865 334.309 888.121 333.797L897.99 333.793ZM895.726 341.07C895.648 341.587 895.591 342.109 895.549 342.636L885.679 342.641C885.72 342.113 885.778 341.591 885.855 341.074L895.726 341.07ZM896.442 351.41L886.571 351.414C886.419 350.903 886.288 350.381 886.173 349.849L896.044 349.844C896.158 350.376 896.289 350.893 896.442 351.41ZM900.604 359.551L890.739 359.555C890.343 359.049 889.969 358.527 889.615 357.99L899.485 357.985C899.836 358.523 900.212 359.044 900.604 359.551ZM898.731 366.217L908.612 366.213C907.712 365.746 906.843 365.224 906.009 364.648L896.14 364.652L898.731 366.217Z"
                    fill="#FFCB5C"/>
                <path
                    d="M1171.88 208.34C1185.35 208.334 1196.27 197.418 1196.26 183.959C1196.26 170.499 1185.33 159.593 1171.86 159.599C1158.38 159.605 1147.46 170.521 1147.47 183.98C1147.48 197.44 1158.4 208.346 1171.88 208.34Z"
                    fill="#FFCB5C"/>
                <path
                    d="M1167.11 191.085C1168.38 191.845 1169.83 192.252 1171.31 192.265C1173.7 192.264 1175.1 191.001 1175.1 189.174C1175.1 187.481 1174.13 186.514 1171.68 185.574C1168.72 184.528 1166.89 182.997 1166.89 180.445C1166.89 177.624 1169.23 175.527 1172.75 175.525C1174.14 175.478 1175.52 175.782 1176.76 176.41L1176.12 178.318C1175.06 177.75 1173.88 177.455 1172.67 177.459C1170.2 177.461 1169.26 178.939 1169.26 180.175C1169.26 181.868 1170.36 182.7 1172.87 183.666C1175.93 184.848 1177.49 186.325 1177.49 188.984C1177.5 191.778 1175.42 194.198 1171.15 194.2C1169.53 194.221 1167.94 193.823 1166.52 193.046L1167.11 191.085Z"
                    fill="#F29720"/>
                <path d="M1171.22 172.344L1173.31 172.343L1173.32 197.501L1171.23 197.502L1171.22 172.344Z"
                      fill="#F29720"/>
                <path
                    d="M1157.34 183.976C1157.34 178.368 1159.27 172.931 1162.82 168.581C1166.36 164.231 1171.29 161.235 1176.79 160.096C1173.24 159.369 1169.58 159.44 1166.06 160.303C1162.55 161.166 1159.27 162.8 1156.46 165.087C1153.66 167.373 1151.4 170.255 1149.84 173.523C1148.29 176.791 1147.49 180.363 1147.49 183.98C1147.49 187.597 1148.3 191.169 1149.85 194.435C1151.41 197.702 1153.67 200.581 1156.48 202.866C1159.29 205.15 1162.57 206.781 1166.08 207.641C1169.6 208.501 1173.27 208.569 1176.81 207.838C1171.31 206.705 1166.38 203.712 1162.83 199.366C1159.28 195.019 1157.34 189.584 1157.34 183.976Z"
                    fill="#F29720"/>
                <path
                    d="M1171.59 161.795C1170.6 162.251 1169.63 162.774 1168.71 163.362L1158.83 163.366C1159.26 163.095 1159.69 162.839 1160.14 162.593L1161.72 161.798L1171.59 161.795ZM1165.1 166.145C1164.56 166.643 1164.05 167.166 1163.56 167.712L1153.69 167.716C1154.18 167.172 1154.69 166.65 1155.22 166.15L1165.1 166.145ZM1159.86 173.168C1159.61 173.68 1159.37 174.202 1159.16 174.734L1149.29 174.739C1149.5 174.207 1149.74 173.684 1149.99 173.172L1159.86 173.168ZM1157.6 180.445C1157.52 180.962 1157.46 181.484 1157.42 182.011L1147.55 182.016C1147.59 181.489 1147.65 180.966 1147.73 180.449L1157.6 180.445ZM1158.31 190.785L1148.44 190.789C1148.29 190.278 1148.16 189.756 1148.05 189.225L1157.92 189.22C1158.03 189.752 1158.16 190.269 1158.31 190.785ZM1162.48 198.927L1152.61 198.931C1152.22 198.424 1151.84 197.902 1151.49 197.365L1161.36 197.36C1161.71 197.898 1162.08 198.42 1162.48 198.926L1162.48 198.927ZM1160.6 205.592L1170.48 205.588C1169.58 205.121 1168.72 204.599 1167.88 204.023L1158.01 204.027L1160.6 205.592Z"
                    fill="#FFCB5C"/>
                <path
                    d="M1131.57 344.626L940.049 344.711C938.035 344.726 936.097 343.944 934.66 342.534C933.224 341.124 932.405 339.203 932.385 337.191L932.33 212.655C932.348 210.643 933.165 208.721 934.601 207.311C936.036 205.9 937.974 205.115 939.987 205.13L1131.51 205.045C1133.53 205.029 1135.46 205.811 1136.9 207.221C1138.34 208.63 1139.16 210.552 1139.18 212.563L1139.23 337.1C1139.21 339.111 1138.4 341.034 1136.96 342.444C1135.53 343.855 1133.59 344.64 1131.57 344.626L1131.57 344.626ZM948.537 336.348L1130.72 336.268L1130.66 213.403L948.483 213.484L948.537 336.348Z"
                    fill="#585A66"/>
                <path
                    d="M1141.2 209.22L952.942 209.303C951.094 209.304 949.596 210.801 949.597 212.648L949.652 337.184C949.653 339.03 951.152 340.526 953 340.526L1141.26 340.442C1143.11 340.441 1144.6 338.944 1144.6 337.098L1144.55 212.561C1144.55 210.715 1143.05 209.219 1141.2 209.22Z"
                    fill="#71B8E6"/>
                <path
                    d="M1010.02 339.448C1010.02 343.245 1009.27 347.005 1007.82 350.513C1006.37 354.021 1004.24 357.209 1001.55 359.895C998.866 362.581 995.676 364.712 992.166 366.166C988.655 367.621 984.892 368.37 981.091 368.372L1090.9 368.323C1083.22 368.326 1075.86 365.284 1070.43 359.864C1065 354.445 1061.95 347.093 1061.94 339.425L1010.02 339.448Z"
                    fill="#9FB1C1"/>
                <path
                    d="M960.893 209.726C960.586 214.114 960.37 219.296 960.431 225.121C960.735 267.11 975.216 307.768 1001.53 340.512L953.002 340.533C952.563 340.534 952.128 340.448 951.721 340.28C951.315 340.112 950.946 339.866 950.635 339.556C950.324 339.245 950.078 338.877 949.909 338.471C949.741 338.066 949.654 337.631 949.654 337.192L949.599 212.656C949.599 211.769 949.951 210.918 950.578 210.291C951.206 209.664 952.057 209.311 952.944 209.311L1144.55 209.226L1144.55 209.644L960.893 209.726Z"
                    fill="#4B9DD7"/>
                <path
                    d="M1023.28 340.495C1023.29 348.032 1020.29 355.261 1014.96 360.593C1009.63 365.925 1002.39 368.922 994.849 368.925L1102.78 368.878C1095.24 368.881 1088 365.89 1082.66 360.563C1077.33 355.236 1074.33 348.009 1074.32 340.473L1023.28 340.495Z"
                    fill="#D6E4F0"/>
                <path
                    d="M1040 352.044L1074.85 345.888C1074.5 344.104 1074.32 342.29 1074.32 340.473L1023.28 340.495C1023.29 344.227 1022.55 347.923 1021.12 351.371C1019.69 354.82 1017.6 357.953 1014.96 360.593C1012.32 363.233 1009.18 365.328 1005.73 366.757C1002.28 368.187 998.584 368.924 994.849 368.925L1026.61 368.911C1025.41 362.149 1027.57 358.343 1031.71 355.401C1034.19 353.682 1037.02 352.536 1040 352.044L1040 352.044Z"
                    fill="#B1C5DA"/>
                <path
                    d="M1141.26 344.627L953.005 344.71C951.008 344.709 949.093 343.917 947.681 342.507C946.269 341.097 945.474 339.185 945.471 337.191L945.415 212.655C945.417 210.66 946.21 208.748 947.621 207.337C949.033 205.927 950.946 205.133 952.943 205.129L1141.2 205.046C1143.2 205.048 1145.11 205.84 1146.52 207.25C1147.93 208.659 1148.73 210.57 1148.73 212.565L1148.79 337.101C1148.79 339.095 1147.99 341.008 1146.58 342.419C1145.17 343.829 1143.26 344.624 1141.26 344.627ZM953.838 336.352L1140.42 336.269L1140.37 213.404L953.783 213.487L953.838 336.352Z"
                    fill="#32333C"/>
                <path
                    d="M1118.84 300.116L1091.09 290.888C1092.76 284.292 1092.97 277.413 1091.72 270.726C1090.47 264.038 1087.79 257.701 1083.85 252.151L1110.16 218.904L1105.36 215.118L1079.9 247.299C1074.52 241.51 1067.76 237.172 1060.25 234.685C1052.75 232.198 1044.74 231.643 1036.96 233.072L1032.47 193.029L1026.4 193.709L1030.97 234.564C1021.1 237.755 1012.56 244.109 1006.66 252.64L981.819 235.87L978.396 240.929L1003.52 257.889C999.961 264.824 998.182 272.534 998.345 280.325C998.508 288.117 1000.61 295.746 1004.46 302.526L974.962 318.558L977.884 323.922L1007.82 307.65C1012.85 314.322 1019.57 319.535 1027.28 322.755C1035 325.974 1043.43 327.083 1051.72 325.967C1060.01 324.852 1067.85 321.552 1074.43 316.408C1081.02 311.264 1086.12 304.46 1089.2 296.696L1116.92 305.91L1118.84 300.116Z"
                    fill="#32333C"/>
                <path
                    d="M1045.45 320.253C1068.07 320.243 1086.4 301.918 1086.39 279.322C1086.38 256.726 1068.03 238.417 1045.41 238.427C1022.79 238.437 1004.46 256.763 1004.47 279.358C1004.48 301.954 1022.83 320.263 1045.45 320.253Z"
                    fill="#FFCB5C"/>
                <path
                    d="M1037.45 291.278C1039.58 292.554 1042.01 293.238 1044.49 293.259C1048.51 293.257 1050.86 291.137 1050.86 288.068C1050.86 285.226 1049.23 283.602 1045.12 282.026C1040.15 280.269 1037.08 277.699 1037.08 273.412C1037.08 268.675 1041 265.154 1046.92 265.152C1049.25 265.072 1051.57 265.583 1053.65 266.637L1052.57 269.841C1050.79 268.888 1048.8 268.393 1046.79 268.401C1042.63 268.403 1041.05 270.884 1041.05 272.959C1041.05 275.802 1042.91 277.199 1047.11 278.822C1052.26 280.804 1054.88 283.285 1054.88 287.751C1054.88 292.443 1051.41 296.504 1044.22 296.508C1041.29 296.509 1038.08 295.654 1036.46 294.572L1037.45 291.278Z"
                    fill="#F29720"/>
                <path d="M1044.34 259.828L1047.85 259.827L1047.87 302.062L1044.36 302.064L1044.34 259.828Z"
                      fill="#F29720"/>
                <path
                    d="M1021.04 279.352C1021.04 269.938 1024.29 260.81 1030.24 253.507C1036.18 246.204 1044.47 241.173 1053.7 239.262C1047.74 238.042 1041.59 238.16 1035.69 239.61C1029.79 241.059 1024.28 243.803 1019.57 247.642C1014.86 251.48 1011.07 256.318 1008.46 261.804C1005.86 267.29 1004.51 273.287 1004.51 279.359C1004.51 285.431 1005.87 291.426 1008.48 296.91C1011.09 302.394 1014.89 307.228 1019.6 311.063C1024.31 314.898 1029.82 317.637 1035.72 319.081C1041.63 320.525 1047.78 320.638 1053.73 319.412C1044.5 317.509 1036.21 312.486 1030.26 305.189C1024.3 297.892 1021.05 288.767 1021.04 279.352Z"
                    fill="#F29720"/>
                <path
                    d="M1044.97 242.115C1043.3 242.88 1041.68 243.759 1040.12 244.746L1023.54 244.753C1024.26 244.298 1024.99 243.865 1025.73 243.455L1028.39 242.122L1044.97 242.115ZM1034.06 249.419C1033.16 250.254 1032.3 251.131 1031.48 252.049L1014.91 252.056C1015.73 251.143 1016.59 250.266 1017.48 249.426L1034.06 249.419ZM1025.28 261.209C1024.85 262.068 1024.45 262.944 1024.09 263.838L1007.52 263.845C1007.88 262.952 1008.28 262.075 1008.71 261.216L1025.28 261.209ZM1021.48 273.426C1021.35 274.298 1021.25 275.175 1021.18 276.055L1004.61 276.062C1004.67 275.182 1004.77 274.306 1004.9 273.433L1021.48 273.426ZM1022.68 290.784L1006.11 290.791C1005.85 289.924 1005.63 289.047 1005.44 288.163L1022.01 288.156C1022.2 289.049 1022.42 289.917 1022.68 290.784ZM1029.66 304.451L1013.1 304.458C1012.44 303.608 1011.81 302.732 1011.22 301.83L1027.79 301.823C1028.38 302.724 1029 303.601 1029.66 304.451ZM1026.52 315.642L1043.11 315.635C1041.6 314.852 1040.14 313.975 1038.74 313.008L1022.17 313.016L1026.52 315.642Z"
                    fill="#FFCB5C"/>
                <path
                    d="M1028.36 207.514C1038.81 207.509 1047.29 199.038 1047.28 188.592C1047.28 178.146 1038.8 169.682 1028.34 169.687C1017.88 169.692 1009.41 178.163 1009.41 188.609C1009.42 199.055 1017.9 207.519 1028.36 207.514Z"
                    fill="#EF403A"/>
                <path
                    d="M1028.36 203.852C1036.79 203.849 1043.62 197.018 1043.62 188.596C1043.61 180.173 1036.77 173.349 1028.34 173.353C1019.91 173.356 1013.08 180.187 1013.08 188.609C1013.09 197.032 1019.92 203.856 1028.36 203.852Z"
                    fill="#EF403A"/>
                <mask id="mask0_2202_25027" style="mask-type:luminance" maskUnits="userSpaceOnUse" x="1013" y="173"
                      width="31" height="31">
                    <path
                        d="M1028.36 203.852C1036.79 203.849 1043.62 197.018 1043.62 188.596C1043.61 180.173 1036.77 173.349 1028.34 173.353C1019.91 173.356 1013.08 180.187 1013.08 188.609C1013.09 197.032 1019.92 203.856 1028.36 203.852Z"
                        fill="white"/>
                </mask>
                <g mask="url(#mask0_2202_25027)">
                    <path
                        d="M1028.93 190.376C1032.59 190.374 1035.55 187.413 1035.55 183.762C1035.55 180.11 1032.58 177.152 1028.93 177.153C1025.27 177.155 1022.31 180.116 1022.31 183.768C1022.31 187.419 1025.28 190.378 1028.93 190.376Z"
                        fill="#32333C"/>
                    <path
                        d="M1028.93 191.782C1024.78 191.784 1020.8 193.433 1017.87 196.366C1014.93 199.3 1013.29 203.277 1013.29 207.424L1044.59 207.41C1044.59 203.263 1042.94 199.287 1040 196.356C1037.06 193.426 1033.08 191.78 1028.93 191.782Z"
                        fill="#32333C"/>
                </g>
                <path
                    d="M1126.65 323.037C1137.11 323.033 1145.58 314.561 1145.58 304.116C1145.57 293.67 1137.09 285.206 1126.64 285.21C1116.18 285.215 1107.71 293.687 1107.71 304.132C1107.72 314.578 1116.2 323.042 1126.65 323.037Z"
                    fill="#EF403A"/>
                <path
                    d="M1126.65 319.376C1135.08 319.372 1141.92 312.541 1141.91 304.119C1141.91 295.697 1135.07 288.872 1126.64 288.876C1118.21 288.88 1111.38 295.71 1111.38 304.133C1111.38 312.555 1118.22 319.38 1126.65 319.376Z"
                    fill="#EF403A"/>
                <mask id="mask1_2202_25027" style="mask-type:luminance" maskUnits="userSpaceOnUse" x="1111" y="288"
                      width="31" height="32">
                    <path
                        d="M1126.65 319.376C1135.08 319.372 1141.92 312.541 1141.91 304.119C1141.91 295.697 1135.07 288.872 1126.64 288.876C1118.21 288.88 1111.38 295.71 1111.38 304.133C1111.38 312.555 1118.22 319.38 1126.65 319.376Z"
                        fill="white"/>
                </mask>
                <g mask="url(#mask1_2202_25027)">
                    <path
                        d="M1127.23 305.899C1130.88 305.898 1133.85 302.937 1133.85 299.285C1133.84 295.634 1130.88 292.675 1127.22 292.677C1123.57 292.678 1120.61 295.64 1120.61 299.291C1120.61 302.942 1123.57 305.901 1127.23 305.899Z"
                        fill="#32333C"/>
                    <path
                        d="M1127.23 307.306C1123.08 307.307 1119.1 308.956 1116.16 311.89C1113.23 314.823 1111.58 318.801 1111.59 322.947L1142.89 322.933C1142.89 318.787 1141.23 314.811 1138.3 311.88C1135.36 308.949 1131.38 307.304 1127.23 307.306Z"
                        fill="#32333C"/>
                </g>
                <path
                    d="M975.964 340.967C986.421 340.962 994.894 332.491 994.889 322.045C994.885 311.6 986.404 303.135 975.947 303.14C965.491 303.145 957.017 311.616 957.022 322.062C957.027 332.508 965.507 340.972 975.964 340.967Z"
                    fill="#EF403A"/>
                <path
                    d="M975.963 337.298C984.394 337.294 991.226 330.463 991.222 322.041C991.219 313.619 984.381 306.794 975.95 306.798C967.518 306.802 960.687 313.632 960.69 322.055C960.694 330.477 967.532 337.301 975.963 337.298Z"
                    fill="#EF403A"/>
                <mask id="mask2_2202_25027" style="mask-type:luminance" maskUnits="userSpaceOnUse" x="960" y="306"
                      width="32" height="32">
                    <path
                        d="M975.963 337.298C984.394 337.294 991.226 330.463 991.222 322.041C991.219 313.619 984.381 306.794 975.95 306.798C967.518 306.802 960.687 313.632 960.69 322.055C960.694 330.477 967.532 337.301 975.963 337.298Z"
                        fill="white"/>
                </mask>
                <g mask="url(#mask2_2202_25027)">
                    <path
                        d="M976.54 323.821C980.195 323.82 983.157 320.858 983.156 317.207C983.154 313.556 980.19 310.597 976.534 310.599C972.879 310.6 969.917 313.562 969.919 317.213C969.921 320.864 972.885 323.823 976.54 323.821Z"
                        fill="#32333C"/>
                    <path
                        d="M976.541 325.227C974.485 325.228 972.45 325.633 970.551 326.42C968.653 327.206 966.928 328.359 965.475 329.811C964.022 331.264 962.87 332.988 962.084 334.885C961.299 336.782 960.895 338.816 960.896 340.869L992.199 340.855C992.197 336.709 990.546 332.733 987.61 329.802C984.673 326.871 980.692 325.226 976.541 325.227Z"
                        fill="#32333C"/>
                </g>
                <path
                    d="M1114.36 224.311C1119.46 224.308 1123.6 220.173 1123.6 215.075C1123.6 209.976 1119.46 205.845 1114.35 205.847C1109.25 205.85 1105.11 209.985 1105.12 215.083C1105.12 220.182 1109.26 224.313 1114.36 224.311Z"
                    fill="#EF403A"/>
                <mask id="mask3_2202_25027" style="mask-type:luminance" maskUnits="userSpaceOnUse" x="1105" y="205"
                      width="19" height="20">
                    <path
                        d="M1114.36 224.311C1119.46 224.308 1123.6 220.173 1123.6 215.075C1123.6 209.976 1119.46 205.845 1114.35 205.847C1109.25 205.85 1105.11 209.985 1105.12 215.083C1105.12 220.182 1109.26 224.313 1114.36 224.311Z"
                        fill="white"/>
                </mask>
                <g mask="url(#mask3_2202_25027)">
                    <path
                        d="M1114.71 216.152C1116.92 216.151 1118.72 214.358 1118.71 212.147C1118.71 209.937 1116.92 208.146 1114.71 208.147C1112.49 208.148 1110.7 209.94 1110.7 212.151C1110.7 214.361 1112.5 216.153 1114.71 216.152Z"
                        fill="#32333C"/>
                    <path
                        d="M1114.71 216.996C1112.2 216.997 1109.79 217.995 1108.01 219.771C1106.24 221.547 1105.24 223.954 1105.24 226.464L1124.19 226.456C1124.19 223.946 1123.19 221.539 1121.41 219.765C1119.63 217.991 1117.22 216.995 1114.71 216.996Z"
                        fill="#32333C"/>
                </g>
                <path
                    d="M980.113 248.136C986.443 248.134 991.572 243.005 991.569 236.682C991.566 230.358 986.433 225.234 980.102 225.237C973.772 225.24 968.643 230.368 968.646 236.692C968.648 243.015 973.782 248.139 980.113 248.136Z"
                    fill="#EF403A"/>
                <path
                    d="M980.111 245.92C985.215 245.918 989.35 241.783 989.348 236.684C989.346 231.586 985.207 227.455 980.103 227.457C974.999 227.459 970.863 231.594 970.865 236.693C970.868 241.791 975.007 245.922 980.111 245.92Z"
                    fill="#EF403A"/>
                <mask id="mask4_2202_25027" style="mask-type:luminance" maskUnits="userSpaceOnUse" x="970" y="227"
                      width="20" height="19">
                    <path
                        d="M980.111 245.92C985.215 245.918 989.35 241.783 989.348 236.684C989.346 231.586 985.207 227.455 980.103 227.457C974.999 227.459 970.863 231.594 970.865 236.693C970.868 241.791 975.007 245.922 980.111 245.92Z"
                        fill="white"/>
                </mask>
                <g mask="url(#mask4_2202_25027)">
                    <path
                        d="M980.461 237.769C982.674 237.768 984.467 235.975 984.466 233.765C984.465 231.554 982.671 229.763 980.458 229.764C978.245 229.765 976.452 231.558 976.453 233.768C976.454 235.979 978.249 237.77 980.461 237.769Z"
                        fill="#32333C"/>
                    <path
                        d="M980.461 238.613C977.948 238.614 975.539 239.612 973.763 241.388C971.987 243.164 970.989 245.571 970.991 248.082L989.939 248.073C989.938 245.563 988.939 243.156 987.161 241.382C985.384 239.608 982.974 238.612 980.461 238.613Z"
                        fill="#32333C"/>
                </g>
                <path
                    d="M1142.65 35.9689C1146.04 34.3746 1147.76 29.9788 1146.51 26.1506C1145.25 22.3223 1141.48 20.5113 1138.1 22.1056C1134.71 23.6998 1132.99 28.0956 1134.24 31.9239C1135.5 35.7521 1139.27 37.5631 1142.65 35.9689Z"
                    fill="#FFCB5C"/>
                <path
                    d="M1139.84 31.6218C1140.23 31.6882 1140.64 31.6328 1141.01 31.4616C1141.61 31.1783 1141.84 30.6536 1141.67 30.1341C1141.52 29.6526 1141.18 29.4919 1140.48 29.514C1139.64 29.5662 1139.04 29.3469 1138.8 28.6208C1138.53 27.8186 1138.93 26.9457 1139.81 26.5287C1140.16 26.351 1140.53 26.2745 1140.9 26.3065L1140.92 26.9257C1140.6 26.8891 1140.27 26.945 1139.97 27.0884C1139.35 27.3811 1139.25 27.913 1139.37 28.2645C1139.52 28.746 1139.88 28.8522 1140.6 28.8315C1141.48 28.8049 1142.01 29.0407 1142.26 29.7972C1142.52 30.5918 1142.22 31.5247 1141.15 32.0307C1140.75 32.2277 1140.31 32.303 1139.88 32.2494L1139.84 31.6218Z"
                    fill="#F29720"/>
                <path d="M1139.13 25.8047L1139.65 25.5573L1142 32.7128L1141.48 32.9602L1139.13 25.8047Z"
                      fill="#F29720"/>
                <path
                    d="M1136.72 30.7503C1136.2 29.1553 1136.18 27.3801 1136.66 25.7239C1137.15 24.0677 1138.11 22.6318 1139.38 21.6583C1138.42 21.8706 1137.51 22.3238 1136.71 22.9849C1135.9 23.6461 1135.23 24.4986 1134.74 25.4807C1134.25 26.4628 1133.95 27.5499 1133.86 28.6629C1133.78 29.776 1133.91 30.8873 1134.25 31.916C1134.59 32.9448 1135.12 33.8653 1135.82 34.6108C1136.51 35.3563 1137.35 35.908 1138.27 36.226C1139.19 36.5439 1140.17 36.6202 1141.13 36.4492C1142.09 36.2781 1143.02 35.8641 1143.84 35.2372C1142.36 35.5646 1140.84 35.297 1139.54 34.4797C1138.24 33.6624 1137.25 32.3453 1136.72 30.7503Z"
                    fill="#F29720"/>
                <path
                    d="M1138.24 22.7638C1138.03 23.0114 1137.84 23.2744 1137.66 23.551L1135.18 24.7195C1135.26 24.5918 1135.35 24.4677 1135.43 24.3452L1135.76 23.9321L1138.24 22.7638ZM1137.01 24.7697C1136.92 24.9745 1136.84 25.1837 1136.77 25.3965L1134.29 26.5643C1134.36 26.3526 1134.44 26.1439 1134.53 25.9382L1137.01 24.7697ZM1136.35 27.3858C1136.34 27.5617 1136.33 27.738 1136.32 27.9147L1133.84 29.0825C1133.85 28.9058 1133.86 28.7295 1133.87 28.5536L1136.35 27.3858ZM1136.46 29.7236C1136.49 29.8798 1136.53 30.0352 1136.56 30.1901L1134.08 31.3579C1134.04 31.2032 1134.01 31.0477 1133.98 30.8915L1136.46 29.7236ZM1137.61 32.5807L1135.13 33.7485C1135.04 33.621 1134.96 33.488 1134.88 33.3501L1137.36 32.1822C1137.44 32.3201 1137.52 32.4516 1137.61 32.5807ZM1139.41 34.4044L1136.93 35.5717C1136.79 35.4744 1136.64 35.3701 1136.51 35.2591L1138.99 34.0913C1139.12 34.2029 1139.27 34.3069 1139.41 34.4044ZM1139.56 36.5222L1142.05 35.3531C1141.78 35.3266 1141.51 35.2807 1141.25 35.2155L1138.77 36.3834L1139.56 36.5222Z"
                    fill="#FFCB5C"/>
            </g>
            <path
                d="M645.914 38.1369C656.36 44.9844 671.093 43.0492 678.823 33.8146C686.552 24.5799 684.349 11.5428 673.904 4.69534C663.458 -2.15214 648.725 -0.216985 640.995 9.01764C633.266 18.2523 635.469 31.2894 645.914 38.1369Z"
                fill="#FFCB5C"/>
            <path
                d="M652.137 23.8831C652.683 25.0496 653.572 26.066 654.711 26.8268C656.567 28.0433 658.377 27.8872 659.425 26.6341C660.397 25.4726 660.203 24.3166 658.845 22.4277C657.153 20.2057 656.615 18.2251 658.081 16.4735C659.7 14.5385 662.718 14.2895 665.45 16.0803C666.554 16.7544 667.448 17.6642 668.048 18.7253L666.451 19.706C665.958 18.7781 665.21 17.9738 664.276 17.3662C662.358 16.1088 660.779 16.6448 660.07 17.4926C659.098 18.6541 659.475 19.7852 660.858 21.7202C662.556 24.09 662.917 25.8963 661.389 27.7213C659.785 29.6379 656.791 30.2451 653.476 28.0718C652.211 27.2644 651.205 26.1814 650.553 24.9282L652.137 23.8831Z"
                fill="#F29720"/>
            <path d="M666.082 13.1172L667.703 14.1796L653.256 31.4403L651.635 30.3779L666.082 13.1172Z" fill="#F29720"/>
            <path
                d="M648.647 14.0323C651.868 10.1851 656.49 7.43914 661.735 6.25735C666.98 5.07556 672.527 5.53018 677.442 7.54457C675.111 5.24211 672.23 3.42704 669.009 2.23103C665.788 1.03502 662.307 0.488065 658.819 0.629848C655.331 0.771631 651.923 1.59859 648.843 3.05074C645.762 4.50289 643.086 6.54382 641.009 9.02545C638.932 11.5071 637.506 14.3672 636.834 17.3983C636.162 20.4294 636.262 23.5556 637.125 26.5499C637.988 29.5442 639.594 32.3316 641.825 34.7099C644.057 37.0882 646.858 38.9978 650.026 40.3001C646.417 36.727 644.309 32.1633 644.057 27.3785C643.806 22.5936 645.427 17.88 648.647 14.0323Z"
                fill="#F29720"/>
            <path
                d="M672.434 6.08286C671.399 5.8881 670.35 5.75628 669.295 5.68834L661.639 0.669546C662.126 0.701092 662.61 0.746221 663.096 0.803591L664.779 1.06353L672.434 6.08286ZM664.898 5.76253C664.196 5.83061 663.499 5.92841 662.809 6.05557L655.157 1.03949C655.845 0.914294 656.54 0.815707 657.242 0.743732L664.898 5.76253ZM656.808 7.91808C656.315 8.13908 655.833 8.3778 655.362 8.63425L647.71 3.61817C648.182 3.36172 648.664 3.123 649.156 2.902L656.808 7.91808ZM650.872 11.7577C650.515 12.0727 650.17 12.4013 649.835 12.7422L642.183 7.72615C642.517 7.38578 642.863 7.05658 643.22 6.74166L650.872 11.7577ZM645.485 19.2135L637.833 14.1975C638.009 13.7697 638.207 13.3447 638.424 12.921L646.076 17.9371C645.859 18.3612 645.664 18.7821 645.485 19.2135ZM644.034 26.914L636.385 21.9002C636.37 21.3516 636.379 20.8027 636.414 20.2548L644.066 25.2709C644.028 25.8179 644.02 26.3672 644.034 26.914ZM638.752 30.5339L646.412 35.5554C645.983 34.7778 645.609 33.9772 645.294 33.1583L637.642 28.1422L638.752 30.5339Z"
                fill="#FFCB5C"/>
            <path
                d="M517.462 357.586C522.217 358.747 527.847 356.657 530.035 352.917C532.224 349.177 530.143 345.203 525.388 344.041C520.632 342.879 515.003 344.97 512.814 348.71C510.625 352.45 512.706 356.424 517.462 357.586Z"
                fill="#FFCB5C"/>
            <path
                d="M518.59 352.383C518.914 352.704 519.359 352.942 519.879 353.073C520.724 353.28 521.423 353.049 521.72 352.542C521.995 352.071 521.811 351.719 521.1 351.247C520.226 350.701 519.829 350.117 520.245 349.408C520.703 348.624 521.87 348.243 523.113 348.547C523.612 348.654 524.049 348.857 524.384 349.139L523.846 349.613C523.565 349.364 523.195 349.18 522.77 349.078C521.897 348.864 521.325 349.194 521.124 349.537C520.848 350.008 521.102 350.334 521.827 350.819C522.718 351.412 523.028 351.957 522.595 352.696C522.141 353.472 521.017 353.966 519.507 353.597C518.934 353.463 518.436 353.215 518.063 352.877L518.59 352.383Z"
                fill="#F29720"/>
            <path d="M523.086 347.531L523.824 347.711L519.733 354.703L518.995 354.522L523.086 347.531Z" fill="#F29720"/>
            <path
                d="M516.297 349.567C517.209 348.009 518.777 346.665 520.735 345.762C522.693 344.86 524.923 344.453 527.048 344.612C525.914 344.103 524.61 343.806 523.229 343.743C521.847 343.679 520.424 343.85 519.062 344.243C517.7 344.636 516.433 345.242 515.353 346.016C514.274 346.79 513.408 347.713 512.82 348.718C512.232 349.723 511.935 350.785 511.952 351.827C511.969 352.869 512.299 353.864 512.918 354.741C513.537 355.618 514.429 356.355 515.53 356.898C516.631 357.44 517.914 357.775 519.284 357.879C517.528 357.089 516.273 355.831 515.729 354.317C515.185 352.803 515.385 351.126 516.297 349.567Z"
                fill="#F29720"/>
            <path
                d="M524.938 344.636C524.512 344.677 524.086 344.739 523.663 344.822L520.178 343.971C520.373 343.932 520.568 343.899 520.765 343.869L521.452 343.785L524.938 344.636ZM521.936 345.284C521.666 345.376 521.4 345.477 521.14 345.587L517.656 344.736C517.916 344.627 518.181 344.526 518.451 344.433L521.936 345.284ZM518.947 346.784C518.773 346.904 518.605 347.029 518.443 347.158L514.96 346.307C515.122 346.178 515.29 346.053 515.463 345.933L518.947 346.784ZM516.963 348.61C516.852 348.747 516.746 348.887 516.646 349.03L513.163 348.179C513.263 348.036 513.368 347.896 513.48 347.759L516.963 348.61ZM515.533 351.545L512.049 350.694C512.079 350.539 512.117 350.382 512.163 350.224L515.647 351.075C515.601 351.233 515.563 351.388 515.533 351.545ZM515.677 354.166L512.195 353.316C512.137 353.141 512.09 352.963 512.053 352.783L515.536 353.634C515.572 353.814 515.62 353.992 515.677 354.166ZM513.931 355.857L517.418 356.709C517.176 356.501 516.955 356.281 516.754 356.049L513.271 355.198L513.931 355.857Z"
                fill="#FFCB5C"/>
        </g>
    </g>
    <defs>
        <filter id="filter0_d_2202_25027" x="0" y="0" width="1236" height="358" filterUnits="userSpaceOnUse"
                color-interpolation-filters="sRGB">
            <feFlood flood-opacity="0" result="BackgroundImageFix"/>
            <feColorMatrix in="SourceAlpha" type="matrix" values="0 0 0 0 0 0 0 0 0 0 0 0 0 0 0 0 0 0 127 0"
                           result="hardAlpha"/>
            <feOffset dy="1"/>
            <feGaussianBlur stdDeviation="1"/>
            <feComposite in2="hardAlpha" operator="out"/>
            <feColorMatrix type="matrix" values="0 0 0 0 0 0 0 0 0 0 0 0 0 0 0 0 0 0 0.05 0"/>
            <feBlend mode="normal" in2="BackgroundImageFix" result="effect1_dropShadow_2202_25027"/>
            <feBlend mode="normal" in="SourceGraphic" in2="effect1_dropShadow_2202_25027" result="shape"/>
        </filter>
        <linearGradient id="paint0_linear_2202_25027" x1="2" y1="178" x2="1234" y2="178" gradientUnits="userSpaceOnUse">
            <stop stop-color="#116239"/>
            <stop offset="0.32" stop-color="#278455"/>
            <stop offset="1" stop-color="#08A657"/>
        </linearGradient>
        <clipPath id="clip0_2202_25027">
            <rect x="2" y="1" width="1232" height="354" rx="8" fill="white"/>
        </clipPath>
    </defs>
</svg>
