<svg width="21" height="20" viewBox="0 0 21 20" fill="none" xmlns="http://www.w3.org/2000/svg">
    <path
        d="M2.16659 2.50002H3.11051L3.48409 5.11511L4.36427 11.5844C4.41648 11.9683 4.46186 12.3019 4.5209 12.5764C4.58361 12.8679 4.6733 13.1536 4.84491 13.4238C5.10326 13.8305 5.47364 14.1539 5.91148 14.3551C6.20232 14.4887 6.49748 14.539 6.79484 14.5619C7.07474 14.5834 7.41147 14.5834 7.79886 14.5834H14.9883C15.3568 14.5834 15.6779 14.5834 15.9457 14.5634C16.2309 14.5421 16.5138 14.4951 16.7949 14.3714C17.2194 14.1845 17.5835 13.8831 17.8465 13.5011C18.0207 13.2482 18.1197 12.9791 18.194 12.7029C18.2638 12.4436 18.3238 12.1282 18.3928 11.7662L19.5053 5.92569C19.5275 5.80939 19.5531 5.67521 19.5651 5.55688C19.5786 5.42378 19.5864 5.22144 19.5084 5.00043C19.4097 4.72111 19.2151 4.4859 18.9592 4.33673C18.7567 4.21871 18.5564 4.18854 18.4232 4.17692C18.3047 4.16659 18.1681 4.16664 18.0497 4.16668L5.03219 4.16669L4.73754 2.10413C4.72529 2.01814 4.71033 1.91313 4.68984 1.82074C4.6657 1.71194 4.62237 1.5617 4.52387 1.40822C4.39436 1.20642 4.20954 1.04612 3.99146 0.946453C3.82558 0.870648 3.67073 0.849001 3.55961 0.840496C3.46525 0.833273 3.35918 0.833314 3.27232 0.833348L2.16659 0.833353C1.70635 0.833353 1.33325 1.20645 1.33325 1.66669C1.33325 2.12692 1.70635 2.50002 2.16659 2.50002Z"
        fill="white"/>
    <path
        d="M6.33325 17.5C6.33325 16.5795 7.07944 15.8333 7.99992 15.8333C8.92039 15.8333 9.66658 16.5795 9.66658 17.5C9.66658 18.4205 8.92039 19.1667 7.99992 19.1667C7.07944 19.1667 6.33325 18.4205 6.33325 17.5Z"
        fill="white"/>
    <path
        d="M12.9999 17.5C12.9999 16.5795 13.7461 15.8333 14.6666 15.8333C15.5871 15.8333 16.3333 16.5795 16.3333 17.5C16.3333 18.4205 15.5871 19.1667 14.6666 19.1667C13.7461 19.1667 12.9999 18.4205 12.9999 17.5Z"
        fill="white"/>
</svg>
