<svg width="20" height="20" viewBox="0 0 20 20" fill="none" xmlns="http://www.w3.org/2000/svg">
<path d="M1.66683 2.50002H2.61075L2.98433 5.11511L3.86451 11.5844C3.91672 11.9683 3.96211 12.3019 4.02114 12.5764C4.08386 12.8679 4.17355 13.1536 4.34516 13.4238C4.6035 13.8305 4.97388 14.1539 5.41172 14.3551C5.70256 14.4887 5.99772 14.539 6.29508 14.5619C6.57498 14.5834 6.91171 14.5834 7.2991 14.5834H14.4886C14.857 14.5834 15.1782 14.5834 15.446 14.5634C15.7311 14.5421 16.014 14.4951 16.2951 14.3714C16.7196 14.1845 17.0837 13.8831 17.3468 13.5011C17.5209 13.2482 17.62 12.9791 17.6943 12.7029C17.764 12.4436 17.8241 12.1282 17.893 11.7662L19.0055 5.92569C19.0277 5.80939 19.0533 5.67521 19.0653 5.55688C19.0788 5.42378 19.0867 5.22144 19.0086 5.00043C18.91 4.72111 18.7153 4.4859 18.4594 4.33673C18.2569 4.21871 18.0567 4.18854 17.9234 4.17692C17.8049 4.16659 17.6683 4.16664 17.5499 4.16668L4.53243 4.16669L4.23779 2.10413C4.22554 2.01814 4.21058 1.91313 4.19008 1.82074C4.16595 1.71194 4.12262 1.5617 4.02412 1.40822C3.89461 1.20642 3.70979 1.04612 3.4917 0.946453C3.32583 0.870648 3.17097 0.849001 3.05985 0.840496C2.96549 0.833273 2.85943 0.833314 2.77257 0.833348L1.66683 0.833353C1.20659 0.833353 0.833496 1.20645 0.833496 1.66669C0.833496 2.12692 1.20659 2.50002 1.66683 2.50002Z" fill="white"/>
<path d="M5.8335 17.5C5.8335 16.5795 6.57969 15.8333 7.50016 15.8333C8.42064 15.8333 9.16683 16.5795 9.16683 17.5C9.16683 18.4205 8.42064 19.1667 7.50016 19.1667C6.57969 19.1667 5.8335 18.4205 5.8335 17.5Z" fill="white"/>
<path d="M12.5002 17.5C12.5002 16.5795 13.2464 15.8333 14.1668 15.8333C15.0873 15.8333 15.8335 16.5795 15.8335 17.5C15.8335 18.4205 15.0873 19.1667 14.1668 19.1667C13.2464 19.1667 12.5002 18.4205 12.5002 17.5Z" fill="white"/>
</svg>
