<svg width="57" height="72" viewBox="0 0 57 72" fill="none" xmlns="http://www.w3.org/2000/svg">
    <path d="M15.7035 72L8.37618 72L2.38112 72L0.71582 69.8755L0.715817 2.48292L2.38111 0.476486L54.3384 0.476484L56.2257 2.48292L56.2257 69.8755L54.3384 72L41.7931 72L34.6879 72L28.9148 72L21.8096 72L15.7035 72Z" fill="#F6F6F6"/>
    <path fill-rule="evenodd" clip-rule="evenodd" d="M1.75 69L1.75 3.00043C1.75 2.31008 2.30964 1.75043 3 1.75043L53.8421 1.75043C54.5325 1.75043 55.0921 2.31007 55.0921 3.00043L55.0921 69C55.0921 69.6904 54.5325 70.25 53.8421 70.25L41.5769 70.25L41.5769 72L53.8421 72C55.499 72 56.8421 70.6569 56.8421 69L56.8421 3.00043C56.8421 1.34358 55.499 0.00043245 53.8421 0.000432522L3 0.000434744C1.34314 0.000434817 -3.08849e-06 1.34358 -3.01607e-06 3.00043L-1.31134e-07 69C-5.87108e-08 70.6569 1.34314 72 3 72L8.38199 72L8.38199 70.25L3 70.25C2.30964 70.25 1.75 69.6904 1.75 69ZM34.5549 72L34.5549 70.25L28.7264 70.25L28.7264 72L34.5549 72ZM15.404 70.25L21.7044 70.25L21.7044 72L15.404 72L15.404 70.25Z" fill="black"/>
    <path d="M9.32887 70.9973C9.32887 71.526 9.07213 72 8.38173 72C7.69134 72 7.6948 70.1331 8.38173 70.1331C9.06867 70.1331 9.32887 70.4686 9.32887 70.9973Z" fill="black"/>
    <path d="M22.6648 70.9973C22.6648 71.526 22.4081 72 21.7177 72C21.0273 72 21.0307 70.1331 21.7177 70.1331C22.4046 70.1331 22.6648 70.4686 22.6648 70.9973Z" fill="black"/>
    <path d="M35.5144 70.9973C35.5144 71.526 35.2577 72 34.5673 72C33.8769 72 33.8803 70.1331 34.5673 70.1331C35.2542 70.1331 35.5144 70.4686 35.5144 70.9973Z" fill="black"/>
    <path d="M14.4358 70.9973C14.4358 71.526 14.6925 72 15.3829 72C16.0733 72 16.0699 70.1331 15.3829 70.1331C14.696 70.1331 14.4358 70.4686 14.4358 70.9973Z" fill="black"/>
    <path d="M27.7649 70.9973C27.7649 71.526 28.0216 72 28.712 72C29.4024 72 29.399 70.1331 28.712 70.1331C28.0251 70.1331 27.7649 70.4686 27.7649 70.9973Z" fill="black"/>
    <path d="M40.6262 70.9973C40.6262 71.526 40.883 72 41.5733 72C42.2637 72 42.2603 70.1331 41.5733 70.1331C40.8864 70.1331 40.6262 70.4686 40.6262 70.9973Z" fill="black"/>
    <circle cx="24.1473" cy="63.1707" r="0.917763" fill="#989898"/>
    <circle cx="28.4617" cy="63.1707" r="0.917763" fill="#C4C4C4"/>
    <circle cx="32.7771" cy="63.1707" r="0.917763" fill="#C4C4C4"/>
    <rect x="17.5674" y="49.8184" width="21.7895" height="7.22368" rx="1" fill="#87C689"/>
    <path d="M7.5019 37.3311L5.72559 39.2258L7.5019 41.3574H41.0151V37.3311H7.5019Z" fill="#A5D4A6"/>
    <rect x="5.88965" y="37.6143" width="45.1447" height="4.34294" rx="2.17147" stroke="black" stroke-width="1.75"/>
    <path d="M7.62012 12.6404V27.6206L8.86354 28.6864L47.3504 29.1009L49.5412 27.2654V13.2325L47.8241 11.9298L9.15959 11.6338L7.62012 12.6404Z" fill="#B2EBF2"/>
    <path d="M16.5408 17.5796C17.6922 17.5796 18.6255 16.6463 18.6255 15.4949C18.6255 14.3435 17.6922 13.4102 16.5408 13.4102C15.3894 13.4102 14.4561 14.3435 14.4561 15.4949C14.4561 16.6463 15.3894 17.5796 16.5408 17.5796Z" fill="#F8BF79"/>
    <path d="M48.9821 22.8319L48.4214 22.2338L41.6919 16.3115L35.8037 22.503L38.8785 25.455L41.1312 27.6177H48.9821V22.8319Z" fill="#69B86B"/>
    <path d="M8.0293 27.9985H20.8821L18.7308 25.8473L12.8582 19.9746L8.0293 24.2262V27.9985Z" fill="#69B86B"/>
    <path d="M23.1582 27.9984H36.011L33.8597 26.1111L27.9871 20.959L23.1582 24.6889V27.9984Z" fill="#69B86B"/>
    <path d="M28.6076 24.863L22.2192 18.4746L12.3057 27.2032H30.9478L28.6076 24.863Z" fill="#87C689"/>
    <path d="M41.7531 24.9579L35.3647 18.8281L25.4512 27.2034H44.0933L41.7531 24.9579Z" fill="#A5D4A6"/>
    <path d="M48.9819 26.8506H7.52637V29.1465H48.9819V26.8506Z" fill="#BCAAA4"/>
    <rect x="7.54688" y="11.6797" width="41.8289" height="17.1974" rx="2.125" stroke="black" stroke-width="1.75"/>
</svg>
