<svg width="81" height="80" viewBox="0 0 81 80" fill="none" xmlns="http://www.w3.org/2000/svg">
    <path
        d="M13.834 60v-.667c0-5.6 0-8.401 1.09-10.54a10 10 0 0 1 4.37-4.37c2.139-1.09 4.94-1.09 10.54-1.09h21.333c5.6 0 8.4 0 10.54 1.09a10.001 10.001 0 0 1 4.37 4.37c1.09 2.139 1.09 4.94 1.09 10.54v.666m-53.333 0a6.667 6.667 0 1 0 0 13.334 6.667 6.667 0 0 0 0-13.334zm53.333 0a6.667 6.667 0 1 0 0 13.334 6.667 6.667 0 0 0 0-13.334zM40.5 60a6.667 6.667 0 1 0 0 13.334 6.667 6.667 0 0 0 0-13.334zm0 0V26.666m-20 0h40c3.107 0 4.66 0 5.885-.508a6.667 6.667 0 0 0 3.608-3.607c.507-1.226.507-2.779.507-5.885s0-4.66-.507-5.885a6.667 6.667 0 0 0-3.608-3.608c-1.225-.507-2.778-.507-5.885-.507h-40c-3.106 0-4.66 0-5.884.507a6.666 6.666 0 0 0-3.608 3.608c-.508 1.226-.508 2.779-.508 5.885s0 4.66.508 5.885a6.666 6.666 0 0 0 3.608 3.608c1.225.507 2.778.507 5.884.507z"
        stroke="#62B265" stroke-width="6.667" stroke-linecap="round" stroke-linejoin="round"/>
</svg>
