<svg width="72" height="72" viewBox="0 0 72 72" fill="none" xmlns="http://www.w3.org/2000/svg">
    <ellipse cx="35.947" cy="19.848" rx="19.0749" ry="19.1322" fill="#FFCC80"/>
    <path d="M1.11182 21.2895V46.3682L16.2096 62.9998L31.2841 63.0225V54.987L30.0565 51.2284L15.5842 36.7774L11.8369 37.4254L10.157 40.0823L8.73565 38.5919V21.2895L4.85912 19.2158L1.11182 21.2895Z" fill="#C09E96"/>
    <path d="M40.5879 53.3668V63.0873H55.8356L69.2742 48.8306L71.0832 45.0721V21.7431L68.3696 19.4102H65.6561L63.3302 21.7431V37.5549L62.038 40.4063L60.2289 37.5549L57.2569 36.5181L54.5434 38.203L43.6891 48.8306L40.5879 53.3668Z" fill="#C09E96"/>
    <path d="M14.2275 68.5311V70.9936H31.6719V62.958H14.2275V68.5311Z" fill="#556E79"/>
    <path d="M40.4893 68.5311V70.9936H57.9336V62.958H40.4893V68.5311Z" fill="#556E79"/>
    <path d="M55.774 63.8767H55.395C55.2852 63.8283 55.1862 63.7582 55.1039 63.6706C55.0216 63.5831 54.9577 63.4798 54.9159 63.367C54.8741 63.2541 54.8554 63.134 54.8608 63.0138C54.8661 62.8935 54.8955 62.7756 54.9472 62.6669C55.273 61.9274 55.7688 61.2759 56.3941 60.7658L67.8314 49.0481C69.3617 47.4784 70.2155 45.3678 70.2084 43.172V23.4696C70.2084 22.6354 69.8781 21.8353 69.2902 21.2454C68.7023 20.6556 67.9049 20.3242 67.0735 20.3242C66.242 20.3242 65.4447 20.6556 64.8568 21.2454C64.2689 21.8353 63.9385 22.6354 63.9385 23.4696V36.8119C63.9018 39.6423 62.7645 42.3462 60.7692 44.3472L57.3242 47.8038C57.2405 47.8877 57.1412 47.9544 57.0318 47.9998C56.9225 48.0453 56.8053 48.0686 56.6869 48.0686C56.5685 48.0686 56.4513 48.0453 56.342 47.9998C56.2326 47.9544 56.1333 47.8877 56.0496 47.8038C55.9659 47.7198 55.8995 47.6201 55.8542 47.5104C55.8089 47.4007 55.7856 47.2831 55.7856 47.1643C55.7856 47.0455 55.8089 46.9279 55.8542 46.8182C55.8995 46.7085 55.9659 46.6088 56.0496 46.5248L59.4946 43.0683C61.1633 41.3991 62.1153 39.1414 62.1472 36.7774V23.4351C62.1472 22.1241 62.6662 20.8669 63.5901 19.9399C64.5139 19.013 65.7669 18.4922 67.0735 18.4922C68.38 18.4922 69.6331 19.013 70.5569 19.9399C71.4808 20.8669 71.9998 22.1241 71.9998 23.4351V43.1374C72.011 45.8116 70.9713 48.3824 69.106 50.2925L57.5309 62.0793C57.0844 62.4256 56.7295 62.8767 56.4975 63.3928C56.4277 63.5285 56.3247 63.6441 56.1981 63.7288C56.0716 63.8134 55.9256 63.8644 55.774 63.8767Z" fill="black"/>
    <path d="M40.4675 63.8683C40.23 63.8683 40.0022 63.7737 39.8342 63.6051C39.6663 63.4366 39.5719 63.208 39.5719 62.9696V56.0565C39.566 54.7343 39.8218 53.424 40.3245 52.2017C40.8271 50.9794 41.5666 49.8694 42.5001 48.936L54.144 37.2529C54.593 36.7975 55.1305 36.4398 55.7232 36.2019C56.3158 35.9641 56.951 35.8511 57.589 35.8702C58.2265 35.8552 58.8605 35.97 59.4526 36.2076C60.0447 36.4453 60.5826 36.8008 61.034 37.2529C61.4957 37.699 61.8597 38.2368 62.1029 38.8319C62.3461 39.427 62.4631 40.0664 62.4464 40.7094C62.4456 41.9284 61.9623 43.0971 61.1029 43.9586L54.4196 50.6643C54.336 50.7483 54.2366 50.8149 54.1273 50.8603C54.0179 50.9058 53.9007 50.9292 53.7823 50.9292C53.664 50.9292 53.5467 50.9058 53.4374 50.8603C53.328 50.8149 53.2287 50.7483 53.145 50.6643C53.0613 50.5803 52.9949 50.4806 52.9496 50.3709C52.9043 50.2612 52.881 50.1436 52.881 50.0248C52.881 49.9061 52.9043 49.7885 52.9496 49.6788C52.9949 49.569 53.0613 49.4694 53.145 49.3854L59.8283 42.6797C60.0897 42.4194 60.2972 42.1098 60.4388 41.7687C60.5804 41.4275 60.6533 41.0617 60.6533 40.6921C60.6533 40.3226 60.5804 39.9567 60.4388 39.6156C60.2972 39.2745 60.0897 38.9649 59.8283 38.7046C59.5523 38.4139 59.2212 38.1815 58.8544 38.0213C58.4875 37.861 58.0924 37.776 57.6923 37.7714C57.3076 37.7684 56.9262 37.8435 56.5711 37.992C56.2159 38.1404 55.8943 38.3593 55.6254 38.6355L43.9814 50.3186C43.2138 51.0835 42.6053 51.9938 42.1913 52.9966C41.7774 53.9994 41.5662 55.0748 41.57 56.1602V63.0733C41.5587 63.2022 41.5198 63.327 41.456 63.4394C41.3923 63.5518 41.3051 63.649 41.2005 63.7245C41.0958 63.8 40.9761 63.8519 40.8496 63.8767C40.7232 63.9015 40.5928 63.8987 40.4675 63.8683Z" fill="black"/>
    <path d="M16.3982 63.8771C16.2214 63.8771 16.0485 63.8246 15.9013 63.7262C15.7542 63.6278 15.6394 63.4879 15.5714 63.3241C15.3007 62.8214 14.9101 62.3939 14.4345 62.0797L2.89385 50.2583C1.02857 48.3482 -0.0111525 45.7774 9.0237e-05 43.1032V23.4009C9.0237e-05 22.0899 0.519115 20.8327 1.44298 19.9057C2.36684 18.9788 3.61989 18.458 4.92643 18.458C6.23296 18.458 7.48596 18.9788 8.40982 19.9057C9.33368 20.8327 9.85271 22.0899 9.85271 23.4009V36.7777C9.88461 39.1417 10.8366 41.3995 12.5053 43.0687L15.9503 46.5252C16.1193 46.6948 16.2143 46.9248 16.2143 47.1647C16.2143 47.4045 16.1193 47.6345 15.9503 47.8041C15.7813 47.9737 15.552 48.069 15.313 48.069C15.074 48.069 14.8447 47.9737 14.6757 47.8041L11.2307 44.3476C9.23539 42.3466 8.09805 39.6426 8.06131 36.8123V23.4354C8.06131 22.6012 7.73105 21.8012 7.14314 21.2113C6.55522 20.6214 5.75786 20.29 4.92643 20.29C4.09499 20.29 3.29757 20.6214 2.70966 21.2113C2.12175 21.8012 1.79149 22.6012 1.79149 23.4354V43.1378C1.78444 45.3336 2.63821 47.4442 4.16853 49.0139L15.6058 60.7317C16.2268 61.2319 16.7223 61.8712 17.0527 62.5982C17.1044 62.7068 17.1338 62.8248 17.1392 62.945C17.1445 63.0653 17.1258 63.1854 17.084 63.2982C17.0422 63.411 16.9783 63.5143 16.896 63.6019C16.8137 63.6895 16.7147 63.7595 16.6049 63.808L16.3982 63.8771Z" fill="black"/>
    <path d="M31.1625 63.8771C30.925 63.8771 30.6971 63.7824 30.5291 63.6139C30.3612 63.4453 30.2668 63.2167 30.2668 62.9784V56.0653C30.2706 54.9798 30.0594 53.9045 29.6454 52.9016C29.2314 51.8988 28.6229 50.9885 27.8553 50.2237L16.2114 38.5405C15.6743 37.9943 14.9436 37.6837 14.1789 37.6764C13.403 37.6783 12.6596 37.9891 12.1119 38.5405C11.833 38.8021 11.6099 39.1177 11.4559 39.4682C11.302 39.8187 11.2204 40.1969 11.2162 40.5799C11.2168 40.9469 11.2902 41.3102 11.4322 41.6484C11.5741 41.9867 11.7818 42.2932 12.043 42.5501L18.7262 49.2559C18.8099 49.3398 18.8763 49.4395 18.9216 49.5493C18.9669 49.659 18.9902 49.7766 18.9902 49.8953C18.9902 50.0141 18.9669 50.1317 18.9216 50.2414C18.8763 50.3511 18.8099 50.4508 18.7262 50.5348C18.6425 50.6188 18.5431 50.6854 18.4338 50.7308C18.3244 50.7763 18.2073 50.7997 18.0889 50.7997C17.9705 50.7997 17.8533 50.7763 17.744 50.7308C17.6346 50.6854 17.5353 50.6188 17.4516 50.5348L10.7684 43.8291C10.3382 43.4016 9.99672 42.8929 9.76368 42.3322C9.53063 41.7715 9.41064 41.1701 9.41064 40.5626C9.41064 39.9552 9.53063 39.3537 9.76368 38.7931C9.99672 38.2324 10.3382 37.7237 10.7684 37.2962C11.2151 36.8333 11.7506 36.466 12.3427 36.2165C12.9348 35.967 13.5712 35.8404 14.2133 35.8444C14.8511 35.8274 15.4856 35.9412 16.078 36.179C16.6704 36.4167 17.2081 36.7734 17.6583 37.2271L29.3023 48.9102C30.2357 49.8436 30.9752 50.9536 31.4778 52.1759C31.9805 53.3982 32.2363 54.7085 32.2304 56.0307V62.9438C32.2383 63.0807 32.2148 63.2177 32.1618 63.3441C32.1088 63.4705 32.0276 63.5831 31.9245 63.6731C31.8214 63.7632 31.6992 63.8284 31.5671 63.8638C31.435 63.8991 31.2966 63.9037 31.1625 63.8771Z" fill="black"/>
    <path d="M30.0057 72.0004H15.5713C14.8769 72.0004 14.211 71.7236 13.72 71.231C13.229 70.7383 12.9531 70.0701 12.9531 69.3734V62.9788C12.9531 62.7404 13.0475 62.5118 13.2154 62.3433C13.3834 62.1748 13.6112 62.0801 13.8488 62.0801H31.6593C31.8968 62.0801 32.1247 62.1748 32.2926 62.3433C32.4606 62.5118 32.5549 62.7404 32.5549 62.9788V69.3734C32.5552 70.0583 32.2888 70.7162 31.8127 71.2069C31.3365 71.6977 30.6881 71.9824 30.0057 72.0004ZM14.7445 63.8775V69.3734C14.7445 69.4824 14.7659 69.5902 14.8074 69.6909C14.849 69.7915 14.9099 69.883 14.9866 69.96C15.0634 70.037 15.1546 70.0981 15.2549 70.1398C15.3552 70.1815 15.4627 70.203 15.5713 70.203H30.0057C30.1143 70.203 30.2218 70.1815 30.3221 70.1398C30.4224 70.0981 30.5136 70.037 30.5903 69.96C30.6671 69.883 30.728 69.7915 30.7695 69.6909C30.8111 69.5902 30.8325 69.4824 30.8325 69.3734V63.8775H14.7445Z" fill="black"/>
    <path d="M56.463 72.0004H41.9941C41.2997 72.0004 40.6338 71.7236 40.1428 71.231C39.6518 70.7383 39.376 70.0701 39.376 69.3734V62.9788C39.376 62.7404 39.4703 62.5118 39.6383 62.3433C39.8063 62.1748 40.0341 62.0801 40.2716 62.0801H58.151C58.3886 62.0801 58.6164 62.1748 58.7843 62.3433C58.9523 62.5118 59.0467 62.7404 59.0467 62.9788V69.3734C59.0467 70.0642 58.7756 70.7272 58.292 71.2189C57.8085 71.7105 57.1514 71.9913 56.463 72.0004ZM41.2018 63.8775V69.3734C41.2018 69.4824 41.2232 69.5902 41.2647 69.6909C41.3063 69.7915 41.3672 69.883 41.444 69.96C41.5207 70.037 41.6119 70.0981 41.7122 70.1398C41.8125 70.1815 41.92 70.203 42.0286 70.203H56.463C56.5715 70.203 56.679 70.1815 56.7794 70.1398C56.8797 70.0981 56.9708 70.037 57.0476 69.96C57.1244 69.883 57.1853 69.7915 57.2269 69.6909C57.2684 69.5902 57.2898 69.4824 57.2898 69.3734V63.8775H41.2018Z" fill="black"/>
    <path d="M55.774 63.8775H46.507C46.2695 63.8775 46.0417 63.7828 45.8737 63.6143C45.7057 63.4457 45.6113 63.2171 45.6113 62.9788C45.6113 62.7404 45.7057 62.5118 45.8737 62.3433C46.0417 62.1748 46.2695 62.0801 46.507 62.0801H55.774C56.0116 62.0801 56.2394 62.1748 56.4074 62.3433C56.5753 62.5118 56.6697 62.7404 56.6697 62.9788C56.6697 63.2171 56.5753 63.4457 56.4074 63.6143C56.2394 63.7828 56.0116 63.8775 55.774 63.8775Z" fill="black"/>
    <path d="M35.9998 30.3828C35.1169 30.3855 34.2456 30.1805 33.4559 29.7843C32.6662 29.3881 31.9801 28.8118 31.4525 28.1014C31.3824 28.0061 31.3316 27.8979 31.3032 27.7829C31.2748 27.6679 31.2692 27.5484 31.2868 27.4312C31.3044 27.3141 31.3448 27.2016 31.4057 27.1001C31.4667 26.9986 31.5469 26.9101 31.6419 26.8398C31.7369 26.7694 31.8448 26.7185 31.9594 26.69C32.074 26.6615 32.1931 26.6559 32.3099 26.6735C32.4266 26.6912 32.5388 26.7318 32.6399 26.7929C32.7411 26.854 32.8292 26.9346 32.8994 27.0299C33.2978 27.5605 33.8245 27.9803 34.4297 28.2497C35.0349 28.5191 35.6986 28.6291 36.3581 28.5695C37.0175 28.5098 37.6508 28.2824 38.1982 27.9087C38.7456 27.535 39.189 27.0274 39.4864 26.4338C39.7838 25.8403 39.9254 25.1805 39.8978 24.5167C39.8702 23.853 39.6744 23.2073 39.3288 22.6406C38.9833 22.074 38.4993 21.6052 37.9228 21.2785C37.3464 20.9517 36.6964 20.778 36.0343 20.7735C34.5931 20.71 33.2283 20.1055 32.2104 19.0798C31.7218 18.5124 31.3494 17.854 31.1144 17.1422C30.8794 16.4304 30.7864 15.6791 30.8408 14.9312C30.8951 14.1834 31.0958 13.4536 31.4313 12.7835C31.7668 12.1135 32.2305 11.5163 32.796 11.026C33.3615 10.5358 34.0177 10.1621 34.7271 9.92636C35.4366 9.69057 36.1854 9.59729 36.9307 9.65186C37.6761 9.70642 38.4034 9.90776 39.0712 10.2444C39.739 10.581 40.3342 11.0463 40.8228 11.6137C40.9644 11.8062 41.024 12.0473 40.9885 12.2839C40.953 12.5205 40.8252 12.7332 40.6333 12.8753C40.4414 13.0174 40.2012 13.0772 39.9654 13.0415C39.7295 13.0059 39.5176 12.8777 39.3759 12.6852C38.9775 12.1546 38.4507 11.7348 37.8455 11.4654C37.2403 11.196 36.5767 11.0859 35.9172 11.1456C35.2578 11.2053 34.6245 11.4327 34.0771 11.8064C33.5297 12.1801 33.0863 12.6877 32.7889 13.2812C32.4915 13.8748 32.3499 14.5346 32.3774 15.1983C32.405 15.8621 32.6008 16.5078 32.9464 17.0744C33.292 17.6411 33.7759 18.1099 34.3524 18.4366C34.9289 18.7633 35.5789 18.9371 36.241 18.9416C37.7531 18.9736 39.1906 19.6071 40.2372 20.7026C41.2838 21.7981 41.8538 23.2659 41.8218 24.7831C41.7899 26.3003 41.1585 27.7426 40.0667 28.7928C38.9748 29.8429 37.5119 30.4148 35.9998 30.3828Z" fill="black"/>
    <path d="M36.0002 35.6374C31.9326 35.5793 28.0454 33.9437 25.1532 31.0733C22.261 28.203 20.5884 24.3208 20.486 20.2404C20.3835 16.16 21.8592 12.1982 24.6037 9.18542C27.3481 6.17261 31.1484 4.34265 35.2079 4.0791C35.4454 4.0791 35.6733 4.17379 35.8413 4.34233C36.0092 4.51087 36.1036 4.73945 36.1036 4.9778C36.1036 5.21615 36.0092 5.44475 35.8413 5.61328C35.6733 5.78182 35.4454 5.87651 35.2079 5.87651C32.7619 6.06146 30.4095 6.89814 28.3936 8.30016C26.3776 9.70219 24.7711 11.6187 23.74 13.8519C22.709 16.085 22.2907 18.5539 22.5284 21.0034C22.7661 23.453 23.6511 25.7945 25.0922 27.7862C26.5332 29.7778 28.4779 31.3474 30.7255 32.333C32.9732 33.3185 35.4423 33.6842 37.8779 33.3922C40.3134 33.1003 42.6272 32.1614 44.5802 30.6724C46.5333 29.1834 48.0548 27.1983 48.9877 24.9221C49.0745 24.6975 49.2467 24.5167 49.4663 24.4195C49.686 24.3222 49.9352 24.3165 50.159 24.4036C50.3828 24.4907 50.563 24.6635 50.66 24.8839C50.7569 25.1043 50.7626 25.3543 50.6758 25.5789C49.536 28.5517 47.5217 31.1063 44.9003 32.9029C42.279 34.6996 39.1747 35.6533 36.0002 35.6374Z" fill="black"/>
    <path d="M37.2572 5.88905C36.5232 5.8358 35.7864 5.8358 35.0524 5.88905C34.9348 5.89367 34.8174 5.87501 34.707 5.83414C34.5965 5.79327 34.4952 5.73099 34.4088 5.65087C34.3224 5.57075 34.2526 5.47434 34.2035 5.36719C34.1543 5.26003 34.1267 5.14422 34.1223 5.02637C34.1177 4.90853 34.1363 4.79093 34.1771 4.68031C34.2179 4.56969 34.2801 4.46821 34.3601 4.38167C34.4401 4.29514 34.5363 4.22525 34.6433 4.17601C34.7503 4.12676 34.8659 4.09913 34.9835 4.09469C35.7748 4.03745 36.5692 4.03745 37.3605 4.09469C37.4782 4.10148 37.5933 4.13142 37.6994 4.18279C37.8054 4.23416 37.9004 4.30594 37.9788 4.39406C38.0571 4.48218 38.1174 4.5849 38.1562 4.69636C38.1949 4.80781 38.2114 4.92581 38.2046 5.04363C38.1978 5.16145 38.1679 5.27677 38.1166 5.38302C38.0653 5.48927 37.9937 5.58436 37.9057 5.66286C37.8177 5.74137 37.7152 5.80175 37.6039 5.84055C37.4926 5.87936 37.3748 5.89584 37.2572 5.88905Z" fill="black"/>
    <path d="M50.7443 19.0113C50.5236 19.0127 50.3101 18.9324 50.1448 18.7857C49.9796 18.639 49.874 18.4362 49.8486 18.2162C49.67 16.6546 49.2272 15.135 48.5395 13.7227C48.4875 13.616 48.4569 13.5001 48.4495 13.3816C48.4422 13.2631 48.4581 13.1443 48.4965 13.0319C48.5349 12.9196 48.5949 12.8159 48.6733 12.7269C48.7516 12.6378 48.8466 12.5651 48.9529 12.5129C49.0592 12.4607 49.1747 12.43 49.2929 12.4226C49.411 12.4152 49.5294 12.4313 49.6414 12.4698C49.7533 12.5083 49.8567 12.5685 49.9454 12.6471C50.0342 12.7257 50.1066 12.821 50.1586 12.9277C50.9356 14.525 51.4366 16.2432 51.64 18.0088C51.6544 18.127 51.6452 18.2468 51.6131 18.3614C51.5809 18.476 51.5264 18.583 51.4526 18.6763C51.3789 18.7695 51.2875 18.8472 51.1837 18.9047C51.0798 18.9622 50.9656 18.9984 50.8477 19.0113H50.7443ZM46.4036 10.2316C46.1688 10.2246 45.9461 10.1253 45.7835 9.95507C44.6712 8.84446 43.378 7.93264 41.9596 7.25896C41.76 7.14912 41.6096 6.96714 41.5389 6.75C41.4682 6.53286 41.4826 6.29687 41.5791 6.08998C41.6756 5.88309 41.847 5.72085 42.0585 5.63622C42.2699 5.55159 42.5056 5.55093 42.7175 5.63437C44.3255 6.39459 45.7932 7.42312 47.0582 8.67615C47.1926 8.8017 47.2853 8.96569 47.3238 9.14589C47.3622 9.32609 47.3445 9.51379 47.2731 9.68356C47.2016 9.85333 47.0799 9.99697 46.9244 10.095C46.7689 10.193 46.5871 10.2407 46.4036 10.2316Z" fill="black"/>
    <path d="M49.8487 26.2006H49.5042C49.3925 26.1585 49.2904 26.0945 49.2038 26.0124C49.1171 25.9302 49.0477 25.8314 48.9995 25.722C48.9514 25.6125 48.9256 25.4945 48.9235 25.3749C48.9214 25.2553 48.9432 25.1364 48.9874 25.0254C49.2454 24.3623 49.4527 23.6806 49.6076 22.986C49.6325 22.8702 49.6798 22.7605 49.7469 22.6632C49.8141 22.5658 49.8997 22.4826 49.9988 22.4184C50.098 22.3542 50.2088 22.3103 50.3249 22.289C50.441 22.2678 50.5601 22.2697 50.6755 22.2947C50.7909 22.3197 50.9002 22.3672 50.9973 22.4345C51.0943 22.5019 51.1772 22.5878 51.2412 22.6873C51.3052 22.7868 51.349 22.898 51.3701 23.0144C51.3913 23.1309 51.3894 23.2505 51.3645 23.3662C51.1926 24.143 50.9622 24.9056 50.6755 25.6475C50.6075 25.8113 50.4927 25.9512 50.3455 26.0496C50.1984 26.1481 50.0255 26.2006 49.8487 26.2006Z" fill="black"/>
    <path d="M36.0002 39.7503C32.081 39.7572 28.2478 38.5973 24.9858 36.4176C21.7238 34.2378 19.1795 31.1362 17.675 27.505C16.1704 23.8739 15.7732 19.8766 16.5337 16.0189C17.2941 12.1613 19.178 8.6166 21.9469 5.83355C24.7157 3.0505 28.2452 1.15414 32.0886 0.384441C35.932 -0.385253 39.9167 0.00631938 43.5382 1.5096C47.1598 3.01289 50.2555 5.56031 52.4336 8.82952C54.6117 12.0987 55.7743 15.9428 55.7743 19.8752C55.7652 25.1376 53.6801 30.1824 49.9747 33.9068C46.2692 37.6311 41.245 39.7321 36.0002 39.7503ZM36.0002 1.72826C32.4436 1.72826 28.9668 2.78647 26.0096 4.76908C23.0523 6.7517 20.7474 9.56967 19.3864 12.8666C18.0253 16.1636 17.6692 19.7915 18.3631 23.2915C19.0569 26.7916 20.7696 30.0065 23.2846 32.5299C25.7995 35.0533 29.0036 36.7718 32.492 37.468C35.9803 38.1642 39.596 37.8069 42.8819 36.4412C46.1678 35.0756 48.9763 32.7629 50.9523 29.7957C52.9282 26.8285 53.9829 23.3401 53.9829 19.7715C53.9557 15.0009 52.0501 10.4346 48.6816 7.06771C45.3132 3.70084 40.7548 1.73731 36.0002 1.72826Z" fill="black"/>
    <path d="M71.0008 71.9996H1.06803C0.830483 71.9996 0.602694 71.9049 0.43472 71.7363C0.266745 71.5678 0.172363 71.3392 0.172363 71.1009C0.172363 70.8625 0.266745 70.6339 0.43472 70.4654C0.602694 70.2968 0.830483 70.2021 1.06803 70.2021H71.0008C71.2383 70.2021 71.4661 70.2968 71.6341 70.4654C71.8021 70.6339 71.8964 70.8625 71.8964 71.1009C71.8964 71.3392 71.8021 71.5678 71.6341 71.7363C71.4661 71.9049 71.2383 71.9996 71.0008 71.9996Z" fill="black"/>
    <rect x="35.4272" y="7.59961" width="1.795" height="3.49929" rx="0.897502" fill="black"/>
    <rect x="35.4272" y="28.6348" width="1.795" height="3.49929" rx="0.897502" fill="black"/>
</svg>
