<svg width="81" height="80" viewBox="0 0 81 80" fill="none" xmlns="http://www.w3.org/2000/svg">
<path d="M75.5214 44.4531C75.9169 43.8879 75.7789 43.1091 75.2138 42.7136L65.8058 36.1377C65.37 35.8362 64.7951 35.835 64.3641 36.1438C62.5328 37.5385 59.85 35.6476 60.5226 33.4594C60.663 32.9492 60.4677 32.406 60.0343 32.1033L30.1356 11.2036C29.5668 10.8069 28.7892 10.946 28.3949 11.5112C27.2746 13.1886 24.8012 13.6265 23.1727 12.4364C22.6343 12.0415 21.8034 12.1858 21.432 12.7441L4.24452 37.3328C3.84901 37.8992 3.98696 38.678 4.55213 39.0735C5.37367 39.6472 5.92176 40.5066 6.09632 41.4929C6.27088 42.4793 6.05116 43.4753 5.47742 44.2957C5.08298 44.8385 5.22687 45.6631 5.78504 46.0364L35.6849 66.936C36.1195 67.2376 36.6945 67.2388 37.1266 66.9299C37.9908 66.3172 39.1444 66.3049 40.0038 66.9043C40.8607 67.5037 41.2477 68.5925 40.9669 69.6155C40.8265 70.1245 41.0219 70.6677 41.4552 70.9705L50.8644 77.5464C51.4244 77.9394 52.2068 77.8085 52.6051 77.2388C53.1788 76.4172 54.0382 75.8692 55.0245 75.6946C56.0121 75.5188 57.0057 75.7398 57.8273 76.3135C58.3641 76.7084 59.1963 76.5648 59.568 76.0058C59.568 76.0059 76.7555 51.4173 76.7555 51.4173C77.151 50.8509 77.0131 50.072 76.4479 49.6765C74.7523 48.4912 74.3373 46.1487 75.5214 44.4531ZM58.1642 73.6499C55.9538 72.6487 53.1077 73.152 51.3746 74.8523L43.5377 69.3762C43.9921 65.6896 39.7709 62.744 36.4674 64.4324L8.14101 44.6326C9.14245 42.4193 8.63967 39.5772 6.93862 37.843L22.8358 15.1001C25.0459 16.1019 27.8924 15.5984 29.6254 13.8977L57.9506 33.6975C57.4997 37.3845 61.7177 40.3288 65.0233 38.6413L72.8603 44.1186C71.8678 46.4087 72.3439 49.0967 74.0626 50.9058L58.1642 73.6499Z" fill="#459948"/>
<path d="M58.6232 40.2674C58.0543 39.8694 57.2768 40.0086 56.8825 40.575L42.56 61.0657C42.1644 61.6321 42.3024 62.4109 42.8676 62.8064C43.4273 63.1991 44.2102 63.0686 44.6083 62.4988L58.9308 42.0081C59.3263 41.4417 59.1884 40.6629 58.6232 40.2674ZM50.2272 43.5498C52.606 40.2938 51.7299 35.3466 48.3778 33.1055L31.9862 21.648C28.7315 19.2693 23.7825 20.1452 21.5419 23.4974C21.5419 23.4973 14.38 33.7427 14.38 33.7427C12.0106 37.1314 12.8407 41.8164 16.2294 44.1858L32.6222 55.6445C35.8939 58.0254 40.8202 57.1449 43.0653 53.7951C43.0653 53.7952 50.2272 43.5498 50.2272 43.5498ZM39.3751 48.1653C38.9769 48.7352 38.1944 48.8655 37.6344 48.4729L21.2428 37.0142C20.6776 36.6187 20.5397 35.8399 20.9352 35.2735C21.3307 34.707 22.1071 34.5679 22.6759 34.9658L39.0675 46.4246C39.6327 46.8201 39.7707 47.5989 39.3751 48.1653ZM41.9313 42.3255L25.5397 30.8679C24.212 29.9319 25.6206 27.8841 26.9728 28.8196L43.3644 40.2771C44.6925 41.2394 43.2931 43.2465 41.9313 42.3255ZM66.7201 50.503L64.6705 49.0699C63.0433 47.8816 60.5667 48.319 59.4484 49.9951L52.2877 60.2393C51.1024 61.9348 51.5175 64.2774 53.2118 65.4614C54.3397 66.1775 55.9718 67.7168 57.4025 67.5694C58.5878 67.5696 59.7536 67.0117 60.4823 65.9692L67.6442 55.7251C68.8295 54.0296 68.4144 51.687 66.7201 50.503ZM37.6686 69.7153L38.4312 69.7278C38.4437 69.4653 38.4938 69.2028 38.5562 68.9528C38.1312 69.2653 37.6437 69.4903 37.1312 69.5778C37.2937 69.6653 37.4812 69.7153 37.6686 69.7153ZM34.8312 11.4278L34.8561 9.54027C37.3062 9.07777 39.2686 7.17776 39.7937 4.74031L67.5438 5.17778C67.9556 7.56266 69.9699 9.64059 72.3436 10.1278L71.9188 37.3653L74.3938 39.0903L74.8561 9.04031C74.8686 8.34031 74.3187 7.7778 73.6311 7.76528C71.5687 7.74026 69.9061 6.02777 69.9437 3.96531C69.9437 3.62778 69.8187 3.30277 69.5936 3.06527C69.3562 2.82777 69.0437 2.69028 68.7062 2.69028C68.7062 2.69028 38.7187 2.22778 38.6937 2.22778C38.0186 2.22778 37.4562 2.77778 37.4437 3.45276C37.4522 5.45562 35.6877 7.19032 33.6937 7.15271C33.3674 7.14226 33.0003 7.24792 32.7437 7.50275C32.1916 7.93686 32.4007 9.10256 32.3436 9.70276L34.8312 11.4278Z" fill="#459948"/>
<path d="M65.0811 33.4154C65.7562 33.4154 66.4061 33.5903 66.9812 33.9278L67.2438 16.4153C67.2811 14.4153 66.5312 12.5278 65.1312 11.0778C63.7437 9.64033 61.8687 8.8403 59.8686 8.80284L47.3686 8.61532C43.6815 8.52155 40.3503 11.3312 39.8561 14.9403L48.4187 20.9278L48.4938 16.1278C48.5554 14.4893 50.9973 14.5426 50.9938 16.1653L50.8937 22.6653L55.8436 26.1278L55.9938 16.2403C56.0579 14.5989 58.5022 14.653 58.4938 16.2903L58.3186 27.8528L61.4686 30.0529C62.7687 30.9653 63.3561 32.5903 62.9312 34.1278C63.5437 33.6529 64.2936 33.4154 65.0811 33.4154Z" fill="#459948"/>
</svg>
