<svg width="72" height="72" viewBox="0 0 72 72" fill="none" xmlns="http://www.w3.org/2000/svg">
    <path d="M15.4537 55.6247L4.04655 55.5953L1.18555 52.7011V44.3455L4.16952 41.3925L15.0889 41.124L18.4336 43.9763V52.936L15.4537 55.6247Z" fill="#556E79"/>
    <path d="M67.8707 38.3415L56.4635 38.3121L53.6025 35.4179V27.0623L56.5865 24.1093L67.5059 23.8408L70.8506 26.6931V35.6528L67.8707 38.3415Z" fill="#556E79"/>
    <ellipse cx="9.64563" cy="34.043" rx="4.26282" ry="4.36236" fill="#E9C5BB"/>
    <ellipse cx="62.1388" cy="16.753" rx="4.26282" ry="4.36236" fill="#C09E96"/>
    <path d="M19.396 58.9077L13.6293 59.1409L16.1491 62.7835L23.0775 67.1377L29.991 69.4105L38.2893 70.1496L47.1971 67.9759L55.0391 63.6961L61.7971 56.8406L65.6381 49.2299L69.2423 49.0841L63.2504 43.483L56.857 49.5849L60.8544 49.4233L57.1056 56.0228L51.8634 61.3393L43.6627 64.8277L35.8956 65.9478L28.6958 64.7613L21.8192 61.7482L19.396 58.9077Z" fill="#A5D4A6"/>
    <path d="M51.0277 4.84893L57.9465 11.0905L52.5196 12.0133L47.0928 7.66769L40.2722 5.92275L33.5829 4.84893L30.1726 5.92275L24.1391 7.66769L19.0237 10.7549L14.3019 15.4528L11.6786 20.285H15.4823L10.3669 25.2514L8.66182 26.3252L2.89062 20.285H6.9567L8.66182 16.3924L16.6464 6.56032L19.5156 4.43787L23.3357 2.51675L25.8443 1.6275L27.2543 1.14093L31.3572 0.30201L32.8615 0.134227L35.7307 0L39.7312 0.285231L43.8956 1.12415L48.0437 2.51675L51.0277 4.84893Z" fill="#A5D4A6"/>
    <path d="M37.596 71.0151C33.019 71.1942 28.4575 70.3684 24.2181 68.5934C19.9786 66.8183 16.1592 64.1351 13.0165 60.7239C12.9349 60.6331 12.8715 60.5267 12.83 60.4109C12.7886 60.295 12.7698 60.1719 12.7748 60.0486C12.7849 59.7996 12.8911 59.5649 13.0702 59.3962C13.2494 59.2274 13.4866 59.1384 13.7298 59.1487C13.9731 59.159 14.2023 59.2678 14.3672 59.4512C17.894 63.2789 22.3155 66.1234 27.2142 67.7163C32.1129 69.3092 37.3272 69.598 42.3651 68.5553C47.403 67.5126 52.0982 65.173 56.0076 61.7571C59.917 58.3413 62.9116 53.9619 64.7088 49.0323C64.7712 48.8601 64.8821 48.7106 65.0274 48.6027C65.1727 48.4948 65.3459 48.4334 65.5253 48.4261L67.3772 48.3513L63.1762 44.6878L59.0611 48.6875L61.0877 48.6056C61.2437 48.5997 61.3985 48.6349 61.5372 48.708C61.6759 48.781 61.794 48.8894 61.88 49.0227C61.966 49.1559 62.017 49.3096 62.0282 49.469C62.0394 49.6283 62.0103 49.7878 61.9439 49.9323C60.2014 53.9375 57.5839 57.4795 54.293 60.2855C51.0022 63.0915 47.1258 65.0865 42.9629 66.1167C38.7999 67.1469 34.4615 67.1848 30.2819 66.2275C26.1023 65.2702 22.1932 63.3433 18.8559 60.5952C18.761 60.5191 18.6817 60.4246 18.6225 60.3171C18.5634 60.2096 18.5255 60.0912 18.511 59.9687C18.4965 59.8462 18.5057 59.722 18.5382 59.6031C18.5706 59.4843 18.6256 59.3731 18.6999 59.276C18.7743 59.1789 18.8666 59.0977 18.9716 59.0372C19.0767 58.9766 19.1923 58.9378 19.312 58.923C19.4316 58.9082 19.553 58.9176 19.6691 58.9508C19.7852 58.984 19.8937 59.0403 19.9886 59.1164C23.0076 61.5773 26.5211 63.3238 30.2771 64.2307C34.0331 65.1377 37.9386 65.1825 41.7135 64.3622C45.4884 63.5418 49.0392 61.8764 52.1113 59.4856C55.1833 57.0947 57.7005 54.0376 59.4824 50.5334L56.6172 50.6493C56.4293 50.6598 56.2429 50.6103 56.0837 50.5078C55.9244 50.4053 55.8001 50.2547 55.728 50.0768C55.6558 49.8989 55.6394 49.7025 55.6809 49.5146C55.7224 49.3267 55.8198 49.1567 55.9597 49.0279L62.4363 42.7472C62.5976 42.5846 62.8123 42.4895 63.0385 42.4803C63.2646 42.4712 63.486 42.5487 63.6593 42.6978L70.2562 48.5931C70.3949 48.7156 70.4942 48.8782 70.5411 49.0595C70.5881 49.2408 70.5804 49.4324 70.5192 49.6091C70.4579 49.7859 70.3459 49.9396 70.1978 50.05C70.0497 50.1605 69.8725 50.2226 69.6894 50.2282L66.1952 50.3694C63.8981 56.2797 59.9713 61.3783 54.8933 65.0441C49.8154 68.7098 43.8055 70.7845 37.596 71.0151Z" fill="black"/>
    <path d="M9.65123 39.3777C8.62373 39.3776 7.61919 39.0665 6.76394 38.4835C5.90869 37.9005 5.24094 37.0717 4.84461 36.1012C4.44828 35.1307 4.34109 34.062 4.53652 33.0293C4.73196 31.9966 5.22128 31.0462 5.94298 30.2974C6.66467 29.5487 7.58651 29.0352 8.59256 28.8213C9.59861 28.6075 10.644 28.703 11.5972 29.0957C12.5504 29.4885 13.3688 30.161 13.9497 31.0287C14.5305 31.8963 14.8478 32.9205 14.8616 33.9722C14.8708 34.6787 14.7429 35.38 14.4852 36.0354C14.2275 36.6908 13.8452 37.2873 13.3604 37.7902C12.8757 38.2931 12.2982 38.6924 11.6614 38.965C11.0247 39.2375 10.3414 39.3778 9.65123 39.3777ZM9.65123 30.6072C8.95962 30.6072 8.28359 30.8172 7.70853 31.2105C7.13348 31.6039 6.68525 32.163 6.42058 32.8171C6.15592 33.4712 6.08669 34.191 6.22161 34.8854C6.35654 35.5798 6.68954 36.2177 7.17858 36.7183C7.66763 37.219 8.29073 37.5599 8.96905 37.698C9.64738 37.8362 10.3505 37.7653 10.9894 37.4943C11.6284 37.2234 12.1746 36.7645 12.5588 36.1759C12.943 35.5872 13.1481 34.895 13.1481 34.187C13.1481 33.2376 12.7797 32.3271 12.1239 31.6557C11.4681 30.9844 10.5787 30.6072 9.65123 30.6072Z" fill="black"/>
    <path d="M15.491 55.6301H13.9874C13.7463 55.6301 13.515 55.532 13.3445 55.3574C13.174 55.1829 13.0782 54.9462 13.0782 54.6993C13.0782 54.4525 13.174 54.2157 13.3445 54.0412C13.515 53.8666 13.7463 53.7686 13.9874 53.7686H15.561C16.1053 53.7593 16.6249 53.5339 17.0099 53.1398C17.3949 52.7456 17.6151 52.2138 17.6241 51.6565V46.5374C17.6231 45.4253 17.2241 44.3521 16.5023 43.5209C15.7806 42.6897 14.7864 42.1582 13.7076 42.0268C11.0411 41.852 8.3664 41.852 5.69988 42.0268C4.62116 42.1582 3.62688 42.6897 2.90516 43.5209C2.18345 44.3521 1.78432 45.4253 1.78337 46.5374V51.6207C1.79237 52.178 2.01265 52.7098 2.39763 53.104C2.78261 53.4981 3.30218 53.7235 3.84655 53.7327H5.42012C5.66125 53.7327 5.89247 53.8308 6.06297 54.0054C6.23348 54.1799 6.32928 54.4167 6.32928 54.6635C6.32928 54.9104 6.23348 55.1471 6.06297 55.3216C5.89247 55.4962 5.66125 55.5943 5.42012 55.5943H3.84655C2.82603 55.5756 1.8529 55.1499 1.13444 54.4077C0.415981 53.6655 0.0089526 52.6655 1.42749e-06 51.6207V46.5374C-0.00103786 44.9612 0.565449 43.4398 1.59118 42.2643C2.61691 41.0887 4.0299 40.3415 5.55997 40.1654C8.3544 39.9761 11.158 39.9761 13.9524 40.1654C15.4825 40.3415 16.8955 41.0887 17.9212 42.2643C18.947 43.4398 19.5134 44.9612 19.5124 46.5374V51.6207C19.5126 52.1564 19.4079 52.6866 19.2046 53.1802C19.0012 53.6738 18.7033 54.1206 18.3285 54.4944C17.9536 54.8681 17.5094 55.1612 17.022 55.3562C16.5347 55.5513 16.0141 55.6444 15.491 55.6301Z" fill="black"/>
    <path d="M62.139 22.0877C61.1085 22.0877 60.1012 21.7748 59.2443 21.1888C58.3875 20.6027 57.7197 19.7696 57.3253 18.795C56.931 17.8204 56.8278 16.7479 57.0288 15.7132C57.2299 14.6785 57.7261 13.7281 58.4548 12.9822C59.1835 12.2362 60.1118 11.7282 61.1225 11.5224C62.1332 11.3166 63.1808 11.4222 64.1329 11.826C65.0849 12.2297 65.8987 12.9133 66.4712 13.7904C67.0437 14.6676 67.3493 15.6989 67.3493 16.7538C67.3493 18.1684 66.8004 19.5251 65.8232 20.5254C64.8461 21.5257 63.5209 22.0877 62.139 22.0877ZM62.139 13.3172C61.4474 13.3172 60.7713 13.5272 60.1963 13.9205C59.6212 14.3139 59.173 14.8729 58.9083 15.5271C58.6437 16.1812 58.5744 16.901 58.7094 17.5954C58.8443 18.2898 59.1773 18.9276 59.6664 19.4283C60.1554 19.9289 60.7785 20.2699 61.4568 20.408C62.1351 20.5461 62.8382 20.4752 63.4772 20.2043C64.1161 19.9333 64.6623 19.4745 65.0465 18.8858C65.4308 18.2971 65.6359 17.605 65.6359 16.897C65.6359 15.9476 65.2674 15.0371 64.6117 14.3657C63.9559 13.6944 63.0664 13.3172 62.139 13.3172Z" fill="black"/>
    <path d="M67.9786 38.34H66.44C66.1989 38.34 65.9676 38.242 65.7971 38.0674C65.6266 37.8929 65.5308 37.6561 65.5308 37.4093C65.5308 37.1624 65.6266 36.9257 65.7971 36.7511C65.9676 36.5766 66.1989 36.4785 66.44 36.4785H68.0136C68.5392 36.4335 69.029 36.1875 69.3854 35.7895C69.7418 35.3915 69.9387 34.8706 69.9368 34.3306V29.2473C69.9359 28.1352 69.5368 27.0621 68.8151 26.2309C68.0934 25.3997 67.0991 24.8681 66.0204 24.7368C64.6927 24.6597 63.3617 24.6597 62.034 24.7368C60.6947 24.6571 59.3519 24.6571 58.0126 24.7368C56.9339 24.8681 55.9396 25.3997 55.2179 26.2309C54.4962 27.0621 54.0971 28.1352 54.0962 29.2473V34.3306C54.1052 34.8879 54.3254 35.4198 54.7104 35.8139C55.0954 36.208 55.6149 36.4335 56.1593 36.4427H57.7328C57.974 36.4427 58.2052 36.5408 58.3757 36.7153C58.5463 36.8899 58.6421 37.1266 58.6421 37.3735C58.6421 37.6203 58.5463 37.8571 58.3757 38.0316C58.2052 38.2062 57.974 38.3042 57.7328 38.3042H56.2992C55.2787 38.2856 54.3055 37.8599 53.5871 37.1177C52.8686 36.3755 52.4616 35.3755 52.4526 34.3306V29.2473C52.4516 27.6711 53.0181 26.1498 54.0438 24.9742C55.0695 23.7987 56.4825 23.0514 58.0126 22.8753C59.4219 22.7933 60.8345 22.7933 62.2438 22.8753C63.6414 22.7929 65.0424 22.7929 66.44 22.8753C67.9701 23.0514 69.383 23.7987 70.4088 24.9742C71.4345 26.1498 72.001 27.6711 71.9999 29.2473V34.3306C72.0001 34.8663 71.8955 35.3966 71.6921 35.8902C71.4888 36.3838 71.1909 36.8306 70.816 37.2044C70.4411 37.5781 69.9969 37.8711 69.5096 38.0662C69.0223 38.2613 68.5017 38.3544 67.9786 38.34Z" fill="black"/>
    <path d="M57.5931 11.1327C57.3547 11.1254 57.1286 11.0226 56.9636 10.8463C54.6889 8.52797 52.0686 6.59463 49.2008 5.11866C48.9828 5.00947 48.8161 4.81613 48.7374 4.58117C48.6588 4.3462 48.6744 4.08882 48.7811 3.86571C48.8877 3.6426 49.0766 3.472 49.3061 3.39144C49.5357 3.31088 49.7871 3.32697 50.005 3.43615C53.0392 4.99572 55.8127 7.03766 58.2225 9.486C58.3701 9.61087 58.4754 9.78022 58.5234 9.96994C58.5714 10.1596 58.5597 10.36 58.4899 10.5425C58.4202 10.725 58.2959 10.8803 58.1349 10.9863C57.9739 11.0923 57.7842 11.1435 57.5931 11.1327Z" fill="black"/>
    <path d="M18.044 7.4459C17.8433 7.45528 17.6453 7.39641 17.4808 7.27842C17.3163 7.16044 17.1945 6.99001 17.1346 6.79375C17.0747 6.59749 17.08 6.38645 17.1496 6.19358C17.2192 6.0007 17.3492 5.83686 17.5194 5.72761L19.5126 4.43889C19.7207 4.32511 19.9638 4.29857 20.1906 4.36487C20.4175 4.43117 20.6102 4.58512 20.7282 4.79421C20.8462 5.0033 20.8802 5.25116 20.823 5.48544C20.7659 5.71972 20.622 5.92208 20.4218 6.04978L18.5335 7.26693C18.3908 7.37409 18.2207 7.43629 18.044 7.4459Z" fill="black"/>
    <path d="M23.6387 4.33154C23.4285 4.33154 23.2248 4.257 23.0623 4.12059C22.8997 3.98417 22.7884 3.79433 22.7472 3.58334C22.7059 3.37235 22.7374 3.15326 22.8362 2.96334C22.9349 2.77342 23.095 2.6244 23.289 2.54165C24.5863 1.98673 25.918 1.52034 27.2754 1.14553C27.5119 1.07907 27.7645 1.11152 27.9776 1.23571C28.1907 1.35991 28.3469 1.56568 28.4119 1.80778C28.4768 2.04989 28.4451 2.30847 28.3238 2.52665C28.2025 2.74484 28.0015 2.90475 27.765 2.9712C26.4906 3.3279 25.2407 3.77038 24.0233 4.29574L23.6387 4.33154ZM43.6406 2.93543H43.3959C42.1203 2.58606 40.8237 2.32297 39.5144 2.14787C39.2732 2.11464 39.0549 1.98472 38.9073 1.78667C38.7598 1.58863 38.6951 1.33869 38.7276 1.09184C38.76 0.844988 38.8869 0.62144 39.0804 0.470388C39.2739 0.319337 39.518 0.253133 39.7591 0.286362C41.1507 0.467915 42.5291 0.742971 43.8854 1.10973C44.0992 1.17172 44.2835 1.31171 44.4033 1.50329C44.5232 1.69486 44.5703 1.92474 44.5359 2.14948C44.5014 2.37422 44.3878 2.57827 44.2164 2.72308C44.045 2.86788 43.8277 2.94343 43.6057 2.93543H43.6406ZM31.4716 2.14787C31.2305 2.14787 30.9992 2.04979 30.8287 1.87524C30.6582 1.7007 30.5624 1.46396 30.5624 1.21712C30.5624 0.970266 30.6582 0.733536 30.8287 0.558987C30.9992 0.384439 31.2452 0.317015 31.4716 0.286362C32.8628 0.0980177 34.2645 0.00237613 35.6678 0C35.9089 0 36.1402 0.0980488 36.3107 0.272597C36.4812 0.447146 36.577 0.683877 36.577 0.930726C36.577 1.17757 36.4812 1.41433 36.3107 1.58888C36.1402 1.76343 35.9089 1.86148 35.6678 1.86148C34.346 1.86946 33.0261 1.96513 31.7164 2.14787H31.4716Z" fill="black"/>
    <path d="M49.7328 5.14935H49.3132L47.285 4.2186C47.1748 4.17159 47.0748 4.10283 46.9905 4.01622C46.9063 3.92962 46.8395 3.82685 46.794 3.71383C46.7486 3.60081 46.7253 3.47975 46.7256 3.35752C46.7258 3.2353 46.7496 3.11432 46.7955 3.00149C46.8414 2.88867 46.9086 2.78619 46.9932 2.69994C47.0778 2.6137 47.1782 2.54536 47.2886 2.49882C47.399 2.45228 47.5173 2.42846 47.6367 2.42871C47.7561 2.42897 47.8742 2.45331 47.9844 2.50032L50.1175 3.50266C50.2548 3.6125 50.3584 3.76043 50.4159 3.92883C50.4734 4.09723 50.4825 4.27899 50.442 4.4525C50.4014 4.62601 50.3131 4.78394 50.1873 4.90748C50.0616 5.03103 49.9038 5.11499 49.7328 5.14935Z" fill="black"/>
    <path d="M9.19859 27.457C8.96513 27.4593 8.73979 27.3696 8.56918 27.2064L2.16995 21.1924C2.03605 21.0644 1.94306 20.8979 1.90316 20.7148C1.86327 20.5318 1.87834 20.3407 1.94638 20.1665C2.01443 19.9924 2.1323 19.8433 2.28451 19.7389C2.43672 19.6345 2.61615 19.5797 2.79936 19.5815H6.2962C8.70549 13.9841 12.593 9.18622 17.5211 5.7277C17.6198 5.65719 17.7311 5.60726 17.8487 5.58079C17.9663 5.55432 18.0879 5.55184 18.2064 5.57345C18.3249 5.59505 18.4381 5.64033 18.5395 5.70673C18.6409 5.77312 18.7286 5.85933 18.7975 5.9604C18.8664 6.06147 18.9151 6.17542 18.9409 6.29578C18.9668 6.41615 18.9693 6.54057 18.9482 6.6619C18.927 6.78323 18.8828 6.89911 18.818 7.00294C18.7531 7.10676 18.6689 7.1965 18.5702 7.26701C13.7687 10.6314 10.017 15.3422 7.76493 20.8344C7.69589 21.004 7.57935 21.1489 7.43 21.2509C7.28065 21.3528 7.10516 21.4072 6.92566 21.4072H5.14229L9.19859 25.2375L13.4647 21.4072H11.4366C11.2805 21.4068 11.1273 21.3653 10.9915 21.2867C10.8556 21.2081 10.7419 21.095 10.6611 20.9584C10.5803 20.8217 10.5352 20.6661 10.5302 20.5065C10.5252 20.3468 10.5603 20.1885 10.6323 20.0469C12.4874 16.2347 15.1498 12.8942 18.4254 10.2685C21.701 7.64287 25.5075 5.79818 29.5676 4.86883C33.6276 3.93949 37.839 3.94887 41.895 4.89631C45.9511 5.84375 49.7496 7.70539 53.0141 10.3456C53.2042 10.5023 53.3258 10.7298 53.352 10.9782C53.3782 11.2266 53.307 11.4755 53.154 11.6701C53.0009 11.8648 52.7787 11.9892 52.536 12.0161C52.2934 12.0429 52.0503 11.97 51.8602 11.8133C48.9002 9.43645 45.4743 7.74118 41.8161 6.84314C38.1579 5.9451 34.3535 5.86544 30.6624 6.6096C26.9714 7.35375 23.4807 8.90421 20.4283 11.1552C17.3759 13.4062 14.8337 16.3047 12.9752 19.6531H15.9125C16.1007 19.6502 16.285 19.7071 16.4402 19.816C16.5954 19.9249 16.7138 20.0804 16.779 20.2611C16.8442 20.4417 16.8531 20.6387 16.8043 20.8247C16.7556 21.0108 16.6518 21.1767 16.507 21.2998L9.79305 27.3138C9.61695 27.4303 9.40695 27.4809 9.19859 27.457Z" fill="black"/>
</svg>
