<svg width="65" height="72" viewBox="0 0 65 72" fill="none" xmlns="http://www.w3.org/2000/svg">
    <path d="M63.3183 32.9011C63.3183 16.0582 49.3162 2.42969 32.1042 2.42969C14.8922 2.42969 0.890137 16.0582 0.890137 32.9011C0.890137 49.744 14.8922 63.3725 32.1042 63.3725C49.3162 63.3725 63.3183 49.744 63.3183 32.9011Z" fill="#66BB6A" stroke="black" stroke-width="1.75"/>
    <mask id="mask0_2324_16938" style="mask-type:alpha" maskUnits="userSpaceOnUse" x="1" y="3" width="62" height="60">
        <path d="M62.4433 32.9011C62.4433 16.5618 48.8536 3.30469 32.1042 3.30469C15.3549 3.30469 1.76514 16.5618 1.76514 32.9011C1.76514 49.2404 15.3549 62.4975 32.1042 62.4975C48.8536 62.4975 62.4433 49.2404 62.4433 32.9011Z" fill="black"/>
    </mask>
    <g mask="url(#mask0_2324_16938)">
        <path d="M36.4125 35.0028C36.5382 35.2655 36.7895 35.4932 36.7895 35.4932C42.1572 36.1411 49.751 35.4231 55.5495 34.6525C52.2284 41.6051 46.3042 46.2634 40.8288 46.2634C30.632 46.2634 22.733 34.1797 22.733 34.1797C25.8926 31.4477 31.1167 22.5688 38.6566 22.5688C46.1964 22.5688 49.4637 26.5967 49.4637 26.5967L50.3075 25.3008C50.3075 25.3008 46.7889 13.2871 36.8254 13.2871C26.862 13.2871 16.2882 29.2061 10.0947 32.8838C10.0947 32.8838 18.604 52.5505 37.1845 52.5505C52.8028 52.5505 56.7164 37.9975 57.4524 34.3899C59.5349 34.0921 61.2583 33.7944 62.4072 33.6018C62.7842 32.7612 63.2151 31.3076 62.8919 29.3637C56.7164 31.6754 47.2915 34.3023 36.233 34.3023C36.233 34.3023 36.2689 34.6701 36.4125 35.0028Z" fill="white"/>
    </g>
    <path d="M40.3506 56.0622V69.6244H45.4758H59.0165H63.3825V56.0622L60.7882 52.6229L56.8652 51.1953H48.6395L42.8816 52.6229L40.3506 56.0622Z" fill="#A5D4A6"/>
    <path d="M0.631836 56.0622V69.6244H5.75706H19.2978H23.6637V56.0622L21.0695 52.6229L17.1465 51.1953H8.92078L3.16281 52.6229L0.631836 56.0622Z" fill="#A5D4A6"/>
    <path d="M20.5566 58.2957V71.401H25.6819H39.2226H43.5885V58.2957L40.9943 54.9723L37.0713 53.5928H28.8456L23.0876 54.9723L20.5566 58.2957Z" fill="#556E79"/>
    <ellipse cx="32.0408" cy="44.5947" rx="5.72633" ry="5.67482" fill="#C09E96"/>
    <ellipse cx="12.616" cy="42.1182" rx="5.72633" ry="5.67482" fill="#E9C5BB"/>
    <ellipse cx="51.7844" cy="42.6875" rx="5.72633" ry="5.67482" fill="#E9C5BB"/>
    <path d="M38.5899 61.1494L32.1043 67.9843L25.6187 61.1494L26.0299 58.1082L29.1937 56.666L32.1043 58.7353L35.0782 56.666L37.9255 57.6693L38.5899 61.1494Z" fill="#A5D4A6"/>
    <path d="M32.0155 51.1951C30.721 51.1951 29.4555 50.8145 28.3791 50.1015C27.3028 49.3886 26.4638 48.3752 25.9684 47.1895C25.4731 46.0039 25.3434 44.6992 25.596 43.4405C25.8485 42.1819 26.4719 41.0257 27.3873 40.1182C28.3026 39.2108 29.4689 38.5928 30.7386 38.3425C32.0082 38.0921 33.3243 38.2206 34.5203 38.7117C35.7162 39.2028 36.7385 40.0345 37.4577 41.1015C38.1769 42.1686 38.5608 43.4231 38.5608 44.7064C38.5608 46.4273 37.8712 48.0777 36.6437 49.2946C35.4162 50.5115 33.7514 51.1951 32.0155 51.1951ZM32.0155 39.957C31.068 39.957 30.1417 40.2355 29.3538 40.7574C28.566 41.2793 27.9519 42.021 27.5893 42.8889C27.2267 43.7567 27.1318 44.7117 27.3167 45.633C27.5015 46.5543 27.9578 47.4006 28.6278 48.0648C29.2979 48.729 30.1515 49.1813 31.0808 49.3646C32.0101 49.5478 32.9735 49.4538 33.8489 49.0943C34.7243 48.7348 35.4725 48.1261 35.9989 47.3451C36.5254 46.564 36.8064 45.6458 36.8064 44.7064C36.7975 43.4526 36.2888 42.2531 35.3913 41.3697C34.4938 40.4862 33.2803 39.9904 32.0155 39.9904V39.957Z" fill="black"/>
    <path d="M43.7563 71.9994H20.4094C20.1768 71.9994 19.9536 71.9078 19.7891 71.7447C19.6246 71.5817 19.5322 71.3605 19.5322 71.1298V60.6945C19.536 58.76 20.2561 56.8942 21.556 55.4514C22.8559 54.0086 24.645 53.0893 26.5835 52.868C30.257 52.6273 33.9424 52.6273 37.6159 52.868C39.5544 53.0893 41.3435 54.0086 42.6434 55.4514C43.9433 56.8942 44.6635 58.76 44.6672 60.6945V71.1298C44.6673 71.2469 44.6436 71.3628 44.5974 71.4705C44.5512 71.5783 44.4836 71.6757 44.3985 71.7569C44.3134 71.8381 44.2127 71.9014 44.1023 71.9431C43.992 71.9848 43.8743 72.0039 43.7563 71.9994ZM21.2866 70.2602H42.8791V60.6945C42.8808 59.1916 42.3247 57.7406 41.3168 56.618C40.3088 55.4954 38.9195 54.7796 37.4135 54.6072C33.8746 54.3814 30.3248 54.3814 26.7859 54.6072C25.2799 54.7796 23.8906 55.4954 22.8826 56.618C21.8747 57.7406 21.3186 59.1916 21.3204 60.6945V70.2602H21.2866Z" fill="black"/>
    <path d="M51.4153 48.8211C50.1208 48.8211 48.8554 48.4405 47.779 47.7275C46.7027 47.0146 45.8637 46.0012 45.3683 44.8155C44.873 43.6299 44.7433 42.3252 44.9959 41.0665C45.2484 39.8079 45.8718 38.6517 46.7871 37.7442C47.7025 36.8368 48.8688 36.2188 50.1384 35.9684C51.408 35.7181 52.724 35.8466 53.92 36.3377C55.116 36.8288 56.1382 37.6605 56.8574 38.7275C57.5766 39.7946 57.9605 41.0491 57.9605 42.3324C57.9605 44.0533 57.2709 45.7037 56.0434 46.9206C54.816 48.1375 53.1512 48.8211 51.4153 48.8211ZM51.4153 37.583C50.4664 37.5764 49.5368 37.8493 48.7445 38.3671C47.9522 38.8849 47.333 39.6243 46.9652 40.4916C46.5974 41.3588 46.4977 42.3148 46.6787 43.2383C46.8597 44.1618 47.3133 45.0112 47.982 45.6788C48.6506 46.3463 49.5042 46.802 50.4345 46.988C51.3647 47.174 52.3297 47.0819 53.207 46.7234C54.0844 46.365 54.8346 45.7563 55.3626 44.9745C55.8905 44.1928 56.1723 43.2732 56.1723 42.3324C56.1724 41.0786 55.6723 39.8756 54.7811 38.9858C53.89 38.0961 52.6801 37.5918 51.4153 37.583Z" fill="black"/>
    <path d="M12.6161 48.8211C11.3215 48.8211 10.0561 48.4405 8.97972 47.7275C7.90336 47.0146 7.06443 46.0012 6.56903 44.8155C6.07364 43.6299 5.94402 42.3252 6.19657 41.0665C6.44912 39.8079 7.07247 38.6517 7.98784 37.7442C8.90321 36.8368 10.0695 36.2188 11.3391 35.9684C12.6088 35.7181 13.9248 35.8466 15.1208 36.3377C16.3168 36.8288 17.339 37.6605 18.0582 38.7275C18.7774 39.7946 19.1613 41.0491 19.1613 42.3324C19.1613 44.0533 18.4717 45.7037 17.2442 46.9206C16.0167 48.1375 14.352 48.8211 12.6161 48.8211ZM12.6161 37.583C11.6671 37.5764 10.7375 37.8493 9.94524 38.3671C9.15296 38.8849 8.5337 39.6243 8.16591 40.4916C7.79812 41.3588 7.69839 42.3148 7.87942 43.2383C8.06045 44.1618 8.51406 45.0112 9.1827 45.6788C9.85135 46.3463 10.7049 46.802 11.6352 46.988C12.5654 47.174 13.5304 47.0819 14.4078 46.7234C15.2852 46.365 16.0354 45.7563 16.5633 44.9745C17.0913 44.1928 17.3731 43.2732 17.3731 42.3324C17.3732 41.0786 16.8731 39.8756 15.9819 38.9858C15.0907 38.0961 13.8808 37.5918 12.6161 37.583Z" fill="black"/>
    <path d="M43.7563 71.9994H20.4094C20.1768 71.9994 19.9536 71.9078 19.7891 71.7447C19.6246 71.5817 19.5322 71.3605 19.5322 71.1298V60.6945C19.536 58.76 20.2561 56.8942 21.556 55.4514C22.8559 54.0086 24.645 53.0893 26.5835 52.868C30.257 52.6273 33.9424 52.6273 37.6159 52.868C39.5544 53.0893 41.3435 54.0086 42.6434 55.4514C43.9433 56.8942 44.6635 58.76 44.6672 60.6945V71.1298C44.6673 71.2469 44.6436 71.3628 44.5974 71.4705C44.5512 71.5783 44.4836 71.6757 44.3985 71.7569C44.3134 71.8381 44.2127 71.9014 44.1023 71.9431C43.992 71.9848 43.8743 72.0039 43.7563 71.9994ZM21.2866 70.2602H42.8791V60.6945C42.8808 59.1916 42.3247 57.7406 41.3168 56.618C40.3088 55.4954 38.9195 54.7796 37.4135 54.6072C33.8746 54.3814 30.3248 54.3814 26.7859 54.6072C25.2799 54.7796 23.8906 55.4954 22.8826 56.618C21.8747 57.7406 21.3186 59.1916 21.3204 60.6945V70.2602H21.2866Z" fill="black"/>
    <path d="M45.8821 69.625H43.7566C43.5239 69.625 43.3008 69.5334 43.1363 69.3703C42.9718 69.2072 42.8794 68.986 42.8794 68.7554C42.8794 68.5247 42.9718 68.3035 43.1363 68.1404C43.3008 67.9774 43.5239 67.8857 43.7566 67.8857H45.9833C46.0985 67.8923 46.2112 67.9213 46.3151 67.9711C46.419 68.0209 46.5119 68.0905 46.5887 68.1759C46.6654 68.2613 46.7245 68.3609 46.7624 68.4689C46.8004 68.577 46.8165 68.6913 46.8098 68.8055C46.8032 68.9197 46.7739 69.0315 46.7237 69.1345C46.6735 69.2375 46.6033 69.3297 46.5171 69.4058C46.431 69.4818 46.3306 69.5404 46.2216 69.578C46.1126 69.6156 45.9973 69.6316 45.8821 69.625Z" fill="black"/>
    <path d="M51.8535 69.625H48.8508C48.6182 69.625 48.3951 69.5333 48.2306 69.3703C48.0661 69.2072 47.9736 68.986 47.9736 68.7554C47.9736 68.5247 48.0661 68.3035 48.2306 68.1404C48.3951 67.9774 48.6182 67.8857 48.8508 67.8857H51.8535C52.0861 67.8857 52.3093 67.9774 52.4738 68.1404C52.6383 68.3035 52.7307 68.5247 52.7307 68.7554C52.7307 68.986 52.6383 69.2072 52.4738 69.3703C52.3093 69.5333 52.0861 69.625 51.8535 69.625Z" fill="black"/>
    <path d="M57.0829 69.625H54.8562C54.6235 69.625 54.4004 69.5333 54.2359 69.3703C54.0714 69.2072 53.979 68.986 53.979 68.7554C53.979 68.5247 54.0714 68.3035 54.2359 68.1404C54.4004 67.9774 54.6235 67.8857 54.8562 67.8857H57.0829C57.3155 67.8857 57.5387 67.9774 57.7032 68.1404C57.8677 68.3035 57.9601 68.5247 57.9601 68.7554C57.9601 68.986 57.8677 69.2072 57.7032 69.3703C57.5387 69.5333 57.3155 69.625 57.0829 69.625Z" fill="black"/>
    <path d="M63.0886 69.6246H57.0832C56.8506 69.6246 56.6275 69.5329 56.463 69.3699C56.2985 69.2068 56.2061 68.9856 56.2061 68.755C56.2061 68.5243 56.2985 68.3031 56.463 68.14C56.6275 67.977 56.8506 67.8853 57.0832 67.8853H62.2114V58.2861C62.1714 56.8071 61.5922 55.3925 60.5812 54.3041C59.5702 53.2157 58.1957 52.5273 56.7121 52.3661C53.1733 52.1403 49.6235 52.1403 46.0846 52.3661C45.2345 52.4686 44.415 52.7444 43.6776 53.1761C42.9402 53.6078 42.3009 54.1861 41.7999 54.8746C42.6686 55.6162 43.3655 56.5351 43.843 57.5684C44.3205 58.6017 44.5673 59.725 44.5664 60.8615V68.9222C44.5664 69.1528 44.474 69.374 44.3095 69.5371C44.145 69.7002 43.9218 69.7918 43.6892 69.7918C43.4566 69.7918 43.2335 69.7002 43.069 69.5371C42.9045 69.374 43.069 68.9856 43.069 68.755V60.6789C43.0675 59.6828 42.8439 58.4485 42.3735 57.5684C41.9032 56.6883 41.1016 56.0163 40.2712 55.4557C40.0918 55.3332 39.8066 55.3371 39.7567 55.1269C39.7068 54.9167 39.7376 54.6956 39.8431 54.5067C40.4559 53.4104 41.3233 52.4746 42.3735 51.7766C43.4237 51.0787 44.6264 50.6387 45.8822 50.4931C47.7217 50.3312 49.5692 50.2754 51.4153 50.3258C53.2501 50.2749 55.0863 50.3308 56.9145 50.4931C58.8534 50.7061 60.646 51.6173 61.952 53.0539C63.258 54.4904 63.9866 56.3523 63.9996 58.2861V68.7215C64.0043 68.8414 63.984 68.9609 63.9399 69.0726C63.8958 69.1843 63.8288 69.2857 63.7433 69.3705C63.6577 69.4554 63.5554 69.5217 63.4428 69.5654C63.3301 69.6091 63.2095 69.6293 63.0886 69.6246Z" fill="black"/>
    <path d="M20.3084 69.6248C20.0758 69.6248 19.8526 69.5332 19.6881 69.3701C19.5236 69.207 19.4312 68.9858 19.4312 68.7552V60.6945C19.4304 59.558 19.6771 58.4346 20.1546 57.4014C20.6321 56.3681 21.329 55.4492 22.1977 54.7076C21.6967 54.0191 21.0574 53.4408 20.32 53.0091C19.5826 52.5774 18.7631 52.3016 17.913 52.1991C14.3741 51.9732 10.8243 51.9732 7.28548 52.1991C5.77949 52.3715 4.39013 53.0872 3.38218 54.2098C2.37424 55.3325 1.81818 56.7835 1.81991 58.2864V67.8521H6.94807C7.18072 67.8521 7.40386 67.9437 7.56836 68.1068C7.73287 68.2699 7.8253 68.4911 7.8253 68.7217C7.8253 68.9524 7.73287 69.1736 7.56836 69.3366C7.40386 69.4997 7.18072 69.5913 6.94807 69.5913H0.908964C0.676318 69.5913 0.453182 69.4997 0.288677 69.3366C0.124171 69.1736 0.0317383 68.9524 0.0317383 68.7217V58.2864C0.035463 56.3519 0.755653 54.4861 2.05553 53.0433C3.35542 51.6005 5.14451 50.6811 7.08306 50.4598C10.7565 50.2191 14.4419 50.2191 18.1154 50.4598C19.3712 50.6054 20.5739 51.0454 21.6241 51.7434C22.6743 52.4413 23.5417 53.3771 24.1546 54.4734C24.26 54.6624 24.2908 54.8834 24.2409 55.0936C24.191 55.3038 24.064 55.4881 23.8847 55.6106C23.0542 56.1712 22.3743 56.9242 21.904 57.8043C21.4336 58.6845 21.187 59.6651 21.1856 60.6611V68.7217C21.1901 68.8387 21.1708 68.9554 21.1288 69.0648C21.0867 69.1742 21.0228 69.274 20.9409 69.3584C20.859 69.4427 20.7607 69.5098 20.652 69.5555C20.5434 69.6013 20.4265 69.6249 20.3084 69.6248Z" fill="black"/>
    <path d="M9.14103 69.625H6.91429C6.68164 69.625 6.4585 69.5333 6.294 69.3703C6.12949 69.2072 6.03711 68.986 6.03711 68.7554C6.03711 68.5247 6.12949 68.3035 6.294 68.1404C6.4585 67.9774 6.68164 67.8857 6.91429 67.8857H9.14103C9.37367 67.8857 9.59676 67.9774 9.76127 68.1404C9.92577 68.3035 10.0182 68.5247 10.0182 68.7554C10.0182 68.986 9.92577 69.2072 9.76127 69.3703C9.59676 69.5333 9.37367 69.625 9.14103 69.625Z" fill="black"/>
    <path d="M15.1128 69.625H12.1101C11.8774 69.625 11.6544 69.5333 11.4898 69.3703C11.3253 69.2072 11.2329 68.986 11.2329 68.7554C11.2329 68.5247 11.3253 68.3035 11.4898 68.1404C11.6544 67.9774 11.8774 67.8857 12.1101 67.8857H15.1128C15.3454 67.8857 15.5685 67.9774 15.733 68.1404C15.8975 68.3035 15.99 68.5247 15.99 68.7554C15.99 68.986 15.8975 69.2072 15.733 69.3703C15.5685 69.5333 15.3454 69.625 15.1128 69.625Z" fill="black"/>
    <path d="M20.3084 69.625H18.1154C17.8828 69.625 17.6597 69.5334 17.4952 69.3703C17.3307 69.2072 17.2383 68.986 17.2383 68.7554C17.2383 68.5247 17.3307 68.3035 17.4952 68.1404C17.6597 67.9774 17.8828 67.8857 18.1154 67.8857H20.3421C20.5748 67.8902 20.7961 67.9861 20.9575 68.1523C21.1188 68.3185 21.2069 68.5414 21.2025 68.7721C21.198 69.0027 21.1013 69.2221 20.9336 69.3821C20.7659 69.542 20.5411 69.6294 20.3084 69.625Z" fill="black"/>
    <path d="M32.0156 68.6877C31.7904 68.6898 31.5729 68.606 31.4083 68.4536L25.8415 63.169C25.2385 62.5946 24.823 61.8542 24.6486 61.0434C24.4742 60.2326 24.5489 59.3886 24.8631 58.6203C25.1355 57.8847 25.6263 57.2482 26.2706 56.7945C26.915 56.3408 27.6828 56.0911 28.4731 56.0783C29.1365 56.0724 29.794 56.203 30.4038 56.4621C31.0136 56.7212 31.5624 57.1031 32.0156 57.5834C32.4469 57.1204 32.9679 56.7484 33.5477 56.4898C34.1274 56.2311 34.7538 56.0912 35.3894 56.0783C36.1901 56.0823 36.9707 56.3275 37.6275 56.7815C38.2843 57.2355 38.7863 57.8768 39.0668 58.6203C39.381 59.3886 39.4558 60.2326 39.2814 61.0434C39.107 61.8542 38.6915 62.5946 38.0885 63.169L32.6229 68.4201C32.4637 68.5848 32.2456 68.6809 32.0156 68.6877ZM28.5406 57.8175C28.093 57.8113 27.7557 57.9766 27.387 58.2283C27.0183 58.4799 26.7376 58.839 26.5838 59.2557C26.397 59.7017 26.3519 60.1936 26.4544 60.6657C26.5568 61.1378 26.8021 61.5676 27.1573 61.898L32.1168 66.614L37.0088 61.8646C37.3601 61.5316 37.6025 61.1018 37.7048 60.6307C37.807 60.1597 37.7644 59.6691 37.5824 59.2223C37.4325 58.8162 37.1621 58.4647 36.8068 58.214C36.4515 57.9632 36.0279 57.825 35.5918 57.8175C35.0348 57.8238 34.4905 57.9835 34.0198 58.2788C33.5491 58.5741 33.1706 58.9935 32.9265 59.4899C32.8471 59.629 32.7319 59.7448 32.5926 59.8253C32.4533 59.9058 32.2949 59.9483 32.1337 59.9483C31.9724 59.9483 31.8141 59.9058 31.6748 59.8253C31.5355 59.7448 31.4203 59.629 31.3409 59.4899C31.087 58.9727 30.6873 58.5396 30.1904 58.2428C29.6934 57.946 29.1204 57.7983 28.5406 57.8175Z" fill="black"/>
</svg>
