<svg width="70" height="71" viewBox="0 0 70 71" fill="none" xmlns="http://www.w3.org/2000/svg">
<rect x="34.125" y="27.9263" width="1.75" height="3.51562" rx="0.875" fill="#333333"/>
<rect x="34.125" y="22.0859" width="1.75" height="3.51562" rx="0.875" fill="#333333"/>
<rect x="34.125" y="33.165" width="1.75" height="3.51562" rx="0.875" fill="#333333"/>
<rect x="12.9968" y="24.8545" width="1.75" height="3.51562" rx="0.875" fill="#333333"/>
<rect x="12.9968" y="19.0308" width="1.75" height="3.51562" rx="0.875" fill="#333333"/>
<rect x="17.7914" y="14.5186" width="1.75" height="3.51562" rx="0.875" transform="rotate(60 17.7914 14.5186)" fill="#333333"/>
<rect x="22.8348" y="11.6069" width="1.75" height="3.51562" rx="0.875" transform="rotate(60 22.8348 11.6069)" fill="#333333"/>
<rect width="1.75" height="3.51562" rx="0.875" transform="matrix(-1 0 0 1 56.9266 24.8545)" fill="#333333"/>
<rect width="1.75" height="3.51562" rx="0.875" transform="matrix(-1 0 0 1 56.9266 19.0308)" fill="#333333"/>
<rect width="1.75" height="3.51562" rx="0.875" transform="matrix(-0.5 0.866025 0.866025 0.5 52.132 14.5186)" fill="#333333"/>
<rect width="1.75" height="3.51562" rx="0.875" transform="matrix(-0.5 0.866025 0.866025 0.5 47.0886 11.6069)" fill="#333333"/>
<circle cx="34.9901" cy="10.3427" r="9.96966" fill="#FFCC80"/>
<path d="M35.0179 15.8326C34.5565 15.834 34.1011 15.7272 33.6883 15.5207C33.2756 15.3143 32.917 15.0139 32.6412 14.6438C32.6046 14.5941 32.5781 14.5377 32.5632 14.4778C32.5483 14.4179 32.5454 14.3556 32.5546 14.2946C32.5638 14.2335 32.5849 14.1749 32.6168 14.122C32.6486 14.0691 32.6906 14.023 32.7402 13.9864C32.7899 13.9497 32.8463 13.9232 32.9062 13.9083C32.9661 13.8935 33.0283 13.8905 33.0894 13.8997C33.1504 13.9089 33.209 13.9301 33.2619 13.9619C33.3147 13.9938 33.3608 14.0358 33.3974 14.0854C33.6057 14.3619 33.881 14.5807 34.1973 14.7211C34.5136 14.8614 34.8605 14.9188 35.2052 14.8877C35.5498 14.8566 35.8808 14.7381 36.1669 14.5433C36.453 14.3486 36.6848 14.0841 36.8402 13.7748C36.9956 13.4655 37.0696 13.1217 37.0552 12.7758C37.0408 12.43 36.9385 12.0935 36.7579 11.7982C36.5772 11.5029 36.3243 11.2586 36.023 11.0884C35.7217 10.9181 35.382 10.8276 35.0359 10.8253C34.2827 10.7922 33.5694 10.4772 33.0373 9.9427C32.782 9.64704 32.5873 9.30394 32.4645 8.93302C32.3417 8.5621 32.2931 8.17061 32.3215 7.7809C32.3499 7.3912 32.4548 7.01091 32.6301 6.66175C32.8055 6.31259 33.0479 6.0014 33.3434 5.74594C33.639 5.49048 33.982 5.29577 34.3527 5.1729C34.7235 5.05004 35.1149 5.00143 35.5045 5.02986C35.894 5.05829 36.2742 5.16321 36.6232 5.33861C36.9722 5.51402 37.2833 5.75648 37.5387 6.05215C37.6127 6.15246 37.6439 6.27808 37.6253 6.40138C37.6067 6.52467 37.5399 6.63553 37.4397 6.70957C37.3394 6.78362 37.2138 6.81478 37.0905 6.7962C36.9673 6.77762 36.8565 6.71083 36.7825 6.61051C36.5742 6.33404 36.2989 6.11527 35.9826 5.97489C35.6663 5.83451 35.3194 5.77715 34.9748 5.80825C34.6301 5.83934 34.2991 5.95786 34.013 6.15259C33.7269 6.34732 33.4952 6.61183 33.3397 6.92111C33.1843 7.23039 33.1102 7.57423 33.1247 7.9201C33.1391 8.26597 33.2414 8.60245 33.422 8.89772C33.6027 9.19299 33.8556 9.4373 34.1569 9.60755C34.4582 9.77779 34.7979 9.86835 35.144 9.87066C35.9343 9.88738 36.6856 10.2175 37.2326 10.7883C37.7796 11.3592 38.0776 12.1241 38.0608 12.9147C38.0441 13.7053 37.7141 14.4568 37.1435 15.0041C36.5728 15.5513 35.8082 15.8493 35.0179 15.8326Z" fill="black"/>
<path d="M35.0179 18.5703C32.8919 18.54 30.8603 17.6877 29.3486 16.192C27.837 14.6963 26.9628 12.6733 26.9092 10.547C26.8557 8.42077 27.627 6.35631 29.0614 4.78636C30.4958 3.2164 32.4821 2.26282 34.6038 2.12549C34.7279 2.12549 34.847 2.17483 34.9348 2.26265C35.0226 2.35048 35.0719 2.46959 35.0719 2.59379C35.0719 2.718 35.0226 2.83711 34.9348 2.92494C34.847 3.01276 34.7279 3.06211 34.6038 3.06211C33.3254 3.15848 32.0959 3.59447 31.0422 4.32505C29.9885 5.05564 29.1489 6.05433 28.61 7.21801C28.0711 8.38169 27.8525 9.66818 27.9767 10.9446C28.101 12.2211 28.5636 13.4412 29.3167 14.4791C30.0699 15.5169 31.0863 16.3348 32.261 16.8484C33.4358 17.3619 34.7263 17.5525 35.9993 17.4003C37.2722 17.2482 38.4815 16.759 39.5023 15.9831C40.5231 15.2071 41.3183 14.1727 41.8059 12.9866C41.8513 12.8696 41.9413 12.7754 42.0561 12.7247C42.1709 12.674 42.3011 12.6711 42.4181 12.7164C42.5351 12.7618 42.6293 12.8518 42.6799 12.9667C42.7306 13.0815 42.7336 13.2118 42.6882 13.3289C42.0925 14.878 41.0397 16.2091 39.6696 17.1454C38.2995 18.0816 36.6771 18.5786 35.0179 18.5703Z" fill="black"/>
<path d="M35.6751 3.06873C35.2914 3.04098 34.9063 3.04098 34.5227 3.06873C34.4612 3.07113 34.3999 3.06141 34.3422 3.04012C34.2844 3.01882 34.2315 2.98636 34.1863 2.94461C34.1412 2.90286 34.1047 2.85263 34.079 2.79679C34.0533 2.74095 34.0389 2.6806 34.0366 2.61919C34.0342 2.55779 34.0439 2.49651 34.0652 2.43886C34.0865 2.38122 34.1191 2.32834 34.1609 2.28324C34.2027 2.23815 34.253 2.20174 34.3089 2.17607C34.3648 2.15041 34.4252 2.13601 34.4867 2.1337C34.9003 2.10387 35.3155 2.10387 35.7291 2.1337C35.7905 2.13724 35.8507 2.15284 35.9062 2.17961C35.9616 2.20637 36.0112 2.24378 36.0522 2.2897C36.0932 2.33562 36.1247 2.38915 36.1449 2.44722C36.1652 2.5053 36.1738 2.56679 36.1702 2.62819C36.1667 2.68958 36.151 2.74967 36.1242 2.80504C36.0974 2.86041 36.06 2.90995 36.014 2.95086C35.968 2.99177 35.9144 3.02323 35.8563 3.04346C35.7981 3.06368 35.7365 3.07227 35.6751 3.06873Z" fill="black"/>
<path d="M42.7241 9.90628C42.6088 9.90705 42.4972 9.86519 42.4109 9.78874C42.3245 9.71229 42.2693 9.60662 42.256 9.49201C42.1627 8.67826 41.9313 7.88639 41.5718 7.15046C41.5446 7.09487 41.5286 7.03448 41.5248 6.97271C41.5209 6.91095 41.5293 6.84903 41.5493 6.79049C41.5694 6.73195 41.6008 6.67794 41.6417 6.63154C41.6826 6.58513 41.7323 6.54725 41.7879 6.52005C41.8434 6.49285 41.9038 6.47686 41.9656 6.473C42.0273 6.46914 42.0892 6.47749 42.1477 6.49756C42.2062 6.51763 42.2602 6.54903 42.3066 6.58997C42.353 6.63092 42.3909 6.6806 42.4181 6.73619C42.8242 7.56854 43.086 8.46386 43.1923 9.38393C43.1998 9.4455 43.195 9.50795 43.1782 9.56765C43.1614 9.62735 43.1329 9.68312 43.0944 9.73171C43.0559 9.78031 43.0081 9.82077 42.9538 9.85073C42.8995 9.8807 42.8398 9.89958 42.7782 9.90628H42.7241ZM40.4555 5.33126C40.3327 5.32761 40.2163 5.27586 40.1314 5.18717C39.55 4.60843 38.8741 4.1333 38.1328 3.78224C38.0285 3.72501 37.9498 3.63018 37.9129 3.51703C37.8759 3.40388 37.8835 3.2809 37.9339 3.1731C37.9843 3.06529 38.0739 2.98074 38.1844 2.93665C38.295 2.89255 38.4181 2.8922 38.5289 2.93568C39.3693 3.33183 40.1364 3.86779 40.7976 4.52073C40.8678 4.58616 40.9163 4.67161 40.9364 4.76551C40.9565 4.85941 40.9472 4.95722 40.9099 5.04569C40.8726 5.13415 40.8089 5.209 40.7277 5.26008C40.6464 5.31116 40.5513 5.33601 40.4555 5.33126Z" fill="black"/>
<path d="M42.256 13.6528H42.076C42.0176 13.6309 41.9642 13.5976 41.9189 13.5547C41.8737 13.5119 41.8374 13.4605 41.8122 13.4034C41.7871 13.3464 41.7735 13.2849 41.7725 13.2226C41.7714 13.1602 41.7827 13.0983 41.8059 13.0404C41.9407 12.6949 42.0491 12.3397 42.13 11.9777C42.143 11.9174 42.1677 11.8603 42.2028 11.8095C42.2379 11.7588 42.2827 11.7154 42.3345 11.682C42.3863 11.6485 42.4442 11.6256 42.5049 11.6145C42.5656 11.6035 42.6279 11.6045 42.6882 11.6175C42.7485 11.6305 42.8056 11.6553 42.8563 11.6904C42.9071 11.7255 42.9504 11.7702 42.9838 11.8221C43.0173 11.8739 43.0402 11.9319 43.0512 11.9926C43.0623 12.0533 43.0613 12.1155 43.0483 12.1759C42.9584 12.5806 42.838 12.978 42.6882 13.3646C42.6526 13.45 42.5926 13.5229 42.5157 13.5742C42.4388 13.6255 42.3485 13.6528 42.256 13.6528Z" fill="black"/>
<path d="M35.018 20.7136C32.9696 20.7172 30.9661 20.1128 29.2612 18.9769C27.5563 17.8411 26.2265 16.2248 25.4401 14.3327C24.6538 12.4405 24.4462 10.3576 24.8436 8.34735C25.2411 6.33714 26.2257 4.49005 27.6729 3.03982C29.1201 1.58959 30.9648 0.601411 32.9735 0.200329C34.9823 -0.200752 37.0649 0.00329298 38.9578 0.786643C40.8506 1.56999 42.4686 2.89744 43.607 4.60099C44.7454 6.30455 45.3531 8.30765 45.3531 10.3568C45.3483 13.099 44.2585 15.7278 42.3218 17.6686C40.3852 19.6093 37.7592 20.7041 35.018 20.7136ZM35.018 0.900584C33.1591 0.900584 31.3419 1.45201 29.7963 2.48513C28.2507 3.51826 27.046 4.98668 26.3346 6.70471C25.6232 8.42273 25.4371 10.3132 25.7998 12.137C26.1624 13.9609 27.0576 15.6362 28.372 16.9511C29.6865 18.266 31.3612 19.1615 33.1844 19.5243C35.0075 19.8871 36.8974 19.7009 38.6148 18.9892C40.3322 18.2776 41.8 17.0725 42.8328 15.5263C43.8655 13.9802 44.4168 12.1623 44.4168 10.3028C44.4025 7.81686 43.4066 5.43738 41.646 3.68293C39.8855 1.92848 37.503 0.905297 35.018 0.900584Z" fill="black"/>
<rect x="34.7185" y="3.96045" width="0.938173" height="1.82346" rx="0.469087" fill="black"/>
<rect x="34.7185" y="14.9214" width="0.938173" height="1.82346" rx="0.469087" fill="black"/>
<circle cx="34.9358" cy="39.9808" r="6.03452" fill="#C09E96"/>
<circle cx="14.0123" cy="36.6805" r="6.03452" fill="#E9C5BB"/>
<circle cx="56.2349" cy="36.6805" r="6.03452" fill="#E9C5BB"/>
<path d="M22.2204 55.2803L21.7829 70.0303L28.5563 70.2959L42.2672 70.2568L48.0329 69.4053V57.0303L46.0329 52.2803L41.5954 50.0303L30.3454 49.7178L25.7204 50.9053L22.2204 55.2803Z" fill="#556E79"/>
<path d="M0.830109 51.9351L0.392609 66.6851L7.16605 66.9507L20.877 66.9116H22.125V60.6987L22.6875 54.4487L25.6875 51.0737L24.6426 48.9351L20.2051 46.6851L8.95511 46.3726L4.33011 47.5601L0.830109 51.9351Z" fill="#A5D4A6"/>
<path d="M47.144 47.5601L44.0625 51.0737L46.1875 53.0112L48.125 57.8862V63.0737V66.9507H49.9799L63.6908 66.9116L69.4565 66.0601L69.7282 59.6708L69.7907 56.9755V54.2177L69.3024 51.4403L67.4565 48.9351L63.019 46.6851L51.769 46.3726L47.144 47.5601Z" fill="#A5D4A6"/>
<path d="M34.9 47.115C33.4895 47.115 32.1107 46.6966 30.9379 45.9127C29.7651 45.1288 28.851 44.0146 28.3113 42.711C27.7715 41.4074 27.6303 39.9729 27.9054 38.589C28.1806 37.2051 28.8598 35.934 29.8572 34.9362C30.8546 33.9385 32.1253 33.259 33.5087 32.9838C34.8921 32.7085 36.326 32.8498 37.6291 33.3897C38.9323 33.9297 40.0461 34.8441 40.8297 36.0173C41.6133 37.1905 42.0316 38.5698 42.0316 39.9809C42.0316 41.873 41.2802 43.6875 39.9428 45.0255C38.6054 46.3634 36.7914 47.115 34.9 47.115ZM34.9 34.6136C33.8388 34.6136 32.8015 34.9283 31.9192 35.5181C31.0368 36.1079 30.3491 36.9461 29.943 37.9269C29.5369 38.9076 29.4307 39.9868 29.6377 41.028C29.8448 42.0691 30.3558 43.0255 31.1061 43.7761C31.8565 44.5267 32.8125 45.0379 33.8533 45.245C34.8941 45.4521 35.9728 45.3458 36.9532 44.9396C37.9336 44.5333 38.7716 43.8454 39.3612 42.9628C39.9507 42.0801 40.2654 41.0424 40.2654 39.9809C40.2654 38.5574 39.7001 37.1922 38.6939 36.1856C37.6877 35.179 36.323 34.6136 34.9 34.6136Z" fill="black"/>
<path d="M47.9164 70.2508H41.234C41.0036 70.2508 40.7827 70.1595 40.6197 69.9969C40.4568 69.8344 40.3653 69.6139 40.3653 69.3841C40.3653 69.1542 40.4568 68.9337 40.6197 68.7712C40.7827 68.6086 41.0036 68.5173 41.234 68.5173H47.0142V57.7494C47.0174 56.0466 46.3926 54.4022 45.2589 53.1296C44.1251 51.8569 42.5616 51.045 40.8665 50.8486C38.9 50.6799 36.9255 50.6243 34.9526 50.6819C32.9791 50.634 31.0044 50.7007 29.0387 50.8819C27.3436 51.0784 25.7801 51.8903 24.6463 53.1629C23.5126 54.4356 22.8877 56.08 22.8909 57.7827V68.5506H28.6712C28.9016 68.5506 29.1225 68.6419 29.2854 68.8045C29.4484 68.967 29.5399 69.1875 29.5399 69.4174C29.5399 69.6473 29.4484 69.8677 29.2854 70.0303C29.1225 70.1928 28.9016 70.2842 28.6712 70.2842H21.9888C21.7584 70.2842 21.5375 70.1928 21.3745 70.0303C21.2116 69.8677 21.1201 69.6473 21.1201 69.4174V57.7494C21.115 55.6144 21.8998 53.5526 23.324 51.9593C24.7483 50.3659 26.7118 49.3531 28.8382 49.115C30.8707 48.9289 32.9123 48.8621 34.9526 48.915C36.9817 48.8658 39.012 48.9326 41.0335 49.115C43.16 49.3531 45.1235 50.3659 46.5477 51.9593C47.972 53.5526 48.7568 55.6144 48.7517 57.7494V69.3841C48.7518 69.6083 48.6649 69.8238 48.5092 69.9855C48.3534 70.1471 48.1409 70.2422 47.9164 70.2508Z" fill="black"/>
<path d="M56.0282 43.8147C54.6177 43.8147 53.2389 43.3963 52.0661 42.6124C50.8933 41.8285 49.9792 40.7143 49.4394 39.4107C48.8997 38.1071 48.7584 36.6726 49.0336 35.2888C49.3088 33.9049 49.988 32.6337 50.9854 31.6359C51.9827 30.6382 53.2535 29.9587 54.6369 29.6835C56.0203 29.4082 57.4542 29.5495 58.7573 30.0895C60.0605 30.6294 61.1743 31.5438 61.9579 32.717C62.7415 33.8902 63.1598 35.2695 63.1598 36.6806C63.1598 38.5726 62.4084 40.3873 61.071 41.7252C59.7336 43.0631 57.9196 43.8147 56.0282 43.8147ZM56.0282 31.3133C54.967 31.3133 53.9297 31.6281 53.0473 32.2178C52.165 32.8076 51.4773 33.6458 51.0712 34.6266C50.6651 35.6073 50.5589 36.6865 50.7659 37.7277C50.9729 38.7688 51.4839 39.7252 52.2343 40.4758C52.9847 41.2264 53.9407 41.7376 54.9814 41.9447C56.0222 42.1518 57.101 42.0455 58.0814 41.6393C59.0618 41.233 59.8998 40.5451 60.4893 39.6625C61.0789 38.7798 61.3935 37.7421 61.3935 36.6806C61.3935 35.2571 60.8283 33.8919 59.8221 32.8853C58.8159 31.8787 57.4511 31.3133 56.0282 31.3133Z" fill="black"/>
<path d="M68.8918 66.9506H56.3948C56.165 66.9506 55.9447 66.8593 55.7822 66.6968C55.6197 66.5342 55.5284 66.3137 55.5284 66.0839C55.5284 65.854 55.6197 65.6335 55.7822 65.471C55.9447 65.3084 56.165 65.2171 56.3948 65.2171H67.992V61.8834C67.992 61.6535 68.0833 61.433 68.2458 61.2705C68.4083 61.1079 68.6287 61.0166 68.8585 61.0166C69.0883 61.0166 69.3087 61.1079 69.4711 61.2705C69.6336 61.433 69.7249 61.6535 69.7249 61.8834V66.1839C69.701 66.3904 69.6038 66.5814 69.4509 66.7222C69.2979 66.8629 69.0995 66.944 68.8918 66.9506Z" fill="black"/>
<path d="M68.4701 52.5356C68.2895 52.5398 68.1121 52.4875 67.9627 52.3859C67.8134 52.2842 67.6995 52.1385 67.637 51.9689C67.4075 51.3611 67.0934 50.7887 66.7039 50.2687C66.5669 50.083 66.5092 49.8505 66.5436 49.6223C66.578 49.3941 66.7016 49.1889 66.8872 49.0519C67.0728 48.9148 67.3052 48.8572 67.5333 48.8916C67.7614 48.9259 67.9665 49.0496 68.1035 49.2352C68.591 49.8878 68.9837 50.6062 69.2699 51.3688C69.3127 51.476 69.3338 51.5906 69.3318 51.706C69.3298 51.8213 69.3047 51.9351 69.2582 52.0407C69.2116 52.1463 69.1445 52.2415 69.0606 52.3208C68.9768 52.4 68.878 52.4617 68.77 52.5023L68.4701 52.5356Z" fill="black"/>
<path d="M68.8918 57.816C68.778 57.816 68.6654 57.7936 68.5603 57.7501C68.4551 57.7065 68.3596 57.6427 68.2792 57.5622C68.1987 57.4817 68.1349 57.3861 68.0913 57.281C68.0478 57.1758 68.0254 57.0631 68.0254 56.9493V54.3156C68.0209 54.199 68.04 54.0827 68.0815 53.9737C68.1231 53.8646 68.1862 53.7651 68.2671 53.6811C68.348 53.597 68.445 53.5302 68.5524 53.4845C68.6597 53.4389 68.7752 53.4154 68.8918 53.4155C69.1248 53.4154 69.3487 53.5056 69.5166 53.6673C69.6844 53.8289 69.783 54.0494 69.7916 54.2823V56.9493C69.7917 57.066 69.7682 57.1815 69.7226 57.2889C69.677 57.3962 69.6102 57.4933 69.5262 57.5743C69.4421 57.6552 69.3426 57.7183 69.2336 57.7599C69.1247 57.8014 69.0084 57.8205 68.8918 57.816Z" fill="black"/>
<path d="M68.8585 62.6657C68.7447 62.6657 68.632 62.6433 68.5269 62.5997C68.4218 62.5562 68.3263 62.4923 68.2458 62.4118C68.1653 62.3314 68.1015 62.2358 68.058 62.1306C68.0144 62.0255 67.992 61.9128 67.992 61.799V59.5987C67.992 59.3688 68.0833 59.1484 68.2458 58.9858C68.4083 58.8233 68.6287 58.7319 68.8585 58.7319C69.0883 58.7319 69.3087 58.8233 69.4712 58.9858C69.6337 59.1484 69.7249 59.3688 69.7249 59.5987V61.799C69.7249 62.0288 69.6337 62.2493 69.4712 62.4118C69.3087 62.5744 69.0883 62.6657 68.8585 62.6657Z" fill="black"/>
<path d="M47.8302 66.9506C47.6004 66.9506 47.38 66.8593 47.2175 66.6968C47.055 66.5342 47.2933 66.2137 47.2933 65.9839L47.2175 57.6496C47.2304 56.446 46.6159 55.0823 46.0316 54.0301C45.4473 52.978 44.9361 52.2175 43.9078 51.5926C44.3094 51.0915 43.9078 51.2477 43.2416 51.2477C43.1798 51.0374 43.1999 50.8115 43.2979 50.6154C43.9295 49.3324 44.8687 48.2257 46.0316 47.3939C47.1945 46.5621 48.5451 46.0311 49.963 45.8482C54.0131 45.5806 58.0765 45.5806 62.1267 45.8482C63.2945 45.9722 64.4251 46.3316 65.4503 46.9045C66.4755 47.4775 67.3741 48.2522 68.0919 49.1819C68.1598 49.2738 68.2089 49.3782 68.2364 49.4891C68.2639 49.6 68.2692 49.7153 68.2522 49.8283C68.2352 49.9413 68.1961 50.0498 68.1371 50.1477C68.0782 50.2455 68.0006 50.3309 67.9086 50.3987C67.8167 50.4666 67.7124 50.5157 67.6015 50.5432C67.4906 50.5707 67.3754 50.5761 67.2625 50.559C67.1495 50.542 67.0411 50.5029 66.9432 50.4439C66.8454 50.385 66.7601 50.3073 66.6923 50.2154C66.1247 49.4603 65.4095 48.8286 64.5903 48.3587C63.7711 47.8887 62.8649 47.5904 61.9268 47.4817C58.0096 47.2285 54.0801 47.2285 50.1629 47.4817C49.1441 47.5971 48.1637 47.9382 47.2933 48.4803C46.4228 49.0224 45.6841 49.7518 45.1308 50.6154C46.2493 51.4169 47.1617 52.4724 47.7932 53.6952C48.4246 54.918 48.7571 56.2732 48.7633 57.6496L48.7243 65.9839C48.7396 66.1116 48.6988 66.2207 48.6578 66.3426C48.6168 66.4646 48.6156 66.5964 48.5263 66.689C48.437 66.7816 48.3281 66.8531 48.2077 66.8983C48.0873 66.9436 47.9583 66.9615 47.8302 66.9506Z" fill="black"/>
<path d="M13.8718 43.7146C12.4613 43.7146 11.0825 43.2962 9.90972 42.5123C8.73693 41.7284 7.82285 40.6142 7.28307 39.3106C6.7433 38.007 6.60206 36.5725 6.87724 35.1887C7.15241 33.8048 7.83163 32.5336 8.829 31.5358C9.82637 30.5381 11.0971 29.8586 12.4805 29.5834C13.8639 29.3081 15.2978 29.4494 16.601 29.9893C17.9041 30.5293 19.0179 31.4437 19.8015 32.6169C20.5852 33.7901 21.0034 35.1695 21.0034 36.5805C21.0034 38.4726 20.252 40.2871 18.9146 41.6251C17.5772 42.963 15.7632 43.7146 13.8718 43.7146ZM13.8718 31.2132C12.8107 31.2132 11.7733 31.528 10.891 32.1177C10.0086 32.7075 9.32095 33.5457 8.91486 34.5265C8.50877 35.5072 8.40253 36.5864 8.60955 37.6276C8.81658 38.6687 9.32757 39.6251 10.0779 40.3757C10.8283 41.1263 11.7843 41.6375 12.8251 41.8446C13.8659 42.0517 14.9447 41.9454 15.9251 41.5392C16.9054 41.1329 17.7434 40.445 18.3329 39.5624C18.9225 38.6797 19.2372 37.642 19.2372 36.5805C19.2372 35.157 18.6719 33.7918 17.6657 32.7852C16.6595 31.7786 15.2948 31.2132 13.8718 31.2132Z" fill="black"/>
<path d="M22.0698 66.8508C21.84 66.8508 21.6196 66.7595 21.4571 66.597C21.2946 66.4344 21.2033 66.214 21.2033 65.9841V57.6498C21.2275 56.279 21.5753 54.9334 22.2181 53.7225C22.8609 52.5117 23.7807 51.47 24.9024 50.6823C24.3492 49.8187 23.6104 49.0893 22.74 48.5472C21.8695 48.0051 20.8891 47.664 19.8703 47.5486C15.9531 47.2949 12.0237 47.2949 8.1065 47.5486C6.41575 47.7451 4.85636 48.557 3.72553 49.8296C2.5947 51.1023 1.9715 52.7467 1.97468 54.4494V65.2173H13.5718C13.8016 65.2173 14.022 65.3086 14.1845 65.4712C14.347 65.6337 14.4383 65.8542 14.4383 66.0841C14.4383 66.314 14.347 66.5344 14.1845 66.697C14.022 66.8595 13.8016 66.9509 13.5718 66.9509H1.07489C0.845093 66.9509 0.624714 66.8595 0.462223 66.697C0.299731 66.5344 0.208429 66.314 0.208429 66.0841V54.3494C0.203321 52.2144 0.986089 50.1526 2.40666 48.5593C3.82722 46.966 5.78566 45.9532 7.90656 45.715C11.9567 45.4465 16.0201 45.4465 20.0702 45.715C21.489 45.8951 22.8409 46.425 24.0043 47.2571C25.1677 48.0892 26.1061 49.1975 26.7353 50.4823C26.8333 50.6783 26.8534 50.9043 26.7916 51.1146C26.7298 51.3249 26.5906 51.504 26.402 51.6157C25.3737 52.2406 24.2422 52.9782 23.6579 54.0303C23.0736 55.0825 22.7271 56.2956 22.74 57.4991L22.849 66.0069C22.8555 66.1356 22.8332 66.2642 22.7838 66.3832C22.7344 66.5023 22.8796 66.5526 22.7838 66.6388C22.688 66.725 22.5742 66.7888 22.4507 66.8255C22.3272 66.8622 22.197 66.8708 22.0698 66.8508Z" fill="black"/>
<path d="M41.5437 58.7769L35.1375 65.5894L28.7312 58.7769L29.1375 55.7456L32.2625 54.3081L35.1375 56.3706L38.075 54.3081L40.8875 55.3081L41.5437 58.7769Z" fill="#A5D4A6"/>
<path d="M35.05 66.291C34.8275 66.2931 34.6127 66.2095 34.4501 66.0576L28.9515 60.7903C28.3558 60.2178 27.9454 59.4798 27.7732 58.6717C27.6009 57.8635 27.6747 57.0223 27.985 56.2565C28.2541 55.5234 28.7388 54.8889 29.3753 54.4367C30.0118 53.9844 30.7702 53.7356 31.5508 53.7229C32.2061 53.7169 32.8555 53.8472 33.4578 54.1054C34.0602 54.3636 34.6023 54.7442 35.05 55.223C35.4759 54.7615 35.9906 54.3907 36.5633 54.133C37.1359 53.8752 37.7547 53.7357 38.3825 53.7229C39.1734 53.7268 39.9444 53.9712 40.5931 54.4237C41.2419 54.8763 41.7378 55.5154 42.0149 56.2565C42.3253 57.0223 42.3991 57.8635 42.2268 58.6717C42.0545 59.4798 41.6441 60.2178 41.0485 60.7903L35.6498 66.0243C35.4925 66.1884 35.2771 66.2842 35.05 66.291ZM31.6175 55.4564C31.1754 55.4502 30.8422 55.6149 30.478 55.8658C30.1138 56.1166 29.8366 56.4745 29.6846 56.8899C29.5002 57.3344 29.4556 57.8246 29.5568 58.2952C29.658 58.7657 29.9002 59.1942 30.2511 59.5235L35.1499 64.224L39.9821 59.4902C40.329 59.1583 40.5685 58.7299 40.6695 58.2604C40.7705 57.7909 40.7284 57.3018 40.5486 56.8565C40.4006 56.4518 40.1335 56.1014 39.7825 55.8515C39.4316 55.6016 39.0132 55.4638 38.5824 55.4564C38.0322 55.4626 37.4946 55.6218 37.0297 55.9161C36.5647 56.2105 36.1908 56.6285 35.9497 57.1232C35.8713 57.2619 35.7575 57.3773 35.6199 57.4576C35.4823 57.5378 35.3258 57.5801 35.1666 57.5801C35.0073 57.5801 34.8509 57.5378 34.7133 57.4576C34.5757 57.3773 34.4619 57.2619 34.3835 57.1232C34.1327 56.6078 33.7379 56.1761 33.2471 55.8802C32.7562 55.5844 32.1902 55.4372 31.6175 55.4564Z" fill="black"/>
</svg>
