<svg width="52" height="78" viewBox="0 0 52 78" fill="none" xmlns="http://www.w3.org/2000/svg">
<path fill-rule="evenodd" clip-rule="evenodd" d="M21.8748 4.13532H15.0998C14.6686 4.13532 14.3186 4.485 14.3186 4.91657V7.55172H1.59668C1.16543 7.55172 0.81543 7.90157 0.81543 8.33297V76.5C0.81543 76.9313 1.16543 77.2812 1.59668 77.2812H50.4029C50.8342 77.2812 51.1842 76.9313 51.1842 76.5V8.33297C51.1842 7.90157 50.8342 7.55172 50.4029 7.55172H37.6811V4.91657C37.6811 4.485 37.3311 4.13532 36.8998 4.13532H30.1248C29.7592 2.19125 28.0498 0.71875 25.9998 0.71875C23.9498 0.71875 22.2404 2.19125 21.8748 4.13532ZM37.6811 9.11422V10.9359C37.6811 11.3675 37.3311 11.7172 36.8998 11.7172H15.0998C14.6686 11.7172 14.3186 11.3675 14.3186 10.9359V9.11422H2.37793V75.7188H49.6217V9.11422H37.6811ZM45.3748 58.0416C45.3748 57.61 45.0248 57.2603 44.5936 57.2603H38.3436C37.9123 57.2603 37.5623 57.61 37.5623 58.0416V64.2916C37.5623 64.723 37.9123 65.0728 38.3436 65.0728H44.5936C45.0248 65.0728 45.3748 64.723 45.3748 64.2916V58.0416ZM43.8123 58.8228V63.5102L39.1248 63.5103V58.8228H43.8123ZM7.40606 61.9478H25.9998C26.4311 61.9478 26.7811 61.5977 26.7811 61.1666C26.7811 60.7353 26.4311 60.3853 25.9998 60.3853H7.40606C6.97481 60.3853 6.62481 60.7353 6.62481 61.1666C6.62481 61.5977 6.97481 61.9478 7.40606 61.9478ZM45.3748 45.5416C45.3748 45.11 45.0248 44.7603 44.5936 44.7603H38.3436C37.9123 44.7603 37.5623 45.11 37.5623 45.5416V51.7916C37.5623 52.223 37.9123 52.5728 38.3436 52.5728H44.5936C45.0248 52.5728 45.3748 52.223 45.3748 51.7916V45.5416ZM43.8123 46.3228V51.0102L39.1248 51.0103V46.3228H43.8123ZM7.40606 49.4478H25.9998C26.4311 49.4478 26.7811 49.0977 26.7811 48.6666C26.7811 48.2353 26.4311 47.8853 25.9998 47.8853H7.40606C6.97481 47.8853 6.62481 48.2353 6.62481 48.6666C6.62481 49.0977 6.97481 49.4478 7.40606 49.4478ZM45.3748 33.0416C45.3748 32.61 45.0248 32.2603 44.5936 32.2603H38.3436C37.9123 32.2603 37.5623 32.61 37.5623 33.0416V39.2916C37.5623 39.723 37.9123 40.0728 38.3436 40.0728H44.5936C45.0248 40.0728 45.3748 39.723 45.3748 39.2916V33.0416ZM43.8123 33.8228V38.5102L39.1248 38.5103V33.8228H43.8123ZM7.40606 36.9478H25.9998C26.4311 36.9478 26.7811 36.5977 26.7811 36.1666C26.7811 35.7353 26.4311 35.3853 25.9998 35.3853H7.40606C6.97481 35.3853 6.62481 35.7353 6.62481 36.1666C6.62481 36.5977 6.97481 36.9478 7.40606 36.9478ZM45.3748 20.5416C45.3748 20.11 45.0248 19.7603 44.5936 19.7603H38.3436C37.9123 19.7603 37.5623 20.11 37.5623 20.5416V26.7916C37.5623 27.223 37.9123 27.5728 38.3436 27.5728H44.5936C45.0248 27.5728 45.3748 27.223 45.3748 26.7916V20.5416ZM43.8123 21.3228V26.0102L39.1248 26.0103V21.3228H43.8123ZM7.40606 24.4478H25.9998C26.4311 24.4478 26.7811 24.0977 26.7811 23.6666C26.7811 23.2353 26.4311 22.8853 25.9998 22.8853H7.40606C6.97481 22.8853 6.62481 23.2353 6.62481 23.6666C6.62481 24.0977 6.97481 24.4478 7.40606 24.4478ZM15.8811 8.33312V5.69782H36.1186V10.1547H15.8811V8.33312ZM28.517 4.13532C28.1842 3.06172 27.1826 2.28125 25.9998 2.28125C24.817 2.28125 23.8154 3.06172 23.4826 4.13532H28.517Z" fill="#459948"/>
</svg>
