<svg width="13" height="14" viewBox="0 0 13 14" fill="none" xmlns="http://www.w3.org/2000/svg">
    <path d="M6.5 0.828125C3.02148 0.828125 0.203125 3.64648 0.203125 7.125C0.203125 10.6035 3.02148 13.4219 6.5 13.4219C9.97852 13.4219 12.7969 10.6035 12.7969 7.125C12.7969 3.64648 9.97852 0.828125 6.5 0.828125ZM6.5 12.2031C3.68164 12.2031 1.42188 9.94336 1.42188 7.125C1.42188 4.33203 3.68164 2.04688 6.5 2.04688C9.29297 2.04688 11.5781 4.33203 11.5781 7.125C11.5781 9.94336 9.29297 12.2031 6.5 12.2031ZM9.06445 5.55078C9.19141 5.44922 9.19141 5.24609 9.06445 5.11914L8.50586 4.56055C8.37891 4.43359 8.17578 4.43359 8.07422 4.56055L6.5 6.13477L4.90039 4.56055C4.79883 4.43359 4.5957 4.43359 4.46875 4.56055L3.91016 5.11914C3.7832 5.24609 3.7832 5.44922 3.91016 5.55078L5.48438 7.125L3.91016 8.72461C3.7832 8.82617 3.7832 9.0293 3.91016 9.15625L4.46875 9.71484C4.5957 9.8418 4.79883 9.8418 4.90039 9.71484L6.5 8.14062L8.07422 9.71484C8.17578 9.8418 8.37891 9.8418 8.50586 9.71484L9.06445 9.15625C9.19141 9.0293 9.19141 8.82617 9.06445 8.72461L7.49023 7.125L9.06445 5.55078Z" fill="#C7C7C7"/>
</svg>
