<svg width="23" height="19" viewBox="0 0 23 19" fill="none" xmlns="http://www.w3.org/2000/svg">
    <path d="M8.4375 16.2461C8.4375 16.457 8.50781 16.668 8.61328 16.8438L9.21094 17.7578C9.38672 18.0391 9.80859 18.25 10.1602 18.25H12.3047C12.6562 18.25 13.0781 18.0391 13.2539 17.7578L13.8516 16.8438C13.957 16.668 14.0273 16.457 14.0625 16.2461V14.875H8.4375V16.2461ZM11.2148 0.25C7.62891 0.285156 5.0625 3.16797 5.0625 6.4375V6.47266C5.0625 8.01953 5.625 9.42578 6.57422 10.5156C7.17188 11.1836 8.05078 12.5547 8.40234 13.75H14.0625C14.4141 12.5547 15.293 11.1836 15.8906 10.5156C16.8398 9.42578 17.4023 8.01953 17.4023 6.47266C17.4023 6.47266 17.4375 6.47266 17.4375 6.4375C17.4375 3.02734 14.625 0.25 11.2148 0.25ZM11.25 3.625C9.66797 3.66016 8.4375 4.89062 8.4375 6.4375C8.4375 6.75391 8.15625 7 7.875 7C7.55859 7 7.3125 6.75391 7.3125 6.4375C7.3125 4.29297 9.07031 2.53516 11.25 2.5C11.5312 2.5 11.8125 2.78125 11.8125 3.0625C11.8125 3.37891 11.5312 3.625 11.25 3.625ZM3.9375 7C3.9375 6.54297 3.55078 6.15625 3.09375 6.15625H0.84375C0.351562 6.15625 0 6.54297 0 7C0 7.49219 0.351562 7.84375 0.84375 7.84375H3.09375C3.55078 7.84375 3.9375 7.49219 3.9375 7ZM21.6562 6.15625H19.4062C18.9141 6.15625 18.5625 6.54297 18.5625 7C18.5625 7.49219 18.9141 7.84375 19.4062 7.84375H21.6562C22.1133 7.84375 22.5 7.49219 22.5 7C22.5 6.54297 22.1133 6.15625 21.6562 6.15625ZM4.60547 2.21875L2.63672 1.09375C2.53125 1.02344 2.35547 0.953125 2.21484 0.953125C1.75781 0.953125 1.37109 1.33984 1.37109 1.79688C1.37109 2.11328 1.54688 2.39453 1.79297 2.53516L3.76172 3.66016C3.86719 3.73047 4.00781 3.80078 4.18359 3.80078C4.64062 3.80078 5.02734 3.41406 5.02734 2.95703C5.02734 2.64062 4.85156 2.35938 4.60547 2.21875ZM20.6719 11.5L18.7031 10.375C18.5977 10.3047 18.457 10.2344 18.2812 10.2344C17.8242 10.2344 17.4375 10.6211 17.4375 11.0781C17.4375 11.3945 17.6133 11.6758 17.8594 11.8164L19.8281 12.9414C19.9336 13.0117 20.0742 13.0469 20.2148 13.0469C20.707 13.0469 21.0586 12.6953 21.0586 12.2031C21.0586 11.9219 20.918 11.6406 20.6719 11.5ZM3.76172 10.375L1.79297 11.5C1.54688 11.6406 1.37109 11.9219 1.37109 12.2383C1.37109 12.6953 1.75781 13.082 2.21484 13.082C2.35547 13.082 2.53125 13.0117 2.63672 12.9414L4.60547 11.8164C4.85156 11.6758 4.99219 11.3945 4.99219 11.1133C4.99219 10.6211 4.60547 10.2695 4.14844 10.2695C4.00781 10.2695 3.86719 10.3047 3.76172 10.375ZM18.2812 3.76562C18.457 3.76562 18.5977 3.73047 18.7031 3.66016L20.6719 2.53516C20.918 2.39453 21.0938 2.11328 21.0938 1.83203C21.0938 1.33984 20.707 0.988281 20.25 0.988281C20.0742 0.988281 19.9336 1.02344 19.8281 1.09375L17.8594 2.21875C17.6133 2.35938 17.4375 2.64062 17.4375 2.95703C17.4375 3.41406 17.8242 3.76562 18.2812 3.76562Z" fill="#FFD700"/>
</svg>
