<svg width="19" height="18" viewBox="0 0 19 18" fill="none" xmlns="http://www.w3.org/2000/svg">
    <path
        d="M6.60938 12H4.19531V5.39062C4.19531 5.20833 4.19792 4.98438 4.20312 4.71875C4.20833 4.44792 4.21615 4.17188 4.22656 3.89062C4.23698 3.60417 4.2474 3.34635 4.25781 3.11719C4.20052 3.1849 4.08333 3.30208 3.90625 3.46875C3.73438 3.63021 3.57292 3.77604 3.42188 3.90625L2.10938 4.96094L0.945312 3.50781L4.625 0.578125H6.60938V12ZM12.1953 7.53906L9.38281 3.26562H12.0859L13.7812 6.04688L15.4922 3.26562H18.1953L15.3516 7.53906L18.3281 12H15.6172L13.7812 9.00781L11.9375 12H9.23438L12.1953 7.53906Z"
        fill="white"/>
</svg>
