<svg width="23" height="17" viewBox="0 0 23 17" fill="none" xmlns="http://www.w3.org/2000/svg">
    <path fill-rule="evenodd" clip-rule="evenodd" d="M0.503448 8.77397L3.50252 8.69925C3.39243 4.28062 6.88216 0.612565 11.3008 0.502479C12.8703 0.463377 14.3413 0.886871 15.5903 1.63599L14.1672 3.1319C13.3262 2.70272 12.3603 2.4767 11.3506 2.50186C8.04163 2.5843 5.41946 5.34046 5.5019 8.64943L8.50097 8.57472L4.60183 12.6731L0.503448 8.77397ZM11.6495 14.4981C14.9584 14.4157 17.5806 11.6595 17.4982 8.35056L14.4991 8.42528L18.3982 4.3269L22.4966 8.22603L19.4976 8.30075C19.6076 12.7194 16.1179 16.3874 11.6993 16.4975C10.1298 16.5366 8.65877 16.1131 7.40972 15.364L8.83291 13.8681C9.67386 14.2973 10.6398 14.5233 11.6495 14.4981Z" fill="white"/>
</svg>
