<svg width="67" height="68" fill="none" xmlns="http://www.w3.org/2000/svg">
  <path d="M59.179 36.456H11.146a3.677 3.677 0 0 1 0-7.355h48.033a8.075 8.075 0 0 0 0 7.355Z" fill="#F7F7F7"/>
  <path d="M59.18 29.101H11.145h44.08a8.076 8.076 0 0 0 0 7.355h3.953a8.075 8.075 0 0 1 0-7.355Z" fill="#EFEFEF"/>
  <path d="M11.681 39.519c-1.81 0-3.51-.71-4.787-2a6.693 6.693 0 0 1-1.952-4.807c.036-3.68 3.092-6.674 6.814-6.674h47.959c1.098 0 1.991.893 1.991 1.992a1.994 1.994 0 0 1-1.991 1.991H11.68a2.76 2.76 0 0 0-2.756 2.758 2.76 2.76 0 0 0 2.756 2.757h48.034c1.098 0 1.991.893 1.991 1.991a1.994 1.994 0 0 1-1.991 1.992H11.68Z" fill="#D75A4B"/>
  <path d="M63.668 63.418H7.728a3.677 3.677 0 0 1 0-7.355h55.94a8.075 8.075 0 0 0 0 7.355Z" fill="#F7F7F7"/>
  <path d="M63.668 56.063h-3.953a8.075 8.075 0 0 0 0 7.355h3.953a8.075 8.075 0 0 1 0-7.355Z" fill="#EFEFEF"/>
  <path d="M7.728 66.48c-1.81 0-3.51-.71-4.787-1.999A6.693 6.693 0 0 1 .99 59.674C1.024 55.994 4.08 53 7.802 53h55.866c1.098 0 1.991.894 1.991 1.992a1.994 1.994 0 0 1-1.991 1.991H7.728a2.76 2.76 0 0 0-2.757 2.757 2.76 2.76 0 0 0 2.757 2.758h55.94c1.098 0 1.991.893 1.991 1.991a1.994 1.994 0 0 1-1.991 1.992H7.728Z" fill="#F49420"/>
  <path d="M2.98 42.582h55.94a3.677 3.677 0 0 1 0 7.355H2.98a8.076 8.076 0 0 0 0-7.355Z" fill="#F7F7F7"/>
  <path d="M2.98 53A1.994 1.994 0 0 1 .99 51.008c0-1.098.893-1.991 1.991-1.991h55.94a2.76 2.76 0 0 0 2.757-2.758 2.76 2.76 0 0 0-2.757-2.757H2.98A1.994 1.994 0 0 1 .99 41.51c0-1.098.893-1.991 1.991-1.991h55.94c1.81 0 3.51.71 4.787 2a6.694 6.694 0 0 1 1.952 4.807C65.624 50.006 62.567 53 58.846 53H2.98Z" fill="#69B86B"/>
  <path d="M63.707 41.518a6.691 6.691 0 0 0-4.787-2h-3.954c1.81 0 3.51.711 4.787 2a6.694 6.694 0 0 1 1.953 4.808C61.67 50.006 58.613 53 54.892 53h3.953c3.722 0 6.778-2.994 6.814-6.674a6.694 6.694 0 0 0-1.952-4.808Z" fill="#69B86B"/>
  <path d="M51.773 26.038H14.875l3.953-13.31H47.82l3.954 13.31Z" fill="#556E79"/>
  <path d="M29.917 1.427 3.692 8.316c-1.406.369-1.406 2.365 0 2.734l26.225 6.888c2.233.587 4.58.587 6.814 0l26.225-6.888c1.406-.37 1.406-2.365 0-2.734L36.731 1.427a13.413 13.413 0 0 0-6.814 0Z" fill="#556E79"/>
  <path d="M62.956 8.316 36.731 1.427a13.413 13.413 0 0 0-6.814 0l-3.985 1.047a13.415 13.415 0 0 1 5.528.271l26.225 6.888c1.406.37 1.406 2.366 0 2.735l5.271-1.318c1.406-.37 1.406-2.365 0-2.734Z" fill="#778B94"/>
  <path d="M45.114 31.757h-5.688s0-8.583 2.844-8.583 2.844 8.583 2.844 8.583Z" fill="#FFE66B"/>
  <path d="m16.545 56.983-4.7 2.466V43.502h4.7v13.48Z" fill="#3498AC"/>
  <path d="M35.181 10.157c-1.229.752-2.681.753-3.908 0v-2.81a1.954 1.954 0 0 1 3.908 0v2.81Z" fill="#FFE66B"/>
  <path d="M63.998 61.528a7.114 7.114 0 0 1 0-3.575c3.503-.48 3.516-5.419.02-5.92 1.593-1.403 2.608-3.437 2.63-5.698.028-3.01-1.76-5.835-4.495-7.098 1.42-2.02-.212-4.836-2.649-4.69a7.115 7.115 0 0 1 0-3.538c3.939.207 4.197-5.96.21-5.96H52.51l-2.82-9.493 13.517-3.55c2.33-.613 2.334-4.033 0-4.646L36.982.472a14.427 14.427 0 0 0-7.316 0l-9.752 2.561c-1.196.314-.748 2.24.502 1.912l9.752-2.562a12.45 12.45 0 0 1 6.312 0l26.225 6.889c.422.11.422.711 0 .822l-20.183 5.301-6.352-5.76V7.347c-.162-3.903-5.724-3.902-5.885 0v2.81c0 .343.179.662.471.842 1.339.821 2.908.938 4.328.32l5.157 4.675-3.76.988a12.452 12.452 0 0 1-6.313 0L3.943 10.094c-.422-.11-.422-.712 0-.822l11.472-3.014c1.196-.314.748-2.24-.502-1.911L3.44 7.36c-2.33.612-2.334 4.033 0 4.646l13.516 3.55-2.82 9.494h-2.381c-4.261 0-7.761 3.433-7.802 7.653a7.784 7.784 0 0 0 2.57 5.828H2.98c-3.757.128-4.028 5.41-.33 5.94a7.1 7.1 0 0 1 0 3.576c-3.503.48-3.516 5.419-.02 5.92C1.037 55.369.022 57.404 0 59.664a7.675 7.675 0 0 0 2.239 5.513 7.673 7.673 0 0 0 5.49 2.292h55.939c3.744-.123 4.038-5.405.33-5.941ZM34.193 9.549a2.615 2.615 0 0 1-1.931 0V7.348c.045-1.278 1.886-1.277 1.931 0V9.55ZM58.92 44.49c2.343.096 2.348 3.44 0 3.538H17.534V44.49H58.92ZM15.557 56.385l-2.724 1.43V44.49h2.724v11.895Zm-4.701-8.357H4.68a9.087 9.087 0 0 0 0-3.538h6.175v3.538Zm.477 12.267c.32.18.644.19.97.03l4.486-2.354h45.178a9.112 9.112 0 0 0 0 3.538H7.728A1.77 1.77 0 0 1 5.96 59.74a1.77 1.77 0 0 1 1.768-1.769h3.128v1.478c0 .346.18.667.477.846Zm46.145-25.748H11.68a1.77 1.77 0 0 1-1.768-1.768 1.77 1.77 0 0 1 1.768-1.77h26.772c-.025.704-.02 1.737.973 1.737h5.688c.996 0 .997-1.032.972-1.737h11.392a9.11 9.11 0 0 0 0 3.538ZM42.27 24.162c.87 0 1.7 3.09 1.836 6.607h-3.672c.136-3.516.965-6.607 1.836-6.607Zm18.448 3.868c0 .553-.45 1.003-1.003 1.003H45.956a24.638 24.638 0 0 0-.271-2.007h14.03c.553 0 1.003.45 1.003 1.004Zm-10.27-2.98h-5.257c-.47-1.384-1.117-2.27-1.933-2.65v-5.154l4.52-1.187 2.67 8.99ZM18.87 16.059l10.796 2.835c2.384.626 4.932.626 7.316 0l4.3-1.13V22.4c-.817.38-1.463 1.266-1.934 2.65H16.2l2.67-8.991ZM7.597 36.824a5.712 5.712 0 0 1-1.667-4.102c.03-3.14 2.644-5.696 5.826-5.696h27.099a24.67 24.67 0 0 0-.272 2.007H11.682a3.75 3.75 0 0 0-3.746 3.746 3.75 3.75 0 0 0 3.745 3.745h48.034c1.254 0 1.312 2.007 0 2.007H11.68a5.71 5.71 0 0 1-4.084-1.707Zm-5.62 4.687c0-.554.45-1.004 1.003-1.004h55.94c3.153 0 5.781 2.654 5.75 5.81-.03 3.14-2.643 5.694-5.825 5.694h-5.183c-1.237 0-1.294 1.977 0 1.977h10.006a1.004 1.004 0 0 1 0 2.007H17.533v-2.007h30.92c1.236 0 1.293-1.977 0-1.977h-30.92v-2.006H58.92a3.75 3.75 0 0 0 3.745-3.746 3.75 3.75 0 0 0-3.745-3.745H2.98c-.553 0-1.003-.45-1.003-1.003Zm1.003 10.5c-1.328-.047-1.327-1.96 0-2.006h7.876v2.006H2.98Zm60.688 13.482H7.728a5.71 5.71 0 0 1-4.085-1.707 5.712 5.712 0 0 1-1.666-4.102c.03-3.14 2.644-5.696 5.826-5.696h3.053v2.007H7.728c-4.97.206-4.966 7.287 0 7.491h55.94c1.328.047 1.327 1.96 0 2.007Z" fill="#000"/>
</svg>
