<svg xmlns="http://www.w3.org/2000/svg" width="51" height="65" viewBox="0 0 51 65">
  <g transform="translate(0 .5)">
    <polygon points="28.688 35.2 19.125 28 9.563 35.2 9.563 6.4 6.375 6.4 6.375 57.6 44.625 57.6 44.625 6.4 28.688 6.4" opacity=".3"/>
    <path d="M44.625,0 L6.375,0 C2.86875,0 0,2.88 0,6.4 L0,57.6 C0,61.12 2.86875,64 6.375,64 L44.625,64 C48.13125,64 51,61.12 51,57.6 L51,6.4 C51,2.88 48.13125,0 44.625,0 Z M15.9375,6.4 L22.3125,6.4 L22.3125,22.4 L19.125,20 L15.9375,22.4 L15.9375,6.4 Z M44.625,57.6 L6.375,57.6 L6.375,6.4 L9.5625,6.4 L9.5625,35.2 L19.125,28 L28.6875,35.2 L28.6875,6.4 L44.625,6.4 L44.625,57.6 Z"/>
  </g>
</svg>
