<svg width="12" height="12" viewBox="0 0 12 12" fill="none" xmlns="http://www.w3.org/2000/svg">
    <path d="M7.16675 0.749959C7.16675 0.427793 7.42792 0.166626 7.75008 0.166626H11.2501C11.5722 0.166626 11.8334 0.427793 11.8334 0.749959L11.8334 4.24996C11.8334 4.57212 11.5722 4.83329 11.2501 4.83329C10.9279 4.83329 10.6667 4.57213 10.6667 4.24996L10.6667 2.15825L6.99589 5.82911C6.76809 6.05691 6.39874 6.05691 6.17094 5.82911C5.94313 5.6013 5.94313 5.23195 6.17094 5.00415L9.84179 1.33329H7.75008C7.42792 1.33329 7.16675 1.07213 7.16675 0.749959Z" fill="#2271B1"/>
    <path d="M3.52599 1.33329L4.83342 1.33329C5.15558 1.33329 5.41675 1.59446 5.41675 1.91663C5.41675 2.23879 5.15558 2.49996 4.83342 2.49996H3.55008C3.05041 2.49996 2.71074 2.50041 2.44819 2.52187C2.19245 2.54276 2.06166 2.58063 1.97043 2.62712C1.7509 2.73897 1.57243 2.91745 1.46057 3.13697C1.41409 3.2282 1.37622 3.35899 1.35532 3.61473C1.33387 3.87728 1.33342 4.21696 1.33342 4.71663V8.44996C1.33342 8.94963 1.33387 9.2893 1.35532 9.55186C1.37622 9.8076 1.41409 9.93838 1.46057 10.0296C1.57243 10.2491 1.7509 10.4276 1.97043 10.5395C2.06166 10.586 2.19245 10.6238 2.44819 10.6447C2.71074 10.6662 3.05041 10.6666 3.55008 10.6666H7.28342C7.78309 10.6666 8.12276 10.6662 8.38531 10.6447C8.64105 10.6238 8.77184 10.586 8.86307 10.5395C9.08259 10.4276 9.26107 10.2491 9.37292 10.0296C9.41941 9.93838 9.45728 9.8076 9.47818 9.55186C9.49963 9.2893 9.50008 8.94963 9.50008 8.44996V7.16663C9.50008 6.84446 9.76125 6.58329 10.0834 6.58329C10.4056 6.58329 10.6667 6.84446 10.6667 7.16663V8.47407C10.6668 8.94363 10.6668 9.33117 10.641 9.64686C10.6142 9.97475 10.5567 10.2762 10.4124 10.5593C10.1887 10.9983 9.83177 11.3553 9.39273 11.579C9.10961 11.7232 8.8082 11.7807 8.48031 11.8075C8.16462 11.8333 7.77708 11.8333 7.30752 11.8333H3.52598C3.05642 11.8333 2.66888 11.8333 2.35318 11.8075C2.02529 11.7807 1.72388 11.7232 1.44077 11.579C1.00173 11.3553 0.644771 10.9983 0.421067 10.5593C0.276814 10.2762 0.219318 9.97475 0.192528 9.64686C0.166735 9.33116 0.166741 8.94362 0.166748 8.47406V4.69254C0.166741 4.22297 0.166735 3.83542 0.192528 3.51973C0.219318 3.19184 0.276814 2.89043 0.421067 2.60732C0.644771 2.16827 1.00173 1.81132 1.44077 1.58761C1.72388 1.44336 2.02529 1.38586 2.35318 1.35907C2.66888 1.33328 3.05642 1.33329 3.52599 1.33329Z" fill="#2271B1"/>
</svg>
