<svg width="25" height="24" viewBox="0 0 25 24" fill="none" xmlns="http://www.w3.org/2000/svg">
    <path d="M13.7211 9.86719C13.1797 9.86719 12.7601 10.2867 12.7601 10.8047C12.7601 11.3227 13.1797 11.7422 13.7211 11.7422C14.2156 11.7422 14.6351 11.3227 14.6351 10.8047C14.6351 10.2867 14.2156 9.86719 13.7211 9.86719ZM7.15857 9.86719C6.61716 9.86719 6.19763 10.2867 6.19763 10.8047C6.19763 11.3227 6.61716 11.7422 7.15857 11.7422C7.6531 11.7422 8.07263 11.3227 8.07263 10.8047C8.07263 10.2867 7.6531 9.86719 7.15857 9.86719Z" fill="#737373"/>
    <path d="M21.2445 8.08601C20.1172 6.53913 18.5422 5.50554 16.8148 5.03913V5.04148C16.414 4.59617 15.9617 4.18601 15.4554 3.82038C11.6187 1.03132 6.23278 1.8821 3.432 5.71882C1.17497 8.83601 1.27106 13.029 3.57262 16.0079L3.59137 19.1157C3.59137 19.1907 3.60309 19.2657 3.62653 19.336C3.75075 19.7321 4.17262 19.9501 4.56637 19.8259L7.53356 18.8907C8.31872 19.1696 9.12966 19.329 9.93591 19.3735L9.92419 19.3829C12.0125 20.904 14.75 21.361 17.2601 20.5313L20.239 21.5016C20.314 21.5251 20.3914 21.5391 20.4711 21.5391C20.8859 21.5391 21.2211 21.204 21.2211 20.7891V17.6485C23.2859 14.8454 23.3398 10.9712 21.2445 8.08601ZM7.86169 17.2266L7.58044 17.1094L5.26012 17.836L5.23669 15.3985L5.04919 15.1876C3.06637 12.7688 2.93512 9.28367 4.79137 6.72663C7.05075 3.6282 11.382 2.94382 14.4711 5.17976C17.5695 7.4321 18.2562 11.7563 16.0179 14.836C14.1406 17.4118 10.7797 18.3634 7.86169 17.2266ZM19.6976 16.8282L19.5101 17.0626L19.5336 19.5001L17.2367 18.7266L16.9554 18.8438C15.6429 19.3313 14.2437 19.3712 12.9476 19.0079L12.9429 19.0055C14.675 18.4735 16.2453 17.3954 17.3773 15.8438C19.1679 13.3759 19.4586 10.2751 18.4179 7.63132L18.432 7.6407C18.9711 8.02742 19.4656 8.51023 19.8851 9.09382C21.5867 11.4282 21.4906 14.6063 19.6976 16.8282Z" fill="#737373"/>
    <path d="M10.4398 9.86719C9.89841 9.86719 9.47888 10.2867 9.47888 10.8047C9.47888 11.3227 9.89841 11.7422 10.4398 11.7422C10.9344 11.7422 11.3539 11.3227 11.3539 10.8047C11.3539 10.2867 10.9344 9.86719 10.4398 9.86719Z" fill="#737373"/>
</svg>
