<svg xmlns="http://www.w3.org/2000/svg" width="65" height="65" viewBox="0 0 65 65">
  <g transform="translate(.5 .5)">
    <path d="M31.5,4.29833984 C17.41125,4.29833984 6,18.41125 6,32.5 C6,46.58875 17.41125,58 31.5,58 C45.58875,58 58.9282227,46.58875 58.9282227,32.5 C58.9282227,18.41125 45.58875,4.29833984 31.5,4.29833984 Z" opacity=".3"/>
    <circle cx="21" cy="24" r="5"/>
    <path d="M31.968,0 C14.304,0 0,14.336 0,32 C0,49.664 14.304,64 31.968,64 C49.664,64 64,49.664 64,32 C64,14.336 49.664,0 31.968,0 Z M32,57.6 C17.856,57.6 6.4,46.144 6.4,32 C6.4,17.856 17.856,6.4 32,6.4 C46.144,6.4 57.6,17.856 57.6,32 C57.6,46.144 46.144,57.6 32,57.6 Z"/>
    <circle cx="43" cy="24" r="5"/>
    <path d="M31.5,50 C39.0234834,50 45.4168297,45.4114286 48,39 L15,39 C17.5831703,45.4114286 23.9765166,50 31.5,50 Z"/>
  </g>
</svg>
