<svg width="20" height="20" viewBox="0 0 20 20" fill="none" xmlns="http://www.w3.org/2000/svg">
    <path fill-rule="evenodd" clip-rule="evenodd" d="M10.0002 4.16671C6.7785 4.16671 4.16683 6.77838 4.16683 10C4.16683 12.327 5.52937 14.3358 7.50016 15.272V16.6668C7.50016 18.0475 8.61945 19.1668 10.0002 19.1668C11.3809 19.1668 12.5002 18.0475 12.5002 16.6668V15.272C14.471 14.3358 15.8335 12.327 15.8335 10C15.8335 6.77838 13.2218 4.16671 10.0002 4.16671Z" fill="#F2CC0C"/>
    <path fill-rule="evenodd" clip-rule="evenodd" d="M10.0002 0.833374C10.4604 0.833374 10.8335 1.20647 10.8335 1.66671V2.50004C10.8335 2.96028 10.4604 3.33337 10.0002 3.33337C9.53992 3.33337 9.16683 2.96028 9.16683 2.50004V1.66671C9.16683 1.20647 9.53992 0.833374 10.0002 0.833374Z" fill="#F2CC0C"/>
    <path fill-rule="evenodd" clip-rule="evenodd" d="M0.833496 10C0.833496 9.5398 1.20659 9.16671 1.66683 9.16671H2.50016C2.9604 9.16671 3.3335 9.5398 3.3335 10C3.3335 10.4603 2.9604 10.8334 2.50016 10.8334H1.66683C1.20659 10.8334 0.833496 10.4603 0.833496 10Z" fill="#F2CC0C"/>
    <path fill-rule="evenodd" clip-rule="evenodd" d="M3.49416 3.49404C3.8196 3.1686 4.34723 3.1686 4.67267 3.49404L5.17275 3.99412C5.49819 4.31955 5.49819 4.84719 5.17275 5.17263C4.84731 5.49807 4.31968 5.49807 3.99424 5.17263L3.49416 4.67255C3.16872 4.34711 3.16872 3.81947 3.49416 3.49404Z" fill="#F2CC0C"/>
    <path fill-rule="evenodd" clip-rule="evenodd" d="M16.5064 3.49411C16.8318 3.81959 16.8317 4.34723 16.5062 4.67262L16.006 5.1727C15.6805 5.4981 15.1529 5.49803 14.8275 5.17256C14.5021 4.84708 14.5022 4.31944 14.8276 3.99404L15.3279 3.49396C15.6533 3.16857 16.181 3.16863 16.5064 3.49411Z" fill="#F2CC0C"/>
    <path fill-rule="evenodd" clip-rule="evenodd" d="M16.6668 10C16.6668 9.5398 17.0399 9.16671 17.5002 9.16671H18.3335C18.7937 9.16671 19.1668 9.5398 19.1668 10C19.1668 10.4603 18.7937 10.8334 18.3335 10.8334H17.5002C17.0399 10.8334 16.6668 10.4603 16.6668 10Z" fill="#F2CC0C"/>
</svg>
