<svg xmlns="http://www.w3.org/2000/svg" width="62" height="65" viewBox="0 0 62 65">
  <path d="M30.9761905,24.3809524 L37.0714286,24.3809524 L37.0714286,15.2380952 L46.2142857,15.2380952 L46.2142857,9.14285714 L37.0714286,9.14285714 L37.0714286,0 L30.9761905,0 L30.9761905,9.14285714 L21.8333333,9.14285714 L21.8333333,15.2380952 L30.9761905,15.2380952 L30.9761905,24.3809524 Z M18.7857143,51.8095238 C15.4333333,51.8095238 12.7209524,54.552381 12.7209524,57.9047619 C12.7209524,61.2571429 15.4333333,64 18.7857143,64 C22.1380952,64 24.8809524,61.2571429 24.8809524,57.9047619 C24.8809524,54.552381 22.1380952,51.8095238 18.7857143,51.8095238 Z M49.2619048,51.8095238 C45.9095238,51.8095238 43.1971429,54.552381 43.1971429,57.9047619 C43.1971429,61.2571429 45.9095238,64 49.2619048,64 C52.6142857,64 55.3571429,61.2571429 55.3571429,57.9047619 C55.3571429,54.552381 52.6142857,51.8095238 49.2619048,51.8095238 Z M22.1380952,36.5714286 L44.8428571,36.5714286 C47.1285714,36.5714286 49.14,35.3219048 50.1761905,33.432381 L61.94,12.0685714 L56.6066667,9.14285714 L44.8428571,30.4761905 L23.4485714,30.4761905 L10.4657143,3.04761905 L0.5,3.04761905 L0.5,9.14285714 L6.5952381,9.14285714 L17.5666667,32.2742857 L13.452381,39.7104762 C11.227619,43.7942857 14.1533333,48.7619048 18.7857143,48.7619048 L55.3571429,48.7619048 L55.3571429,42.6666667 L18.7857143,42.6666667 L22.1380952,36.5714286 Z" transform="translate(0 .5)"/>
</svg>
