<svg width="14" height="14" viewBox="0 0 14 14" fill="none" xmlns="http://www.w3.org/2000/svg">
    <path
        d="M8.16669 1.74984C8.16669 1.42767 8.42785 1.1665 8.75002 1.1665H12.25C12.5722 1.1665 12.8334 1.42767 12.8334 1.74984L12.8334 5.24984C12.8334 5.572 12.5722 5.83317 12.25 5.83317C11.9279 5.83317 11.6667 5.572 11.6667 5.24984L11.6667 3.15813L7.99583 6.82898C7.76803 7.05679 7.39868 7.05679 7.17088 6.82898C6.94307 6.60118 6.94307 6.23183 7.17088 6.00403L10.8417 2.33317H8.75002C8.42785 2.33317 8.16669 2.072 8.16669 1.74984Z"
        fill="white"/>
    <path
        d="M4.52593 2.33317L5.83335 2.33317C6.15552 2.33317 6.41669 2.59434 6.41669 2.9165C6.41669 3.23867 6.15552 3.49984 5.83335 3.49984H4.55002C4.05035 3.49984 3.71068 3.50029 3.44813 3.52174C3.19238 3.54264 3.0616 3.58051 2.97037 3.627C2.75084 3.73885 2.57237 3.91733 2.46051 4.13685C2.41403 4.22808 2.37615 4.35887 2.35526 4.61461C2.33381 4.87716 2.33335 5.21683 2.33335 5.71651V9.44984C2.33335 9.94951 2.33381 10.2892 2.35526 10.5517C2.37615 10.8075 2.41403 10.9383 2.46051 11.0295C2.57237 11.249 2.75084 11.4275 2.97037 11.5393C3.0616 11.5858 3.19238 11.6237 3.44813 11.6446C3.71068 11.6661 4.05035 11.6665 4.55002 11.6665H8.28335C8.78303 11.6665 9.1227 11.6661 9.38525 11.6446C9.64099 11.6237 9.77178 11.5858 9.86301 11.5393C10.0825 11.4275 10.261 11.249 10.3729 11.0295C10.4193 10.9383 10.4572 10.8075 10.4781 10.5517C10.4996 10.2892 10.5 9.94951 10.5 9.44984V8.1665C10.5 7.84434 10.7612 7.58317 11.0834 7.58317C11.4055 7.58317 11.6667 7.84434 11.6667 8.1665V9.47394C11.6667 9.9435 11.6667 10.331 11.6409 10.6467C11.6141 10.9746 11.5566 11.276 11.4124 11.5591C11.1887 11.9982 10.8317 12.3551 10.3927 12.5789C10.1096 12.7231 9.80814 12.7806 9.48025 12.8074C9.16456 12.8332 8.77702 12.8332 8.30746 12.8332H4.52592C4.05636 12.8332 3.66882 12.8332 3.35312 12.8074C3.02523 12.7806 2.72382 12.7231 2.44071 12.5789C2.00167 12.3551 1.64471 11.9982 1.42101 11.5591C1.27675 11.276 1.21926 10.9746 1.19247 10.6467C1.16667 10.331 1.16668 9.9435 1.16669 9.47394V5.69241C1.16668 5.22285 1.16667 4.8353 1.19247 4.51961C1.21926 4.19172 1.27675 3.89031 1.42101 3.60719C1.64471 3.16815 2.00167 2.81119 2.44071 2.58749C2.72382 2.44324 3.02523 2.38574 3.35312 2.35895C3.66882 2.33316 4.05636 2.33316 4.52593 2.33317Z"
        fill="white"/>
</svg>
