<svg width="12" height="12" viewBox="0 0 12 12" fill="none"
     xmlns="http://www.w3.org/2000/svg">
    <path fill-rule="evenodd" clip-rule="evenodd"
          d="M6 .5a4 4 0 0 0-2.55 7.082l-.446 3.352a.5.5 0 0 0 .753.495L6 10.083l2.243 1.346a.5.5 0 0 0 .753-.495L8.55 7.581A4 4 0 0 0 6 .5zM4.382 8.16c.495.218 1.042.34 1.618.34.576 0 1.124-.122 1.619-.341l.249 1.879-1.405-.843-.014-.01a.958.958 0 0 0-.288-.126.75.75 0 0 0-.322 0 .958.958 0 0 0-.288.127l-.014.009-1.405.843.25-1.879z"
          fill="currentColor" />
</svg>
