<svg width="111" height="29" viewBox="0 0 111 29" fill="none" xmlns="http://www.w3.org/2000/svg">
    <rect x="0.5" y="0.5" width="110" height="28" rx="2.5" fill="white" stroke="#CBCBCB"/>
    <path d="M0 3C0 1.34315 1.34315 0 3 0H35V29H3C1.34315 29 0 27.6569 0 26V3Z" fill="#556E79"/>
    <path d="M14.6094 20H12.1953V13.3906C12.1953 13.2083 12.1979 12.9844 12.2031 12.7188C12.2083 12.4479 12.2161 12.1719 12.2266 11.8906C12.237 11.6042 12.2474 11.3464 12.2578 11.1172C12.2005 11.1849 12.0833 11.3021 11.9062 11.4688C11.7344 11.6302 11.5729 11.776 11.4219 11.9062L10.1094 12.9609L8.94531 11.5078L12.625 8.57812H14.6094V20ZM20.1953 15.5391L17.3828 11.2656H20.0859L21.7812 14.0469L23.4922 11.2656H26.1953L23.3516 15.5391L26.3281 20H23.6172L21.7812 17.0078L19.9375 20H17.2344L20.1953 15.5391Z" fill="white"/>
    <path d="M53.4355 14.7051C53.4355 15.3652 53.3516 15.9668 53.1836 16.5098C53.0156 17.0488 52.7656 17.5137 52.4336 17.9043C52.1055 18.291 51.6973 18.5898 51.209 18.8008C50.7207 19.0117 50.1543 19.1172 49.5098 19.1172C48.8457 19.1172 48.2656 19.0117 47.7695 18.8008C47.2773 18.5898 46.8672 18.2891 46.5391 17.8984C46.2148 17.5078 45.9707 17.041 45.8066 16.498C45.6465 15.9551 45.5664 15.3535 45.5664 14.6934C45.5664 13.8184 45.7109 13.0508 46 12.3906C46.2891 11.7305 46.7266 11.2168 47.3125 10.8496C47.9023 10.4824 48.6406 10.2988 49.5273 10.2988C50.375 10.2988 51.0879 10.4805 51.666 10.8438C52.248 11.207 52.6875 11.7188 52.9844 12.3789C53.2852 13.0352 53.4355 13.8105 53.4355 14.7051ZM46.6152 14.7051C46.6152 15.4316 46.7188 16.0605 46.9258 16.5918C47.1328 17.123 47.4492 17.5332 47.875 17.8223C48.3047 18.1113 48.8496 18.2559 49.5098 18.2559C50.1738 18.2559 50.7168 18.1113 51.1387 17.8223C51.5645 17.5332 51.8789 17.123 52.082 16.5918C52.2852 16.0605 52.3867 15.4316 52.3867 14.7051C52.3867 13.5996 52.1543 12.7363 51.6895 12.1152C51.2285 11.4902 50.5078 11.1777 49.5273 11.1777C48.8633 11.1777 48.3164 11.3203 47.8867 11.6055C47.457 11.8906 47.1367 12.2969 46.9258 12.8242C46.7188 13.3477 46.6152 13.9746 46.6152 14.7051ZM62.043 19H60.8945L56.2246 11.8047H56.1777C56.1895 11.9961 56.2031 12.2148 56.2188 12.4609C56.2344 12.7031 56.2461 12.9629 56.2539 13.2402C56.2656 13.5137 56.2715 13.793 56.2715 14.0781V19H55.3457V10.4336H56.4883L61.1406 17.6055H61.1816C61.1738 17.4688 61.1641 17.2754 61.1523 17.0254C61.1406 16.7715 61.1289 16.5 61.1172 16.2109C61.1094 15.918 61.1055 15.6465 61.1055 15.3965V10.4336H62.043V19ZM69.1504 19H64.3809V10.4336H69.1504V11.3125H65.377V14.084H68.9336V14.9512H65.377V18.1211H69.1504V19ZM70.3574 16.2109V15.3438H73.2637V16.2109H70.3574ZM77.5469 19H76.5449V11.3125H73.8496V10.4336H80.2305V11.3125H77.5469V19ZM81.5254 19V10.4336H82.5215V19H81.5254ZM88.6445 19L85.7676 11.418H85.7207C85.7363 11.5781 85.75 11.7734 85.7617 12.0039C85.7734 12.2344 85.7832 12.4863 85.791 12.7598C85.7988 13.0293 85.8027 13.3047 85.8027 13.5859V19H84.877V10.4336H86.3535L89.0664 17.5586H89.1074L91.8613 10.4336H93.3262V19H92.3418V13.5156C92.3418 13.2617 92.3457 13.0078 92.3535 12.7539C92.3613 12.4961 92.3711 12.2539 92.3828 12.0273C92.3945 11.7969 92.4062 11.5977 92.418 11.4297H92.3711L89.459 19H88.6445ZM100.439 19H95.6699V10.4336H100.439V11.3125H96.666V14.084H100.223V14.9512H96.666V18.1211H100.439V19Z" fill="#555555"/>
</svg>
