<svg width="120" height="30" viewBox="0 0 120 30" fill="none" xmlns="http://www.w3.org/2000/svg">
    <rect width="120" height="30" rx="3" fill="#F4C520"/>
    <path
        d="M25.6274 20L24.7197 17.4229H21.1714L20.2637 20H18.6577L22.1108 10.6816H23.7993L27.2461 20H25.6274ZM24.3262 16.1152L23.4438 13.5762C23.41 13.4661 23.3613 13.3117 23.2979 13.1128C23.2344 12.9097 23.1709 12.7044 23.1074 12.4971C23.0439 12.2855 22.991 12.1077 22.9487 11.9639C22.9064 12.1374 22.8535 12.332 22.79 12.5479C22.7308 12.7594 22.6715 12.9583 22.6123 13.1445C22.5573 13.3307 22.515 13.4746 22.4854 13.5762L21.5967 16.1152H24.3262ZM28.4712 10.7197H31.2324C32.43 10.7197 33.3335 10.8932 33.9429 11.2402C34.5522 11.5872 34.8569 12.186 34.8569 13.0366C34.8569 13.3921 34.7935 13.7137 34.6665 14.0015C34.5438 14.285 34.3639 14.5199 34.127 14.7061C33.89 14.888 33.598 15.0107 33.251 15.0742V15.1377C33.6107 15.2012 33.9302 15.3133 34.2095 15.4741C34.493 15.6349 34.7152 15.8656 34.876 16.166C35.041 16.4665 35.1235 16.8558 35.1235 17.334C35.1235 17.901 34.9881 18.3835 34.7173 18.7812C34.4507 19.179 34.0677 19.4816 33.5684 19.689C33.0732 19.8963 32.485 20 31.8037 20H28.4712V10.7197ZM29.9946 14.5474H31.4546C32.1444 14.5474 32.6226 14.4352 32.8892 14.2109C33.1558 13.9867 33.2891 13.6587 33.2891 13.2271C33.2891 12.7869 33.1304 12.4696 32.813 12.2749C32.4998 12.0802 32.0005 11.9829 31.3149 11.9829H29.9946V14.5474ZM29.9946 15.7788V18.7241H31.6006C32.3115 18.7241 32.8109 18.5866 33.0986 18.3115C33.3864 18.0365 33.5303 17.6641 33.5303 17.1943C33.5303 16.9066 33.4647 16.6569 33.3335 16.4453C33.2065 16.2337 32.9971 16.0708 32.7051 15.9565C32.4131 15.8381 32.0195 15.7788 31.5244 15.7788H29.9946ZM42.7915 20L41.8838 17.4229H38.3354L37.4277 20H35.8218L39.2749 10.6816H40.9634L44.4102 20H42.7915ZM41.4902 16.1152L40.6079 13.5762C40.5741 13.4661 40.5254 13.3117 40.4619 13.1128C40.3984 12.9097 40.335 12.7044 40.2715 12.4971C40.208 12.2855 40.1551 12.1077 40.1128 11.9639C40.0705 12.1374 40.0176 12.332 39.9541 12.5479C39.8949 12.7594 39.8356 12.9583 39.7764 13.1445C39.7214 13.3307 39.679 13.4746 39.6494 13.5762L38.7607 16.1152H41.4902ZM53.3794 20H51.5068L46.9619 12.5923H46.9048C46.9217 12.842 46.9365 13.1064 46.9492 13.3857C46.9661 13.665 46.9788 13.9528 46.9873 14.249C47 14.5452 47.0106 14.8457 47.019 15.1504V20H45.6353V10.7197H47.4951L52.0337 18.0767H52.0781C52.0697 17.8608 52.0591 17.6133 52.0464 17.334C52.0337 17.0547 52.021 16.7669 52.0083 16.4707C51.9998 16.1702 51.9935 15.8804 51.9893 15.6011V10.7197H53.3794V20ZM63.3516 15.271C63.3516 16.3162 63.1569 17.1901 62.7676 17.8926C62.3783 18.5908 61.8133 19.1177 61.0728 19.4731C60.3322 19.8244 59.4393 20 58.394 20H55.8169V10.7197H58.6733C59.634 10.7197 60.4634 10.8932 61.1616 11.2402C61.8599 11.583 62.3994 12.0929 62.7803 12.77C63.1611 13.4429 63.3516 14.2765 63.3516 15.271ZM61.7646 15.3154C61.7646 14.5537 61.644 13.9274 61.4028 13.4365C61.1659 12.9456 60.8146 12.5817 60.3491 12.3447C59.8879 12.1035 59.3187 11.9829 58.6416 11.9829H57.3403V18.7241H58.4194C59.5409 18.7241 60.3787 18.4385 60.9331 17.8672C61.4875 17.2959 61.7646 16.4453 61.7646 15.3154ZM73.5903 15.3472C73.5903 16.0623 73.4993 16.714 73.3174 17.3022C73.1396 17.8862 72.8709 18.3898 72.5112 18.813C72.1515 19.2319 71.7008 19.5557 71.1592 19.7842C70.6175 20.0127 69.9827 20.127 69.2549 20.127C68.5143 20.127 67.8711 20.0127 67.3252 19.7842C66.7835 19.5557 66.3328 19.2298 65.9731 18.8066C65.6177 18.3835 65.3511 17.8778 65.1733 17.2896C64.9956 16.7013 64.9067 16.0496 64.9067 15.3345C64.9067 14.3781 65.0633 13.5444 65.3765 12.8335C65.6938 12.1183 66.1742 11.564 66.8174 11.1704C67.4648 10.7726 68.2816 10.5737 69.2676 10.5737C70.2324 10.5737 71.0343 10.7705 71.6733 11.1641C72.3123 11.5576 72.7905 12.112 73.1079 12.8271C73.4295 13.5381 73.5903 14.3781 73.5903 15.3472ZM66.5063 15.3472C66.5063 16.0623 66.6037 16.6823 66.7983 17.207C66.993 17.7275 67.2913 18.1296 67.6934 18.4131C68.0996 18.6924 68.6201 18.832 69.2549 18.832C69.8939 18.832 70.4144 18.6924 70.8164 18.4131C71.2184 18.1296 71.5146 17.7275 71.7051 17.207C71.8955 16.6823 71.9907 16.0623 71.9907 15.3472C71.9907 14.2596 71.7728 13.409 71.3369 12.7954C70.9053 12.1776 70.2155 11.8687 69.2676 11.8687C68.6328 11.8687 68.1102 12.0083 67.6997 12.2876C67.2935 12.5669 66.993 12.9668 66.7983 13.4873C66.6037 14.0036 66.5063 14.6235 66.5063 15.3472ZM83.3276 20H81.4551L76.9102 12.5923H76.853C76.87 12.842 76.8848 13.1064 76.8975 13.3857C76.9144 13.665 76.9271 13.9528 76.9355 14.249C76.9482 14.5452 76.9588 14.8457 76.9673 15.1504V20H75.5835V10.7197H77.4434L81.9819 18.0767H82.0264C82.0179 17.8608 82.0073 17.6133 81.9946 17.334C81.9819 17.0547 81.9692 16.7669 81.9565 16.4707C81.9481 16.1702 81.9417 15.8804 81.9375 15.6011V10.7197H83.3276V20ZM91.021 20H85.7651V10.7197H91.021V12.002H87.2886V14.522H90.7861V15.7979H87.2886V18.7114H91.021V20ZM100.562 15.271C100.562 16.3162 100.367 17.1901 99.9775 17.8926C99.5882 18.5908 99.0233 19.1177 98.2827 19.4731C97.5422 19.8244 96.6493 20 95.604 20H93.0269V10.7197H95.8833C96.8439 10.7197 97.6733 10.8932 98.3716 11.2402C99.0698 11.583 99.6094 12.0929 99.9902 12.77C100.371 13.4429 100.562 14.2765 100.562 15.271ZM98.9746 15.3154C98.9746 14.5537 98.854 13.9274 98.6128 13.4365C98.3758 12.9456 98.0246 12.5817 97.5591 12.3447C97.0978 12.1035 96.5286 11.9829 95.8516 11.9829H94.5503V18.7241H95.6294C96.7508 18.7241 97.5887 18.4385 98.1431 17.8672C98.6974 17.2959 98.9746 16.4453 98.9746 15.3154Z"
        fill="white"/>
</svg>
