<svg width="120" height="30" viewBox="0 0 120 30" fill="none" xmlns="http://www.w3.org/2000/svg">
    <rect width="120" height="30" rx="3" fill="#69B868"/>
    <path d="M34.9585 11.8813C34.5142 11.8813 34.1164 11.9618 33.7651 12.1226C33.4181 12.2834 33.124 12.5161 32.8828 12.8208C32.6416 13.1213 32.4575 13.4873 32.3306 13.9189C32.2036 14.3464 32.1401 14.8288 32.1401 15.3662C32.1401 16.0856 32.2417 16.7056 32.4448 17.2261C32.6479 17.7424 32.9569 18.1401 33.3716 18.4194C33.7863 18.6945 34.311 18.832 34.9458 18.832C35.3394 18.832 35.7223 18.7939 36.0947 18.7178C36.4671 18.6416 36.8522 18.5379 37.25 18.4067V19.7017C36.8734 19.8498 36.4925 19.9577 36.1074 20.0254C35.7223 20.0931 35.278 20.127 34.7744 20.127C33.8265 20.127 33.0394 19.9302 32.4131 19.5366C31.791 19.1431 31.3255 18.5887 31.0166 17.8735C30.7119 17.1584 30.5596 16.3205 30.5596 15.3599C30.5596 14.6574 30.6569 14.0142 30.8516 13.4302C31.0462 12.8462 31.3298 12.3426 31.7021 11.9194C32.0745 11.492 32.5337 11.1641 33.0796 10.9355C33.6297 10.7028 34.2581 10.5864 34.9648 10.5864C35.4303 10.5864 35.8874 10.6393 36.3359 10.7451C36.7887 10.8467 37.2077 10.9927 37.5928 11.1831L37.0596 12.4399C36.738 12.2876 36.4015 12.1564 36.0503 12.0464C35.6991 11.9364 35.3351 11.8813 34.9585 11.8813ZM45.3115 16.4707C45.3115 17.0547 45.2354 17.5731 45.083 18.0259C44.9307 18.4787 44.7085 18.8617 44.4165 19.1748C44.1245 19.4837 43.7733 19.7207 43.3628 19.8857C42.9523 20.0465 42.4889 20.127 41.9727 20.127C41.4902 20.127 41.048 20.0465 40.646 19.8857C40.244 19.7207 39.8949 19.4837 39.5986 19.1748C39.3066 18.8617 39.0802 18.4787 38.9194 18.0259C38.7586 17.5731 38.6782 17.0547 38.6782 16.4707C38.6782 15.6963 38.8115 15.0404 39.0781 14.5029C39.349 13.9613 39.734 13.5487 40.2334 13.2651C40.7327 12.9816 41.3273 12.8398 42.0171 12.8398C42.6646 12.8398 43.2358 12.9816 43.731 13.2651C44.2261 13.5487 44.6133 13.9613 44.8926 14.5029C45.1719 15.0446 45.3115 15.7005 45.3115 16.4707ZM40.2144 16.4707C40.2144 16.9827 40.2757 17.4207 40.3984 17.7847C40.5254 18.1486 40.7201 18.4279 40.9824 18.6226C41.2448 18.813 41.5833 18.9082 41.998 18.9082C42.4128 18.9082 42.7513 18.813 43.0137 18.6226C43.276 18.4279 43.4686 18.1486 43.5913 17.7847C43.714 17.4207 43.7754 16.9827 43.7754 16.4707C43.7754 15.9587 43.714 15.5249 43.5913 15.1694C43.4686 14.8097 43.276 14.5368 43.0137 14.3506C42.7513 14.1602 42.4106 14.0649 41.9917 14.0649C41.3739 14.0649 40.9232 14.2723 40.6396 14.687C40.3561 15.1017 40.2144 15.6963 40.2144 16.4707ZM54.9663 12.8398C55.7534 12.8398 56.3459 13.043 56.7437 13.4492C57.1457 13.8555 57.3467 14.5072 57.3467 15.4043V20H55.855V15.6709C55.855 15.1377 55.7513 14.7357 55.5439 14.4648C55.3366 14.194 55.0213 14.0586 54.5981 14.0586C54.0057 14.0586 53.5783 14.249 53.3159 14.6299C53.0578 15.0065 52.9287 15.5545 52.9287 16.2739V20H51.437V15.6709C51.437 15.3154 51.3905 15.0192 51.2974 14.7822C51.2085 14.541 51.071 14.3612 50.8848 14.2427C50.6986 14.12 50.4637 14.0586 50.1802 14.0586C49.7697 14.0586 49.4417 14.1517 49.1963 14.3379C48.9551 14.5241 48.7816 14.7992 48.6758 15.1631C48.57 15.5228 48.5171 15.965 48.5171 16.4897V20H47.0254V12.9731H48.187L48.3965 13.9189H48.479C48.6229 13.6735 48.8006 13.4725 49.0122 13.3159C49.228 13.1551 49.4671 13.0366 49.7295 12.9604C49.9919 12.88 50.2648 12.8398 50.5483 12.8398C51.0731 12.8398 51.5153 12.9329 51.875 13.1191C52.2347 13.3011 52.5034 13.5804 52.6812 13.957H52.7954C53.0155 13.5762 53.3223 13.2948 53.7158 13.1128C54.1094 12.9308 54.5262 12.8398 54.9663 12.8398ZM63.0342 12.8398C63.8678 12.8398 64.5365 13.1445 65.04 13.7539C65.5479 14.3633 65.8018 15.2689 65.8018 16.4707C65.8018 17.2663 65.6833 17.937 65.4463 18.4829C65.2135 19.0246 64.8856 19.4351 64.4624 19.7144C64.0435 19.9894 63.5547 20.127 62.9961 20.127C62.6406 20.127 62.3317 20.0804 62.0693 19.9873C61.807 19.8942 61.5827 19.7736 61.3965 19.6255C61.2103 19.4731 61.0537 19.3081 60.9268 19.1304H60.8379C60.859 19.2996 60.8781 19.488 60.895 19.6953C60.9162 19.8984 60.9268 20.0846 60.9268 20.2539V23.1167H59.4287V12.9731H60.6475L60.8569 13.9443H60.9268C61.0579 13.7454 61.2166 13.5614 61.4028 13.3921C61.5933 13.2228 61.8218 13.0895 62.0884 12.9922C62.3592 12.8906 62.6745 12.8398 63.0342 12.8398ZM62.6343 14.0586C62.2238 14.0586 61.8937 14.1411 61.644 14.3062C61.3986 14.467 61.2188 14.7103 61.1045 15.0361C60.9945 15.362 60.9352 15.7703 60.9268 16.2612V16.4707C60.9268 16.9912 60.9797 17.4334 61.0854 17.7974C61.1955 18.1571 61.3753 18.4321 61.625 18.6226C61.8789 18.8088 62.2217 18.9019 62.6533 18.9019C63.0173 18.9019 63.3177 18.8024 63.5547 18.6035C63.7959 18.4046 63.9757 18.1211 64.0942 17.7529C64.2127 17.3848 64.272 16.951 64.272 16.4517C64.272 15.6942 64.1366 15.106 63.8657 14.687C63.5991 14.2681 63.1886 14.0586 62.6343 14.0586ZM69.0264 20H67.5283V10.123H69.0264V20ZM73.9585 12.8398C74.5848 12.8398 75.1222 12.9689 75.5708 13.2271C76.0194 13.4852 76.3643 13.8512 76.6055 14.3252C76.8467 14.7992 76.9673 15.3662 76.9673 16.0264V16.8262H72.2764C72.2933 17.5075 72.4753 18.0322 72.8223 18.4004C73.1735 18.7686 73.6644 18.9526 74.2949 18.9526C74.7435 18.9526 75.1455 18.9103 75.501 18.8257C75.8607 18.7368 76.231 18.6077 76.6118 18.4385V19.6509C76.2606 19.8159 75.903 19.9365 75.5391 20.0127C75.1751 20.0889 74.7393 20.127 74.2314 20.127C73.5417 20.127 72.9344 19.9937 72.4097 19.7271C71.8892 19.4562 71.4808 19.0542 71.1846 18.521C70.8926 17.9878 70.7466 17.3255 70.7466 16.5342C70.7466 15.7471 70.8799 15.0785 71.1465 14.5283C71.4131 13.9782 71.7876 13.5592 72.27 13.2715C72.7524 12.9837 73.3153 12.8398 73.9585 12.8398ZM73.9585 13.9634C73.4888 13.9634 73.1079 14.1157 72.8159 14.4204C72.5282 14.7251 72.3589 15.1715 72.3081 15.7598H75.5073C75.5031 15.4085 75.4438 15.0975 75.3296 14.8267C75.2196 14.5558 75.0503 14.3442 74.8218 14.1919C74.5975 14.0396 74.3097 13.9634 73.9585 13.9634ZM81.2646 18.9209C81.4593 18.9209 81.6519 18.904 81.8423 18.8701C82.0327 18.832 82.2062 18.7876 82.3628 18.7368V19.8667C82.1978 19.9386 81.984 20 81.7217 20.0508C81.4593 20.1016 81.1864 20.127 80.9028 20.127C80.505 20.127 80.1475 20.0614 79.8301 19.9302C79.5127 19.7948 79.2609 19.5641 79.0747 19.2383C78.8885 18.9124 78.7954 18.4618 78.7954 17.8862V14.1094H77.8369V13.4429L78.8652 12.916L79.354 11.4116H80.2935V12.9731H82.3057V14.1094H80.2935V17.8672C80.2935 18.2227 80.3823 18.4871 80.5601 18.6606C80.7378 18.8341 80.9727 18.9209 81.2646 18.9209ZM86.5903 12.8398C87.2166 12.8398 87.7541 12.9689 88.2026 13.2271C88.6512 13.4852 88.9961 13.8512 89.2373 14.3252C89.4785 14.7992 89.5991 15.3662 89.5991 16.0264V16.8262H84.9082C84.9251 17.5075 85.1071 18.0322 85.4541 18.4004C85.8053 18.7686 86.2962 18.9526 86.9268 18.9526C87.3753 18.9526 87.7773 18.9103 88.1328 18.8257C88.4925 18.7368 88.8628 18.6077 89.2437 18.4385V19.6509C88.8924 19.8159 88.5348 19.9365 88.1709 20.0127C87.807 20.0889 87.3711 20.127 86.8633 20.127C86.1735 20.127 85.5662 19.9937 85.0415 19.7271C84.521 19.4562 84.1126 19.0542 83.8164 18.521C83.5244 17.9878 83.3784 17.3255 83.3784 16.5342C83.3784 15.7471 83.5117 15.0785 83.7783 14.5283C84.0449 13.9782 84.4194 13.5592 84.9019 13.2715C85.3843 12.9837 85.9471 12.8398 86.5903 12.8398ZM86.5903 13.9634C86.1206 13.9634 85.7397 14.1157 85.4478 14.4204C85.16 14.7251 84.9907 15.1715 84.9399 15.7598H88.1392C88.1349 15.4085 88.0757 15.0975 87.9614 14.8267C87.8514 14.5558 87.6821 14.3442 87.4536 14.1919C87.2293 14.0396 86.9416 13.9634 86.5903 13.9634Z" fill="white"/>
</svg>
