<svg width="120" height="30" viewBox="0 0 120 30" fill="none" xmlns="http://www.w3.org/2000/svg">
    <rect width="120" height="30" rx="3" fill="#D75A4B"/>
    <path
        d="M41.0459 20H39.5352V10.7197H44.7783V12.002H41.0459V14.8965H44.5371V16.1724H41.0459V20ZM52.2178 20L51.3101 17.4229H47.7617L46.854 20H45.248L48.7012 10.6816H50.3896L53.8364 20H52.2178ZM50.9165 16.1152L50.0342 13.5762C50.0003 13.4661 49.9517 13.3117 49.8882 13.1128C49.8247 12.9097 49.7612 12.7044 49.6978 12.4971C49.6343 12.2855 49.5814 12.1077 49.5391 11.9639C49.4967 12.1374 49.4438 12.332 49.3804 12.5479C49.3211 12.7594 49.2619 12.9583 49.2026 13.1445C49.1476 13.3307 49.1053 13.4746 49.0757 13.5762L48.187 16.1152H50.9165ZM55.0615 20V10.7197H56.585V20H55.0615ZM59.0352 20V10.7197H60.5586V18.7051H64.5005V20H59.0352ZM71.3623 20H66.1064V10.7197H71.3623V12.002H67.6299V14.522H71.1274V15.7979H67.6299V18.7114H71.3623V20ZM80.9028 15.271C80.9028 16.3162 80.7082 17.1901 80.3188 17.8926C79.9295 18.5908 79.3646 19.1177 78.624 19.4731C77.8835 19.8244 76.9906 20 75.9453 20H73.3682V10.7197H76.2246C77.1852 10.7197 78.0146 10.8932 78.7129 11.2402C79.4111 11.583 79.9507 12.0929 80.3315 12.77C80.7124 13.4429 80.9028 14.2765 80.9028 15.271ZM79.3159 15.3154C79.3159 14.5537 79.1953 13.9274 78.9541 13.4365C78.7171 12.9456 78.3659 12.5817 77.9004 12.3447C77.4391 12.1035 76.87 11.9829 76.1929 11.9829H74.8916V18.7241H75.9707C77.0921 18.7241 77.93 18.4385 78.4844 17.8672C79.0387 17.2959 79.3159 16.4453 79.3159 15.3154Z"
        fill="white"/>
</svg>
