<svg width="120" height="30" viewBox="0 0 120 30" fill="none" xmlns="http://www.w3.org/2000/svg">
    <rect width="120" height="30" rx="3" fill="#0878B0"/>
    <path
        d="M34.6348 10.7197C35.8324 10.7197 36.7062 10.9652 37.2563 11.4561C37.8065 11.9469 38.0815 12.6346 38.0815 13.519C38.0815 13.9211 38.0181 14.304 37.8911 14.668C37.7684 15.0277 37.5653 15.3472 37.2817 15.6265C36.9982 15.9015 36.6237 16.1195 36.1582 16.2803C35.6969 16.4411 35.1278 16.5215 34.4507 16.5215H33.4604V20H31.937V10.7197H34.6348ZM34.5332 11.9829H33.4604V15.252H34.292C34.7702 15.252 35.1764 15.1969 35.5107 15.0869C35.8451 14.9727 36.099 14.7928 36.2725 14.5474C36.446 14.3019 36.5327 13.9782 36.5327 13.5762C36.5327 13.0387 36.3698 12.6388 36.0439 12.3765C35.7223 12.1141 35.2188 11.9829 34.5332 11.9829ZM45.1909 20H39.9351V10.7197H45.1909V12.002H41.4585V14.522H44.9561V15.7979H41.4585V18.7114H45.1909V20ZM54.9409 20H53.0684L48.5234 12.5923H48.4663C48.4832 12.842 48.498 13.1064 48.5107 13.3857C48.5277 13.665 48.5404 13.9528 48.5488 14.249C48.5615 14.5452 48.5721 14.8457 48.5806 15.1504V20H47.1968V10.7197H49.0566L53.5952 18.0767H53.6396C53.6312 17.8608 53.6206 17.6133 53.6079 17.334C53.5952 17.0547 53.5825 16.7669 53.5698 16.4707C53.5614 16.1702 53.555 15.8804 53.5508 15.6011V10.7197H54.9409V20ZM64.9131 15.271C64.9131 16.3162 64.7184 17.1901 64.3291 17.8926C63.9398 18.5908 63.3748 19.1177 62.6343 19.4731C61.8937 19.8244 61.0008 20 59.9556 20H57.3784V10.7197H60.2349C61.1955 10.7197 62.0249 10.8932 62.7231 11.2402C63.4214 11.583 63.9609 12.0929 64.3418 12.77C64.7227 13.4429 64.9131 14.2765 64.9131 15.271ZM63.3262 15.3154C63.3262 14.5537 63.2056 13.9274 62.9644 13.4365C62.7274 12.9456 62.3761 12.5817 61.9106 12.3447C61.4494 12.1035 60.8802 11.9829 60.2031 11.9829H58.9019V18.7241H59.981C61.1024 18.7241 61.9403 18.4385 62.4946 17.8672C63.049 17.2959 63.3262 16.4453 63.3262 15.3154ZM66.9126 20V10.7197H68.436V20H66.9126ZM78.6304 20H76.7578L72.2129 12.5923H72.1558C72.1727 12.842 72.1875 13.1064 72.2002 13.3857C72.2171 13.665 72.2298 13.9528 72.2383 14.249C72.251 14.5452 72.2616 14.8457 72.27 15.1504V20H70.8862V10.7197H72.7461L77.2847 18.0767H77.3291C77.3206 17.8608 77.3101 17.6133 77.2974 17.334C77.2847 17.0547 77.272 16.7669 77.2593 16.4707C77.2508 16.1702 77.2445 15.8804 77.2402 15.6011V10.7197H78.6304V20ZM84.813 14.96H88.2788V19.6191C87.7922 19.7799 87.2886 19.9048 86.7681 19.9937C86.2476 20.0825 85.6636 20.127 85.0161 20.127C84.0724 20.127 83.2726 19.9408 82.6167 19.5684C81.965 19.1917 81.4699 18.6479 81.1313 17.937C80.7928 17.2218 80.6235 16.3607 80.6235 15.3535C80.6235 14.3844 80.8118 13.5444 81.1885 12.8335C81.5651 12.1183 82.1131 11.5661 82.8325 11.1768C83.5519 10.7832 84.4237 10.5864 85.4478 10.5864C85.9513 10.5864 86.438 10.6372 86.9077 10.7388C87.3817 10.8361 87.8154 10.9715 88.209 11.145L87.6758 12.4019C87.3626 12.2537 87.0114 12.1289 86.6221 12.0273C86.2327 11.9258 85.8286 11.875 85.4097 11.875C84.7453 11.875 84.1719 12.0189 83.6895 12.3066C83.2113 12.5944 82.8431 13.0007 82.585 13.5254C82.3268 14.0459 82.1978 14.6616 82.1978 15.3726C82.1978 16.0623 82.3014 16.6675 82.5088 17.188C82.7161 17.7085 83.0399 18.1147 83.48 18.4067C83.9243 18.6945 84.4977 18.8384 85.2002 18.8384C85.5514 18.8384 85.8498 18.8193 86.0952 18.7812C86.3407 18.7432 86.5671 18.7008 86.7744 18.6543V16.2612H84.813V14.96Z"
        fill="white"/>
</svg>
