<svg width="126" height="29" viewBox="0 0 126 29" fill="none" xmlns="http://www.w3.org/2000/svg">
    <rect x="0.5" y="0.5" width="125" height="28" rx="2.5" fill="white" stroke="#CBCBCB"/>
    <path d="M0 3C0 1.34315 1.34315 0 3 0H35V29H3C1.34315 29 0 27.6569 0 26V3Z" fill="url(#paint0_linear_1442_515)"/>
    <path fill-rule="evenodd" clip-rule="evenodd"
          d="M6.50345 14.774L9.50252 14.6992C9.39243 10.2806 12.8822 6.61256 17.3008 6.50248C18.8703 6.46338 20.3413 6.88687 21.5903 7.63599L20.1672 9.1319C19.3262 8.70272 18.3603 8.4767 17.3506 8.50186C14.0416 8.5843 11.4195 11.3405 11.5019 14.6494L14.501 14.5747L10.6018 18.6731L6.50345 14.774ZM17.6495 20.4981C20.9584 20.4157 23.5806 17.6595 23.4982 14.3506L20.4991 14.4253L24.3982 10.3269L28.4966 14.226L25.4976 14.3007C25.6076 18.7194 22.1179 22.3874 17.6993 22.4975C16.1298 22.5366 14.6588 22.1131 13.4097 21.364L14.8329 19.8681C15.6739 20.2973 16.6398 20.5233 17.6495 20.4981Z"
          fill="white"/>
    <path
        d="M49.4863 10.4336C50.1895 10.4336 50.7695 10.5215 51.2266 10.6973C51.6875 10.8691 52.0312 11.1328 52.2578 11.4883C52.4844 11.8438 52.5977 12.2969 52.5977 12.8477C52.5977 13.3008 52.5156 13.6797 52.3516 13.9844C52.1875 14.2852 51.9727 14.5293 51.707 14.7168C51.4414 14.9043 51.1582 15.0488 50.8574 15.1504L53.207 19H52.0469L49.9492 15.4258H48.168V19H47.1719V10.4336H49.4863ZM49.4277 11.2949H48.168V14.582H49.5273C50.2266 14.582 50.7402 14.4395 51.0684 14.1543C51.4004 13.8691 51.5664 13.4492 51.5664 12.8945C51.5664 12.3125 51.3906 11.9004 51.0391 11.6582C50.6914 11.416 50.1543 11.2949 49.4277 11.2949ZM59.3477 19H54.5781V10.4336H59.3477V11.3125H55.5742V14.084H59.1309V14.9512H55.5742V18.1211H59.3477V19ZM64.9082 11.1895C64.4355 11.1895 64.0098 11.2715 63.6309 11.4355C63.2559 11.5957 62.9355 11.8301 62.6699 12.1387C62.4082 12.4434 62.207 12.8125 62.0664 13.2461C61.9258 13.6797 61.8555 14.168 61.8555 14.7109C61.8555 15.4297 61.9668 16.0547 62.1895 16.5859C62.416 17.1133 62.752 17.5215 63.1973 17.8105C63.6465 18.0996 64.207 18.2441 64.8789 18.2441C65.2617 18.2441 65.6211 18.2129 65.957 18.1504C66.2969 18.084 66.627 18.002 66.9473 17.9043V18.7715C66.6348 18.8887 66.3066 18.9746 65.9629 19.0293C65.6191 19.0879 65.2109 19.1172 64.7383 19.1172C63.8672 19.1172 63.1387 18.9375 62.5527 18.5781C61.9707 18.2148 61.5332 17.7031 61.2402 17.043C60.9512 16.3828 60.8066 15.6035 60.8066 14.7051C60.8066 14.0566 60.8965 13.4648 61.0762 12.9297C61.2598 12.3906 61.5254 11.9258 61.873 11.5352C62.2246 11.1445 62.6543 10.8438 63.1621 10.6328C63.6738 10.418 64.2598 10.3105 64.9199 10.3105C65.3535 10.3105 65.7715 10.3535 66.1738 10.4395C66.5762 10.5254 66.9395 10.6484 67.2637 10.8086L66.8652 11.6523C66.5918 11.5273 66.291 11.4199 65.9629 11.3301C65.6387 11.2363 65.2871 11.1895 64.9082 11.1895ZM75.2852 10.4336V15.9766C75.2852 16.582 75.1621 17.1211 74.916 17.5938C74.6738 18.0664 74.3066 18.4395 73.8145 18.7129C73.3223 18.9824 72.7051 19.1172 71.9629 19.1172C70.9043 19.1172 70.0977 18.8301 69.543 18.2559C68.9922 17.6816 68.7168 16.9141 68.7168 15.9531V10.4336H69.7188V15.9824C69.7188 16.709 69.9102 17.2695 70.293 17.6641C70.6797 18.0586 71.2559 18.2559 72.0215 18.2559C72.5449 18.2559 72.9727 18.1621 73.3047 17.9746C73.6406 17.7832 73.8887 17.5176 74.0488 17.1777C74.2129 16.834 74.2949 16.4375 74.2949 15.9883V10.4336H75.2852ZM79.873 10.4336C80.5762 10.4336 81.1562 10.5215 81.6133 10.6973C82.0742 10.8691 82.418 11.1328 82.6445 11.4883C82.8711 11.8438 82.9844 12.2969 82.9844 12.8477C82.9844 13.3008 82.9023 13.6797 82.7383 13.9844C82.5742 14.2852 82.3594 14.5293 82.0938 14.7168C81.8281 14.9043 81.5449 15.0488 81.2441 15.1504L83.5938 19H82.4336L80.3359 15.4258H78.5547V19H77.5586V10.4336H79.873ZM79.8145 11.2949H78.5547V14.582H79.9141C80.6133 14.582 81.127 14.4395 81.4551 14.1543C81.7871 13.8691 81.9531 13.4492 81.9531 12.8945C81.9531 12.3125 81.7773 11.9004 81.4258 11.6582C81.0781 11.416 80.541 11.2949 79.8145 11.2949ZM87.2793 10.4336C87.9824 10.4336 88.5625 10.5215 89.0195 10.6973C89.4805 10.8691 89.8242 11.1328 90.0508 11.4883C90.2773 11.8438 90.3906 12.2969 90.3906 12.8477C90.3906 13.3008 90.3086 13.6797 90.1445 13.9844C89.9805 14.2852 89.7656 14.5293 89.5 14.7168C89.2344 14.9043 88.9512 15.0488 88.6504 15.1504L91 19H89.8398L87.7422 15.4258H85.9609V19H84.9648V10.4336H87.2793ZM87.2207 11.2949H85.9609V14.582H87.3203C88.0195 14.582 88.5332 14.4395 88.8613 14.1543C89.1934 13.8691 89.3594 13.4492 89.3594 12.8945C89.3594 12.3125 89.1836 11.9004 88.832 11.6582C88.4844 11.416 87.9473 11.2949 87.2207 11.2949ZM92.3711 19V10.4336H93.3672V19H92.3711ZM102.42 19H101.271L96.6016 11.8047H96.5547C96.5664 11.9961 96.5801 12.2148 96.5957 12.4609C96.6113 12.7031 96.623 12.9629 96.6309 13.2402C96.6426 13.5137 96.6484 13.793 96.6484 14.0781V19H95.7227V10.4336H96.8652L101.518 17.6055H101.559C101.551 17.4688 101.541 17.2754 101.529 17.0254C101.518 16.7715 101.506 16.5 101.494 16.2109C101.486 15.918 101.482 15.6465 101.482 15.3965V10.4336H102.42V19ZM108.42 14.5117H111.414V18.666C110.965 18.8184 110.502 18.9316 110.025 19.0059C109.553 19.0801 109.023 19.1172 108.438 19.1172C107.547 19.1172 106.795 18.9395 106.182 18.584C105.572 18.2285 105.109 17.7227 104.793 17.0664C104.477 16.4062 104.318 15.623 104.318 14.7168C104.318 13.8301 104.492 13.0566 104.84 12.3965C105.191 11.7363 105.697 11.2246 106.357 10.8613C107.021 10.4941 107.818 10.3105 108.748 10.3105C109.225 10.3105 109.676 10.3555 110.102 10.4453C110.531 10.5312 110.93 10.6543 111.297 10.8145L110.916 11.6816C110.6 11.5449 110.25 11.4277 109.867 11.3301C109.488 11.2324 109.096 11.1836 108.689 11.1836C107.99 11.1836 107.391 11.3281 106.891 11.6172C106.395 11.9062 106.014 12.3145 105.748 12.8418C105.486 13.3691 105.355 13.9941 105.355 14.7168C105.355 15.4316 105.471 16.0547 105.701 16.5859C105.932 17.1133 106.291 17.5234 106.779 17.8164C107.268 18.1094 107.896 18.2559 108.666 18.2559C109.053 18.2559 109.385 18.2344 109.662 18.1914C109.939 18.1445 110.191 18.0898 110.418 18.0273V15.4023H108.42V14.5117Z"
        fill="#555555"/>
    <defs>
        <linearGradient id="paint0_linear_1442_515" x1="35" y1="8.94949e-07" x2="5.94229" y2="34.6619"
                        gradientUnits="userSpaceOnUse">
            <stop stop-color="#59AD70"/>
            <stop offset="1" stop-color="#2EBBBB"/>
        </linearGradient>
    </defs>
</svg>
