<svg xmlns="http://www.w3.org/2000/svg" width="750" height="471"><style>.a{fill:#fff}</style><g fill="none"><rect width="750" height="471" rx="40" fill="#2557D6"/><path d="M0 221.2h36l8.1-19.5h18.2l8.1 19.5h70.9v-14.9l6.3 14.9h36.8l6.4-15.2v15.2h176.1l-.1-32h3.4c2.4 0 3.1.3 3.1 4.2v27.8h91.1v-7.5c7.4 4 18.8 7.5 33.9 7.5h38.3l8.2-19.5H563l8 19.5h73.8v-18.5l11.2 18.5h59.2V98.7h-58.6v14.4l-8.2-14.4h-60.1v14.4l-7.5-14.4h-81.2c-13.6 0-25.5 1.9-35.2 7.1v-7.1h-56v7.1c-6.1-5.4-14.5-7.1-23.8-7.1H179.9l-13.7 31.6-14.1-31.6H87.6v14.4l-7.1-14.4h-55L0 156.9v64.3zm227.4-17.7h-21.6l-.1-68.8-30.6 68.8h-18.5L126 134.7v68.8H83.1L75 183.9H31.1l-8.2 19.6H0l37.8-87.8h31.3l35.8 83.1v-83.1h34.5l27.5 59.6 25.4-59.6h35.1v87.8zM67.8 165.7l-14.5-35-14.3 35h28.8zm245.6 37.8H243v-87.8h70.4V134h-49.3v15.8h48.1v18h-48.1v17.5h49.3v18.2zm99.3-64.2c0 14-9.4 21.3-14.9 23.4 4.6 1.8 8.6 4.9 10.4 7.4 3 4.4 3.5 8.3 3.5 16.2v17.2h-21.2l-.1-11.1c0-5.2.5-12.8-3.3-17.1-3.1-3.1-7.8-3.7-15.4-3.7h-22.6v31.9H328v-87.8h48.5c10.8 0 18.7.3 25.5 4.2 6.7 3.9 10.7 9.6 10.7 19.4zM386 152.4c-2.9 1.7-6.3 1.8-10.4 1.8H350v-19.5h25.9c3.7 0 7.5.1 10 1.6 2.8 1.2 4.5 4 4.5 7.7 0 3.9-1.6 7-4.4 8.4zm60.5 51.1H425v-87.8h21.5v87.8zm249.7 0h-29.8l-40-65.9v65.9h-43l-8.2-19.6h-43.8l-7.9 19.6h-24.7c-10.2 0-23.2-2.2-30.6-9.7-7.4-7.5-11.2-17.6-11.2-33.5 0-13.1 2.3-25 11.3-34.4 6.9-7 17.5-10.2 32.1-10.2h20.4v18.8h-20c-7.7 0-12.1 1.1-16.2 5.2-3.6 3.7-6.1 10.7-6.1 19.9 0 9.4 1.9 16.2 5.8 20.6 3.2 3.5 9.1 4.6 14.7 4.6h9.5l29.7-69.1h31.6l35.7 83.1v-83.1h32.1l37 61.2v-61.2h21.6v87.8zm-128.1-37.8l-14.6-35-14.5 35h29.1zM750 343.8c-5.2 7.4-15.1 11.2-28.7 11.2h-40.7v-18.8h40.6c4 0 6.8-.6 8.5-2.2 1.5-1.4 2.5-3.3 2.5-5.7 0-2.6-1-4.6-2.6-5.8-1.5-1.4-3.7-2-7.4-2-19.8-.7-44.5.6-44.5-27.2 0-12.7 8.1-26.2 30.3-26.2h42v-17.4h-39.1c-11.7 0-20.3 2.8-26.4 7.1v-7.1h-57.7c-9.2 0-20 2.2-25.2 7.1v-7.1h-103v7.1c-8.2-5.8-22.1-7.1-28.5-7.1h-67.9v7.1c-6.5-6.2-21-7.1-29.8-7.1h-76L279 268.4l-16.4-18.7H149v122.6h111.5l17.9-19.1 16.9 19.1h68.8v-28.8h6.7c9.2.1 19.9-.2 29.4-4.3v33.1h56.7v-32h2.7c3.5 0 3.9.2 3.9 3.6v28.4h172.2c10.9 0 22.4-2.8 28.7-7.9v7.9H719c11.4 0 22.5-1.6 31-5.7v-22.8zm-341.5-47.2c0 24.4-18.3 29.5-36.8 29.5h-26.3v29.4h-41l-25.9-29.1-27 29.1H168v-87.8h84.8l25.9 28.8 26.9-28.8h67.3c16.8 0 35.6 4.6 35.6 28.9zM240.8 337H189v-17.4h46.3v-18H189v-15.9h52.8l23.1 25.6-24.1 25.7zm83.6 10.1L292 311.3l32.4-34.6v70.4zm47.8-39.1H345v-22.3h27.5c7.6 0 12.9 3.1 12.9 10.7s-5.1 11.6-13.2 11.6zM515 267.7h70.3v18.1H536v16h48.1v17.9H536v17.5l49.3.1v18.2H515v-87.8zm-27.1 47c4.7 1.7 8.5 4.8 10.3 7.4 3 4.3 3.5 8.3 3.5 16v17.4h-21.1v-11c0-5.3.5-13.1-3.4-17.2-3.1-3.1-7.8-3.9-15.5-3.9h-22.5v32.1H418v-87.8h48.7c10.6 0 18.4.4 25.3 4.1 6.7 4 10.9 9.5 10.9 19.5 0 14-9.4 21.2-15 23.4zM476 303.6c-2.8 1.7-6.3 1.8-10.4 1.8H440v-19.7h25.9c3.8 0 7.5 0 10.1 1.6 2.7 1.4 4.4 4.1 4.4 7.9 0 3.7-1.7 6.7-4.4 8.4zm190.3 5.6c4.1 4.2 6.3 9.6 6.3 18.6 0 18.9-11.8 27.7-33.1 27.7h-41v-18.8h40.9c4 0 6.8-.5 8.6-2.2 1.4-1.3 2.5-3.3 2.5-5.7 0-2.6-1.2-4.6-2.6-5.8-1.6-1.4-3.9-2-7.5-2-19.7-.7-44.4.6-44.4-27.2 0-12.7 8-26.1 30.1-26.1h42.3v18.7h-38.7c-3.8 0-6.3.1-8.4 1.6-2.4 1.4-3.2 3.5-3.2 6.3 0 3.3 1.9 5.5 4.6 6.5 2.2.8 4.6 1 8.2 1l11.4.3c11.4.3 19.3 2.3 24 7.1zm83.7-23.5h-38.4c-3.9 0-6.4.1-8.6 1.6-2.2 1.4-3 3.5-3 6.3 0 3.3 1.8 5.5 4.6 6.5 2.2.8 4.6 1 8.1 1l11.4.3c11.6.3 19.3 2.3 23.9 7.1.9.7 1.4 1.4 2 2.2v-25z" class="a"/></g></svg>