<svg width="19" height="20" viewBox="0 0 19 20" fill="none" xmlns="http://www.w3.org/2000/svg">
<path d="M13.2261 15.3662H5.99939C5.67649 15.3662 5.31515 15.1125 5.20752 14.805L2.02468 5.90225C1.57109 4.62604 2.10156 4.23395 3.19326 5.01813L6.19159 7.16309C6.69131 7.50905 7.26022 7.33223 7.47549 6.771L8.82858 3.16532C9.25911 2.01211 9.97409 2.01211 10.4046 3.16532L11.7577 6.771C11.973 7.33223 12.5419 7.50905 13.0339 7.16309L15.8477 5.15652C17.0471 4.29546 17.6237 4.73367 17.1316 6.12521L14.0257 14.8204C13.9104 15.1125 13.549 15.3662 13.2261 15.3662Z" stroke="white" stroke-width="1.1532" stroke-linecap="round" stroke-linejoin="round"/>
<path d="M5.38435 17.6881H13.8412" stroke="white" stroke-width="1.1532" stroke-linecap="round" stroke-linejoin="round"/>
<path d="M7.69075 11.5376H11.5348" stroke="white" stroke-width="1.1532" stroke-linecap="round" stroke-linejoin="round"/>
</svg>
