<svg xmlns="http://www.w3.org/2000/svg" width="750" height="471"><g fill="none"><path d="M52.9 0C23.7 0 0 23.2 0 51.7v367.6C0 447.9 23.7 471 52.9 471h644.2c29.2 0 52.9-23.2 52.9-51.7V51.7C750 23.1 726.3 0 697.1 0H52.9z" fill="#4D4D4D"/><path d="M314.6 152.2c8.5 0 15.6 1.7 24.3 5.9v22.1c-8.2-7.6-15.4-10.8-24.8-10.8-18.5 0-33.1 14.5-33.1 33 0 19.5 14.1 33.2 34 33.2 9 0 16-3 23.9-10.5v22.1c-9 4-16.3 5.6-24.8 5.6-30.1 0-53.4-22-53.4-50.2 0-28 23.9-50.4 53.9-50.4zm-93.4.6c11.1 0 21.3 3.6 29.7 10.7l-10.3 12.8c-5.1-5.4-10-7.8-15.9-7.8-8.5 0-14.7 4.7-14.7 10.7 0 5.2 3.5 8 15.3 12.1 22.5 7.8 29.1 14.8 29.1 30.1 0 18.6-14.4 31.6-34.9 31.6-15 0-26-5.7-35.1-18.4l12.8-11.6c4.6 8.3 12.1 12.8 21.6 12.8 8.8 0 15.3-5.8 15.3-13.6 0-4-2-7.5-5.9-9.9-2-1.2-5.9-2.9-13.7-5.5-18.5-6.4-24.9-13.2-24.9-26.4 0-15.8 13.7-27.6 31.6-27.6zm225.7 1.7h21.6l27 64.6 27.3-64.6h21.4l-43.7 98.7h-10.6l-43-98.7zm-382.1.1h29c32 0 54.4 19.8 54.4 48.2 0 14.2-6.9 27.9-18.4 37-9.7 7.6-20.8 11.1-36.1 11.1H64.8v-96.3zm92.5 0H177v96.3h-19.7v-96.3zm395.9 0h56v16.3h-36.3v21.4h34.9v16.3h-34.9v26h36.3v16.3h-56v-96.3zm69.1 0h29.2c22.8 0 35.9 10.4 35.9 28.4 0 14.8-8.2 24.5-23.1 27.3l31.9 40.6h-24.3l-27.3-38.7H642v38.7h-19.7v-96.3zm19.7 15.2v29.1h5.7c12.7 0 19.3-5.2 19.3-14.8 0-9.4-6.6-14.3-18.9-14.3H642zm-557.4 1.1v63.7h5.3c12.7 0 20.8-2.3 27-7.7 6.8-5.7 10.9-15 10.9-24.2s-4.1-18.2-10.9-24c-6.5-5.6-14.3-7.8-27-7.8h-5.3z" fill="#FFF"/><path d="M399.2 151.6c29.7 0 53.8 22.1 53.8 49.5s-24.1 49.6-53.8 49.6c-29.8 0-53.9-22.2-53.9-49.6 0-27.4 24.1-49.5 53.9-49.5zM750 271.1C724.9 288.3 537.4 411.5 212.7 471h484.4c29.2 0 52.9-23.2 52.9-51.7V271.1z" fill="#F47216"/></g></svg>