<?xml version="1.0" encoding="utf-8"?>
<!-- Generator: Adobe Illustrator 18.0.0, SVG Export Plug-In . SVG Version: 6.00 Build 0)  -->
<!DOCTYPE svg PUBLIC "-//W3C//DTD SVG 1.1//EN" "http://www.w3.org/Graphics/SVG/1.1/DTD/svg11.dtd">
<svg version="1.1" id="Layer_1" xmlns="http://www.w3.org/2000/svg" xmlns:xlink="http://www.w3.org/1999/xlink" x="0px" y="0px"
	 viewBox="100.1 0 400 400" enable-background="new 100.1 0 400 400" xml:space="preserve">
<g id="Layer_1_1_">
	<circle fill="#66BB6A" cx="-407.3" cy="346.3" r="42.2"/>
	<g>
		<g>
			<path fill="#546E7A" d="M-786.4,133.8v-12.5h4.8c3.8,0,6.6,2.5,6.6,6.4s-2.8,6.4-6.6,6.4h-4.8V133.8z M-777.5,127.5
				c0-2.3-1.3-3.8-3.8-3.8h-2.3v7.9h2.3C-779,131.6-777.5,129.8-777.5,127.5z"/>
			<path fill="#546E7A" d="M-771.6,133.8v-12.5h8.9v2.3h-6.1v2.5h6.1v2.3h-6.1v2.8h6.1v2.3h-8.9V133.8z"/>
			<path fill="#546E7A" d="M-748.5,133.8v-8.7l-3.6,8.7h-1.3l-3.6-8.7v8.7h-2.5v-12.5h3.8l3.1,7.6l3.1-7.6h3.8v12.5H-748.5z"/>
			<path fill="#546E7A" d="M-742.4,127.5c0-3.8,2.8-6.4,6.6-6.4s6.6,2.8,6.6,6.4c0,3.8-2.8,6.4-6.6,6.4
				C-739.8,134.1-742.4,131.3-742.4,127.5z M-732.2,127.5c0-2.3-1.5-4.1-3.8-4.1c-2.3,0-3.8,1.8-3.8,4.1c0,2.3,1.5,4.1,3.8,4.1
				C-733.7,131.6-732.2,129.8-732.2,127.5z"/>
			<path fill="#546E7A" d="M-726.8,127.5c0-3.8,2.8-6.4,6.6-6.4c2.8,0,4.3,1.5,5.3,3.1l-2.3,1c-0.5-1-1.5-1.8-3.1-1.8
				c-2.3,0-3.8,1.8-3.8,4.1c0,2.3,1.5,4.1,3.8,4.1c1.3,0,2.3-0.8,3.1-1.8l2.3,1c-1,1.5-2.5,3.1-5.3,3.1
				C-723.8,134.1-726.8,131.3-726.8,127.5z"/>
			<path fill="#546E7A" d="M-704.7,133.8l-2.5-4.3h-2v4.3h-2.5v-12.5h5.9c2.5,0,4.1,1.8,4.1,4.1c0,2.3-1.3,3.3-2.8,3.8l2.8,4.8h-2.8
				V133.8z M-704.5,125.2c0-1-0.8-1.8-1.8-1.8h-2.8v3.3h2.8C-705.5,127-704.5,126.5-704.5,125.2z"/>
			<path fill="#546E7A" d="M-689.7,133.8l-0.8-2h-5.3l-0.8,2h-3.1l4.8-12.5h3.3l4.8,12.5H-689.7z M-693.3,123.9l-2,5.3h3.8
				L-693.3,123.9z"/>
			<path fill="#546E7A" d="M-682.6,133.8v-10.2h-3.6v-2.3h9.9v2.3h-3.6v10.2H-682.6z"/>
			<path fill="#546E7A" d="M-673.2,133.8v-12.5h2.5v12.5H-673.2z"/>
			<path fill="#546E7A" d="M-667,133.8v-2l5.9-7.9h-5.9v-2.3h9.4v2l-5.9,8.1h6.1v2.3h-9.7V133.8z"/>
			<path fill="#546E7A" d="M-654.1,133.8v-12.5h2.5v12.5H-654.1z"/>
			<path fill="#546E7A" d="M-639.1,133.8l-5.9-8.1v8.1h-2.5v-12.5h2.8l5.9,7.9v-7.9h2.5v12.5H-639.1z"/>
			<path fill="#546E7A" d="M-633.2,127.5c0-4.1,3.1-6.4,6.6-6.4c2.5,0,4.3,1.3,5.1,2.8l-2.3,1.3c-0.5-0.8-1.5-1.5-3.1-1.5
				c-2.3,0-3.8,1.8-3.8,4.1c0,2.3,1.5,4.1,3.8,4.1c1,0,2-0.5,2.5-1v-1.5h-3.3V127h5.9v4.8c-1.3,1.5-3.1,2.3-5.3,2.3
				C-630.2,134.1-633.2,131.6-633.2,127.5z"/>
			<path fill="#546E7A" d="M-612.1,127.5c0-4.1,3.1-6.4,6.6-6.4c2.5,0,4.3,1.3,5.1,2.8l-2.3,1.3c-0.5-0.8-1.5-1.5-3.1-1.5
				c-2.3,0-3.8,1.8-3.8,4.1c0,2.3,1.5,4.1,3.8,4.1c1,0,2-0.5,2.5-1v-1.5h-3.3V127h5.9v4.8c-1.3,1.5-3.1,2.3-5.3,2.3
				C-609,134.1-612.1,131.6-612.1,127.5z"/>
			<path fill="#546E7A" d="M-596.6,133.8v-12.5h8.9v2.3h-6.1v2.5h6.1v2.3h-6.1v2.8h6.1v2.3h-8.9V133.8z"/>
			<path fill="#546E7A" d="M-575.7,133.8l-5.9-8.1v8.1h-2.5v-12.5h2.8l5.9,7.9v-7.9h2.5v12.5H-575.7z"/>
			<path fill="#546E7A" d="M-569.1,133.8v-12.5h8.9v2.3h-6.1v2.5h6.1v2.3h-6.1v2.8h6.1v2.3h-8.9V133.8z"/>
			<path fill="#546E7A" d="M-549.7,133.8l-2.5-4.3h-2v4.3h-2.5v-12.5h5.9c2.5,0,4.1,1.8,4.1,4.1c0,2.3-1.3,3.3-2.8,3.8l2.8,4.8h-2.8
				V133.8z M-549.5,125.2c0-1-0.8-1.8-1.8-1.8h-2.8v3.3h2.8C-550.3,127-549.5,126.5-549.5,125.2z"/>
			<path fill="#546E7A" d="M-543.9,127.5c0-3.8,2.8-6.4,6.6-6.4s6.6,2.8,6.6,6.4c0,3.8-2.8,6.4-6.6,6.4
				C-541.3,134.1-543.9,131.3-543.9,127.5z M-533.7,127.5c0-2.3-1.5-4.1-3.8-4.1s-3.8,1.8-3.8,4.1c0,2.3,1.5,4.1,3.8,4.1
				C-535.2,131.6-533.7,129.8-533.7,127.5z"/>
			<path fill="#546E7A" d="M-528.6,132.1l1.5-2c0.8,1,2.3,1.8,4.1,1.8c1.5,0,2.3-0.8,2.3-1.3c0-2.3-7.1-0.8-7.1-5.3
				c0-2,1.8-3.8,4.8-3.8c2,0,3.6,0.5,4.8,1.8l-1.5,2c-1-1-2.3-1.3-3.6-1.3c-1,0-1.8,0.5-1.8,1.3c0,2,7.1,0.8,7.1,5.3
				c0,2.3-1.5,4.1-5.1,4.1C-525.6,134.1-527.4,133.1-528.6,132.1z"/>
			<path fill="#546E7A" d="M-515.1,133.8v-12.5h2.5v12.5H-515.1z"/>
			<path fill="#546E7A" d="M-505.7,133.8v-10.2h-3.6v-2.3h9.9v2.3h-3.6v10.2H-505.7z"/>
			<path fill="#546E7A" d="M-492.7,133.8v-5.1l-4.8-7.4h3.1l3.1,5.1l3.1-5.1h3.1l-4.8,7.4v5.1H-492.7z"/>
		</g>
		<g>
			<g>
				<path fill="#66BB6A" d="M-485.9,44.3h-1.3l0.3,1.3c2,9.9,0.3,24.7-7.4,33.8c-4.3,5.3-9.9,8.1-16.8,8.1c-10.9,0-15-13-15.5-27.7
					c17.8-4.3,29.8-15.5,29.8-28.5c0-9.4-2.8-24.9-21.4-24.9c-17.6,0-26.5,26.2-28.2,44.5c-8.9-0.3-15.5-4.3-19.6-8.1
					c1.5-6.4,2.3-12.2,2.3-17.6c0-7.4-5.1-10.7-9.9-10.7c-6.9,0-14,6.6-14,19.3c0,7.6,2.8,14,8.7,18.6c-5.1,12-13.7,22.1-16.5,25.4
					c-2.3-4.8-9.7-22.4-12-41.5c2.8-7.6,4.3-14,4.3-17c0-4.8-3.1-7.6-8.1-7.6c-6.9,0-17.8,4.3-18.1,4.6l-0.5,0.3v0.8
					c0,0.3,3.3,15.5,6.6,32.3c-6.4,10.4-17.6,27.7-23.2,27.7c-10.2,0,6.6-52.2-0.8-53.9c-0.3,0-0.5,0-0.8,0.3
					c-3.6,2.3-43.5,24.4-96.7,24.4c0,0,0,1,0.5,2c0.3,0.8,1,1.5,1,1.5c15,1.8,36.4-0.3,52.7-2.5c-9.4,20.1-26,33.3-41.2,33.3
					c-28.8,0-50.9-34.9-50.9-34.9c8.9-7.9,23.4-33.3,44.8-33.3c21.1,0,30.3,11.7,30.3,11.7l2.3-3.8c0,0-9.9-34.6-37.9-34.6
					s-57.8,45.8-75.1,56.5c0,0,23.9,56.5,76.1,56.5c43.8,0,55-42,57-52.2c10.7-1.5,18.1-3.1,18.1-3.1s-2.8,21.4-2.8,30.3
					s9.9,18.3,18.1,18.3c6.9,0,20.9-14.2,31-31.6l0.5,2c5.3,19.6,12,29.8,19.8,29.8c7.9,0,20.9-16.3,29.3-36.9
					c8.4,3.6,18.3,4.6,24.2,4.8c2.3,35.4,31.8,36.4,35.4,36.4c21.9,0,40.5-15.8,40.5-34.4C-470.6,44.5-485.6,44.3-485.9,44.3z
					 M-512.6,29.5c0,0-0.3,11.7-13.5,17.6c1.3-15.5,5.1-29.5,7.6-29.5C-515.6,17.8-512.6,22.1-512.6,29.5z"/>
				<path fill="#66BB6A" d="M-665,15.5c0,0.5,0.3,0.8,0.8,1c10.4,1.5,17.3-1.8,17.3-18.6c0-15.8-16.3-3.3-19.3-1
					c-0.3,0.3-0.3,0.5-0.3,1C-663.7,4.1-664.8,13-665,15.5z"/>
			</g>
			
				<linearGradient id="SVGID_1_" gradientUnits="userSpaceOnUse" x1="-289.5864" y1="373.2379" x2="-282.8842" y2="375.4719" gradientTransform="matrix(2.5445 0 0 -2.5445 100.1272 1017.8117)">
				<stop  offset="0" style="stop-color:#66BB6A"/>
				<stop  offset="1" style="stop-color:#378F43"/>
			</linearGradient>
			<path fill="url(#SVGID_1_)" d="M-623,49.4c-4.1,6.9-10.2,16.3-15.5,22.1c1.3,3.1,2.8,6.9,4.3,9.9c4.8-5.3,9.7-12.2,14-19.3
				L-623,49.4z"/>
			
				<linearGradient id="SVGID_2_" gradientUnits="userSpaceOnUse" x1="-269.0577" y1="371.5441" x2="-265.1705" y2="378.3802" gradientTransform="matrix(2.5445 0 0 -2.5445 100.1272 1017.8117)">
				<stop  offset="0" style="stop-color:#66BB6A"/>
				<stop  offset="1" style="stop-color:#378F43"/>
			</linearGradient>
			<path fill="url(#SVGID_2_)" d="M-574.7,54.7c-2-1-3.8-2.5-3.8-2.5c-3.6,7.9-8.4,15.3-12.2,20.1c1.8,2.5,4.8,5.9,7.1,8.4
				c4.6-6.4,9.4-14.8,13-23.7C-570.4,56.7-572.6,56-574.7,54.7z"/>
			
				<linearGradient id="SVGID_3_" gradientUnits="userSpaceOnUse" x1="-248.6416" y1="368.3835" x2="-249.4459" y2="375.5323" gradientTransform="matrix(2.5445 0 0 -2.5445 100.1272 1017.8117)">
				<stop  offset="0" style="stop-color:#66BB6A"/>
				<stop  offset="1" style="stop-color:#378F43"/>
			</linearGradient>
			<path fill="url(#SVGID_3_)" d="M-526.3,59.8c0,0-5.1,1-10.2,1.5s-9.9,0.3-9.9,0.3c0.8,10.2,3.6,17.3,7.4,22.6l18.6-1.5
				C-524.3,77.6-526.1,69-526.3,59.8z"/>
			
				<linearGradient id="SVGID_4_" gradientUnits="userSpaceOnUse" x1="-249.8" y1="383.581" x2="-249.8" y2="376.3763" gradientTransform="matrix(2.5445 0 0 -2.5445 100.1272 1017.8117)">
				<stop  offset="0" style="stop-color:#66BB6A"/>
				<stop  offset="1" style="stop-color:#378F43"/>
			</linearGradient>
			<path fill="url(#SVGID_4_)" d="M-541.1,28.8L-541.1,28.8c-0.5,1.5-1.3,3.3-1.8,5.1c0,0.5-0.3,0.8-0.3,1.3c-1,3.3-1.8,6.6-2.3,9.9
				c0,0.5-0.3,0.8-0.3,1.3c-0.3,1.5-0.5,3.1-0.5,4.6c12,0,20.1-3.6,20.1-3.6c0-1.3,0.3-2.3,0.3-3.6c0-0.3,0-0.5,0-0.8
				c0-1,0.3-1.8,0.3-2.8c0-0.3,0-0.5,0-0.8c0.3-2.3,0.8-4.6,1-6.6L-541.1,28.8z M-546.4,50.6L-546.4,50.6L-546.4,50.6L-546.4,50.6z"
				/>
			
				<linearGradient id="SVGID_5_" gradientUnits="userSpaceOnUse" x1="-313" y1="371.7722" x2="-313" y2="380.7083" gradientTransform="matrix(2.5445 0 0 -2.5445 100.1272 1017.8117)">
				<stop  offset="0" style="stop-color:#66BB6A"/>
				<stop  offset="1" style="stop-color:#378F43"/>
			</linearGradient>
			<path fill="url(#SVGID_5_)" d="M-708.3,72.8l11.2,4.8c5.3-7.6,8.7-15.5,10.7-21.6l2-8.1l-5.3,0.8
				C-694.5,58.8-701.1,66.9-708.3,72.8z"/>
			
				<linearGradient id="SVGID_6_" gradientUnits="userSpaceOnUse" x1="-277.5255" y1="390.213" x2="-278.6479" y2="388.4254" gradientTransform="matrix(2.5445 0 0 -2.5445 100.1272 1017.8117)">
				<stop  offset="0" style="stop-color:#66BB6A"/>
				<stop  offset="1" style="stop-color:#378F43"/>
			</linearGradient>
			<path fill="url(#SVGID_6_)" d="M-607,36.1c2.8-7.6,4.3-14,4.3-17c0-0.3,0-0.5,0-0.8l-6.6,2C-609.3,20.4-609,24.7-607,36.1z"/>
			
				<linearGradient id="SVGID_7_" gradientUnits="userSpaceOnUse" x1="-262.5813" y1="386.4827" x2="-263.215" y2="384.0749" gradientTransform="matrix(2.5445 0 0 -2.5445 100.1272 1017.8117)">
				<stop  offset="0" style="stop-color:#66BB6A"/>
				<stop  offset="1" style="stop-color:#378F43"/>
			</linearGradient>
			<path fill="url(#SVGID_7_)" d="M-571.4,30.5c0,0-1.8,5.3,5.6,12c1.3-5.3,2-10.7,2.3-15.3L-571.4,30.5z"/>
		</g>
	</g>
	<g>
		<g>
			<path fill="#66BB6A" d="M-807.8,346.6h-0.5v0.5c0.8,4.3,0,10.4-3.1,14.5c-1.8,2.3-4.3,3.6-7.1,3.6c-4.6,0-6.4-5.6-6.6-11.7
				c7.6-1.8,12.7-6.6,12.7-12.2c0-4.1-1.3-10.7-9.2-10.7c-7.4,0-11.2,11.2-12,18.8c-3.8,0-6.6-1.8-8.4-3.6c0.8-2.8,1-5.1,1-7.4
				c0-3.1-2.3-4.6-4.1-4.6c-3.1,0-5.9,2.8-5.9,8.1c0,3.3,1.3,5.9,3.8,7.9c-2.3,5.1-5.9,9.4-7.1,10.7c-1-2-4.1-9.7-5.1-17.6
				c1.3-3.3,1.8-5.9,1.8-7.1c0-2-1.3-3.3-3.6-3.3c-3.1,0-7.6,1.8-7.6,2l-0.3,0.3v0.3c0,0,1.3,6.6,2.8,13.7
				c-2.8,4.3-7.4,11.7-9.9,11.7c-4.3,0,2.8-22.1-0.3-22.9h-0.3c-1.5,1-18.6,10.4-41,10.4c0,0,0,0.5,0.3,0.8c0.3,0.3,0.5,0.5,0.5,0.5
				c6.4,0.8,15.5,0,22.4-1c-4.1,8.4-10.9,14.2-17.6,14.2c-12.2,0-21.6-14.8-21.6-14.8c3.8-3.3,9.9-14.2,19.1-14.2
				c8.9,0,13,4.8,13,4.8l1-1.5c0,0-4.3-14.8-16-14.8s-24.4,19.6-31.8,23.9c0,0,10.2,24.2,32.3,24.2c18.6,0,23.4-17.8,24.2-22.1
				c4.6-0.8,7.6-1.3,7.6-1.3s-1,9.2-1,13c0,3.8,4.1,7.9,7.6,7.9c3.1,0,8.9-6.1,13.2-13.5l0.3,0.8c2.3,8.4,5.1,12.7,8.4,12.7
				s8.9-6.9,12.5-15.5c3.6,1.5,7.9,2,10.2,2c1,15,13.5,15.5,15,15.5c9.4,0,17.3-6.6,17.3-14.5C-801.4,346.8-807.8,346.6-807.8,346.6
				z M-819,340.2c0,0,0,5.1-5.9,7.6c0.5-6.6,2-12.5,3.3-12.5C-820.5,335.4-819,337.2-819,340.2z"/>
			<path fill="#66BB6A" d="M-883.8,334.4c0,0.3,0,0.3,0.3,0.5c4.3,0.5,7.4-0.8,7.4-7.9c0-6.6-6.9-1.5-8.1-0.5c0,0-0.3,0.3,0,0.5
				C-883.3,329.5-883.8,333.1-883.8,334.4z"/>
		</g>
		
			<linearGradient id="SVGID_8_" gradientUnits="userSpaceOnUse" x1="-382.0074" y1="259.8475" x2="-379.1585" y2="260.7972" gradientTransform="matrix(2.5445 0 0 -2.5445 100.1272 1017.8117)">
			<stop  offset="0" style="stop-color:#66BB6A"/>
			<stop  offset="1" style="stop-color:#378F43"/>
		</linearGradient>
		<path fill="url(#SVGID_8_)" d="M-866,348.6c-1.8,2.8-4.3,6.9-6.6,9.4c0.5,1.3,1.3,2.8,1.8,4.3c2-2.3,4.1-5.1,6.1-8.1L-866,348.6z"
			/>
		
			<linearGradient id="SVGID_9_" gradientUnits="userSpaceOnUse" x1="-373.1626" y1="259.0423" x2="-371.5102" y2="261.9482" gradientTransform="matrix(2.5445 0 0 -2.5445 100.1272 1017.8117)">
			<stop  offset="0" style="stop-color:#66BB6A"/>
			<stop  offset="1" style="stop-color:#378F43"/>
		</linearGradient>
		<path fill="url(#SVGID_9_)" d="M-845.4,350.9c-0.8-0.5-1.5-1-1.5-1c-1.5,3.3-3.6,6.4-5.1,8.7c0.8,1,2,2.5,3.1,3.6
			c2-2.8,4.1-6.1,5.6-10.2C-843.6,351.9-844.7,351.4-845.4,350.9z"/>
		
			<linearGradient id="SVGID_10_" gradientUnits="userSpaceOnUse" x1="-364.6996" y1="257.7503" x2="-365.0414" y2="260.7892" gradientTransform="matrix(2.5445 0 0 -2.5445 100.1272 1017.8117)">
			<stop  offset="0" style="stop-color:#66BB6A"/>
			<stop  offset="1" style="stop-color:#378F43"/>
		</linearGradient>
		<path fill="url(#SVGID_10_)" d="M-825.1,353.2c0,0-2,0.5-4.3,0.8c-2,0.3-4.3,0-4.3,0c0.3,4.3,1.5,7.4,3.1,9.7l7.9-0.8
			C-824,360.8-824.8,357-825.1,353.2z"/>
		
			<linearGradient id="SVGID_11_" gradientUnits="userSpaceOnUse" x1="-365" y1="264.2223" x2="-365" y2="261.1597" gradientTransform="matrix(2.5445 0 0 -2.5445 100.1272 1017.8117)">
			<stop  offset="0" style="stop-color:#66BB6A"/>
			<stop  offset="1" style="stop-color:#378F43"/>
		</linearGradient>
		<path fill="url(#SVGID_11_)" d="M-831.2,339.9L-831.2,339.9c-0.3,0.8-0.5,1.5-0.8,2c0,0.3,0,0.3-0.3,0.5c-0.5,1.5-0.8,2.8-1,4.3
			c0,0.3,0,0.3,0,0.5c0,0.8-0.3,1.3-0.3,2c5.1,0,8.7-1.5,8.7-1.5c0-0.5,0-1,0.3-1.5v-0.3c0-0.5,0-0.8,0.3-1v-0.3
			c0.3-1,0.3-2,0.5-2.8L-831.2,339.9z M-833.5,349.4L-833.5,349.4L-833.5,349.4L-833.5,349.4z"/>
		
			<linearGradient id="SVGID_12_" gradientUnits="userSpaceOnUse" x1="-392" y1="259.2025" x2="-392" y2="263.0011" gradientTransform="matrix(2.5445 0 0 -2.5445 100.1272 1017.8117)">
			<stop  offset="0" style="stop-color:#66BB6A"/>
			<stop  offset="1" style="stop-color:#378F43"/>
		</linearGradient>
		<path fill="url(#SVGID_12_)" d="M-902.4,358.8l4.8,2c2.3-3.3,3.6-6.6,4.6-9.2l0.8-3.6l-2.3,0.3
			C-896.6,352.7-899.1,356.2-902.4,358.8z"/>
		
			<linearGradient id="SVGID_13_" gradientUnits="userSpaceOnUse" x1="-376.8637" y1="267.0355" x2="-377.3409" y2="266.2755" gradientTransform="matrix(2.5445 0 0 -2.5445 100.1272 1017.8117)">
			<stop  offset="0" style="stop-color:#66BB6A"/>
			<stop  offset="1" style="stop-color:#378F43"/>
		</linearGradient>
		<path fill="url(#SVGID_13_)" d="M-859.2,343c1.3-3.3,1.8-5.9,1.8-7.1v-0.3l-2.8,0.8C-860.2,336.4-860.2,338.2-859.2,343z"/>
		
			<linearGradient id="SVGID_14_" gradientUnits="userSpaceOnUse" x1="-370.5543" y1="265.4645" x2="-370.8236" y2="264.441" gradientTransform="matrix(2.5445 0 0 -2.5445 100.1272 1017.8117)">
			<stop  offset="0" style="stop-color:#66BB6A"/>
			<stop  offset="1" style="stop-color:#378F43"/>
		</linearGradient>
		<path fill="url(#SVGID_14_)" d="M-844.1,340.7c0,0-0.8,2.3,2.3,5.1c0.5-2.3,1-4.6,1-6.6L-844.1,340.7z"/>
	</g>
	<g>
		<rect x="-697.3" y="292.9" fill="#FFFFFF" width="106.9" height="106.9"/>
		<g>
			<path fill="#66BB6A" d="M-644.4,349.9c0.3,0.5,0.5,0.8,0.5,0.8c8.7,1,21.1,0,30.5-1.5c-5.3,11.7-15,19.3-23.9,19.3
				c-16.5,0-29.5-20.1-29.5-20.1c5.1-4.6,13.7-19.3,26-19.3c12.2,0,17.6,6.6,17.6,6.6l1.3-2.3c0,0-5.9-20.1-21.9-20.1
				c-16.3,0-33.3,26.5-43.5,32.6c0,0,13.7,32.8,44,32.8c25.4,0,31.8-24.2,33.1-30.3c3.3-0.5,6.1-1,8.1-1.3c0.5-1.3,1.3-3.8,0.8-7.1
				c-10.2,3.8-25.4,8.4-43.5,8.4C-644.7,348.6-644.7,349.1-644.4,349.9z"/>
			
				<linearGradient id="SVGID_15_" gradientUnits="userSpaceOnUse" x1="-281.85" y1="257.5187" x2="-281.85" y2="262.6511" gradientTransform="matrix(2.5445 0 0 -2.5445 100.1272 1017.8117)">
				<stop  offset="0" style="stop-color:#66BB6A"/>
				<stop  offset="1" style="stop-color:#378F43"/>
			</linearGradient>
			<path fill="url(#SVGID_15_)" d="M-610.1,348.9l-3.1,0.3c0,0.3-0.3,0.5-0.5,0.8c-0.5,1-1,1.8-1.5,2.8c-0.3,0.5-0.5,0.8-0.8,1.3
				c-0.5,1-1.3,2-2,2.8c-0.3,0.3-0.3,0.3-0.5,0.5c-1.8,2.3-3.6,4.3-5.6,5.9l6.4,2.8C-612.6,359.3-610.6,351.7-610.1,348.9z"/>
		</g>
	</g>
	<g>
		<g>
			<defs>
				<circle id="SVGID_16_" cx="-407.3" cy="346.3" r="42.2"/>
			</defs>
			<clipPath id="SVGID_17_">
				<use xlink:href="#SVGID_16_"  overflow="visible"/>
			</clipPath>
			<path clip-path="url(#SVGID_17_)" fill="#FFFFFF" d="M-401.1,349.4c0.3,0.3,0.5,0.8,0.5,0.8c7.4,1,18.1,0,26.2-1.3
				c-4.6,9.9-13,16.5-20.4,16.5c-14.2,0-25.2-17.3-25.2-17.3c4.3-3.8,11.7-16.5,22.1-16.5s15,5.9,15,5.9l1.3-1.8c0,0-4.8-17-18.8-17
				s-28.5,22.6-37.2,28c0,0,12,28,37.7,28c21.6,0,27.2-20.9,28.2-26c2.8-0.5,5.3-0.8,6.9-1c0.5-1.3,1-3.3,0.8-6.1
				c-8.7,3.3-21.6,7.1-37.2,7.1C-401.4,348.3-401.4,348.9-401.1,349.4z"/>
		</g>
	</g>
</g>
<g id="Layer_2">
	<path fill="#888888" d="M467.3,209.9c-4.8,24.4-30.8,122.6-133.6,122.6c-122.6,0-178.6-132.8-178.6-132.8
		c41-24.9,110.4-132.3,176.1-132.3s88.8,81.2,88.8,81.2l-5.6,8.9c0,0-21.6-27.2-71.2-27.2s-83.7,59.8-104.6,78.4
		c0,0,52.2,81.7,119.3,81.7c36.1,0,75.1-31.3,96.9-78.4c-38.2,5.3-88.3,10.2-123.7,5.6c0,0-1.8-1.5-2.5-3.3c-1-2.3-1.3-4.6-1.3-4.6
		c70.2,0,130.5-16.5,171.5-31.8C487.7,77.6,402.9,0,300.1,0c-110.4,0-200,89.6-200,200s89.6,200,200,200c108.9,0,197.5-87,200-195.4
		C492.5,205.9,481,207.9,467.3,209.9z"/>
</g>
</svg>
