<?xml version="1.0" encoding="utf-8"?>
<!-- Generator: Adobe Illustrator 18.0.0, SVG Export Plug-In . SVG Version: 6.00 Build 0)  -->
<!DOCTYPE svg PUBLIC "-//W3C//DTD SVG 1.1//EN" "http://www.w3.org/Graphics/SVG/1.1/DTD/svg11.dtd">
<svg version="1.1" xmlns="http://www.w3.org/2000/svg" xmlns:xlink="http://www.w3.org/1999/xlink" x="0px" y="0px"
	 viewBox="0 0 157.1 157.2" style="enable-background:new 0 0 157.1 157.2;" xml:space="preserve">
<style type="text/css">
	.st0{fill:#66BB6A;}
	.st1{fill:#546E7A;}
	.st2{fill:url(#SVGID_1_);}
	.st3{fill:url(#SVGID_2_);}
	.st4{fill:url(#SVGID_3_);}
	.st5{fill:url(#SVGID_4_);}
	.st6{fill:url(#SVGID_5_);}
	.st7{fill:url(#SVGID_6_);}
	.st8{fill:url(#SVGID_7_);}
	.st9{fill:url(#SVGID_8_);}
	.st10{fill:url(#SVGID_9_);}
	.st11{fill:url(#SVGID_10_);}
	.st12{fill:url(#SVGID_11_);}
	.st13{fill:url(#SVGID_12_);}
	.st14{fill:url(#SVGID_13_);}
	.st15{fill:url(#SVGID_14_);}
	.st16{fill:#FFFFFF;}
	.st17{fill:url(#SVGID_15_);}
	.st18{clip-path:url(#SVGID_17_);fill:#FFFFFF;}
	.st19{fill:#F1F2F2;}
</style>
<g id="Layer_1">
	<circle class="st0" cx="-199.4" cy="136.1" r="16.6"/>
	<g>
		<g>
			<path class="st1" d="M-348.4,52.6v-4.9h1.9c1.5,0,2.6,1,2.6,2.5c0,1.5-1.1,2.5-2.6,2.5H-348.4z M-344.9,50.1
				c0-0.9-0.5-1.5-1.5-1.5h-0.9v3.1h0.9C-345.5,51.7-344.9,51-344.9,50.1z"/>
			<path class="st1" d="M-342.6,52.6v-4.9h3.5v0.9h-2.4v1h2.4v0.9h-2.4v1.1h2.4v0.9H-342.6z"/>
			<path class="st1" d="M-333.5,52.6v-3.4l-1.4,3.4h-0.5l-1.4-3.4v3.4h-1v-4.9h1.5l1.2,3l1.2-3h1.5v4.9H-333.5z"/>
			<path class="st1" d="M-331.1,50.1c0-1.5,1.1-2.5,2.6-2.5c1.5,0,2.6,1.1,2.6,2.5c0,1.5-1.1,2.5-2.6,2.5
				C-330.1,52.7-331.1,51.6-331.1,50.1z M-327.1,50.1c0-0.9-0.6-1.6-1.5-1.6s-1.5,0.7-1.5,1.6c0,0.9,0.6,1.6,1.5,1.6
				S-327.1,51-327.1,50.1z"/>
			<path class="st1" d="M-325,50.1c0-1.5,1.1-2.5,2.6-2.5c1.1,0,1.7,0.6,2.1,1.2l-0.9,0.4c-0.2-0.4-0.6-0.7-1.2-0.7
				c-0.9,0-1.5,0.7-1.5,1.6c0,0.9,0.6,1.6,1.5,1.6c0.5,0,0.9-0.3,1.2-0.7l0.9,0.4c-0.4,0.6-1,1.2-2.1,1.2
				C-323.8,52.7-325,51.6-325,50.1z"/>
			<path class="st1" d="M-316.3,52.6l-1-1.7h-0.8v1.7h-1v-4.9h2.3c1,0,1.6,0.7,1.6,1.6c0,0.9-0.5,1.3-1.1,1.5l1.1,1.9H-316.3z
				 M-316.2,49.2c0-0.4-0.3-0.7-0.7-0.7h-1.1v1.3h1.1C-316.6,49.9-316.2,49.7-316.2,49.2z"/>
			<path class="st1" d="M-310.4,52.6l-0.3-0.8h-2.1l-0.3,0.8h-1.2l1.9-4.9h1.3l1.9,4.9H-310.4z M-311.8,48.7l-0.8,2.1h1.5
				L-311.8,48.7z"/>
			<path class="st1" d="M-307.6,52.6v-4h-1.4v-0.9h3.9v0.9h-1.4v4H-307.6z"/>
			<path class="st1" d="M-303.9,52.6v-4.9h1v4.9H-303.9z"/>
			<path class="st1" d="M-301.5,52.6v-0.8l2.3-3.1h-2.3v-0.9h3.7v0.8l-2.3,3.2h2.4v0.9H-301.5z"/>
			<path class="st1" d="M-296.4,52.6v-4.9h1v4.9H-296.4z"/>
			<path class="st1" d="M-290.5,52.6l-2.3-3.2v3.2h-1v-4.9h1.1l2.3,3.1v-3.1h1v4.9H-290.5z"/>
			<path class="st1" d="M-288.2,50.1c0-1.6,1.2-2.5,2.6-2.5c1,0,1.7,0.5,2,1.1l-0.9,0.5c-0.2-0.3-0.6-0.6-1.2-0.6
				c-0.9,0-1.5,0.7-1.5,1.6c0,0.9,0.6,1.6,1.5,1.6c0.4,0,0.8-0.2,1-0.4v-0.6h-1.3v-0.9h2.3v1.9c-0.5,0.6-1.2,0.9-2.1,0.9
				C-287,52.7-288.2,51.7-288.2,50.1z"/>
			<path class="st1" d="M-279.9,50.1c0-1.6,1.2-2.5,2.6-2.5c1,0,1.7,0.5,2,1.1l-0.9,0.5c-0.2-0.3-0.6-0.6-1.2-0.6
				c-0.9,0-1.5,0.7-1.5,1.6c0,0.9,0.6,1.6,1.5,1.6c0.4,0,0.8-0.2,1-0.4v-0.6h-1.3v-0.9h2.3v1.9c-0.5,0.6-1.2,0.9-2.1,0.9
				C-278.7,52.7-279.9,51.7-279.9,50.1z"/>
			<path class="st1" d="M-273.8,52.6v-4.9h3.5v0.9h-2.4v1h2.4v0.9h-2.4v1.1h2.4v0.9H-273.8z"/>
			<path class="st1" d="M-265.6,52.6l-2.3-3.2v3.2h-1v-4.9h1.1l2.3,3.1v-3.1h1v4.9H-265.6z"/>
			<path class="st1" d="M-263,52.6v-4.9h3.5v0.9h-2.4v1h2.4v0.9h-2.4v1.1h2.4v0.9H-263z"/>
			<path class="st1" d="M-255.4,52.6l-1-1.7h-0.8v1.7h-1v-4.9h2.3c1,0,1.6,0.7,1.6,1.6c0,0.9-0.5,1.3-1.1,1.5l1.1,1.9H-255.4z
				 M-255.3,49.2c0-0.4-0.3-0.7-0.7-0.7h-1.1v1.3h1.1C-255.6,49.9-255.3,49.7-255.3,49.2z"/>
			<path class="st1" d="M-253.1,50.1c0-1.5,1.1-2.5,2.6-2.5c1.5,0,2.6,1.1,2.6,2.5c0,1.5-1.1,2.5-2.6,2.5
				C-252.1,52.7-253.1,51.6-253.1,50.1z M-249.1,50.1c0-0.9-0.6-1.6-1.5-1.6c-0.9,0-1.5,0.7-1.5,1.6c0,0.9,0.6,1.6,1.5,1.6
				C-249.7,51.7-249.1,51-249.1,50.1z"/>
			<path class="st1" d="M-247.1,51.9l0.6-0.8c0.3,0.4,0.9,0.7,1.6,0.7c0.6,0,0.9-0.3,0.9-0.5c0-0.9-2.8-0.3-2.8-2.1
				c0-0.8,0.7-1.5,1.9-1.5c0.8,0,1.4,0.2,1.9,0.7l-0.6,0.8c-0.4-0.4-0.9-0.5-1.4-0.5c-0.4,0-0.7,0.2-0.7,0.5c0,0.8,2.8,0.3,2.8,2.1
				c0,0.9-0.6,1.6-2,1.6C-245.9,52.7-246.6,52.3-247.1,51.9z"/>
			<path class="st1" d="M-241.8,52.6v-4.9h1v4.9H-241.8z"/>
			<path class="st1" d="M-238.1,52.6v-4h-1.4v-0.9h3.9v0.9h-1.4v4H-238.1z"/>
			<path class="st1" d="M-233,52.6v-2l-1.9-2.9h1.2l1.2,2l1.2-2h1.2l-1.9,2.9v2H-233z"/>
		</g>
		<g>
			<g>
				<path class="st0" d="M-230.3,17.4l-0.5,0l0.1,0.5c0.8,3.9,0.1,9.7-2.9,13.3c-1.7,2.1-3.9,3.2-6.6,3.2c-4.3,0-5.9-5.1-6.1-10.9
					c7-1.7,11.7-6.1,11.7-11.2c0-3.7-1.1-9.8-8.4-9.8c-6.9,0-10.4,10.3-11.1,17.5c-3.5-0.1-6.1-1.7-7.7-3.2c0.6-2.5,0.9-4.8,0.9-6.9
					c0-2.9-2-4.2-3.9-4.2c-2.7,0-5.5,2.6-5.5,7.6c0,3,1.1,5.5,3.4,7.3c-2,4.7-5.4,8.7-6.5,10c-0.9-1.9-3.8-8.8-4.7-16.3
					c1.1-3,1.7-5.5,1.7-6.7c0-1.9-1.2-3-3.2-3c-2.7,0-7,1.7-7.1,1.8l-0.2,0.1l0,0.3c0,0.1,1.3,6.1,2.6,12.7
					c-2.5,4.1-6.9,10.9-9.1,10.9c-4,0,2.6-20.5-0.3-21.2c-0.1,0-0.2,0-0.3,0.1c-1.4,0.9-17.1,9.6-38,9.6c0,0,0,0.4,0.2,0.8
					c0.1,0.3,0.4,0.6,0.4,0.6c5.9,0.7,14.3-0.1,20.7-1c-3.7,7.9-10.2,13.1-16.2,13.1c-11.3,0-20-13.7-20-13.7
					c3.5-3.1,9.2-13.1,17.6-13.1c8.3,0,11.9,4.6,11.9,4.6l0.9-1.5c0,0-3.9-13.6-14.9-13.6c-11,0-22.7,18-29.5,22.2
					c0,0,9.4,22.2,29.9,22.2c17.2,0,21.6-16.5,22.4-20.5c4.2-0.6,7.1-1.2,7.1-1.2s-1.1,8.4-1.1,11.9c0,3.5,3.9,7.2,7.1,7.2
					c2.7,0,8.2-5.6,12.2-12.4l0.2,0.8c2.1,7.7,4.7,11.7,7.8,11.7c3.1,0,8.2-6.4,11.5-14.5c3.3,1.4,7.2,1.8,9.5,1.9
					c0.9,13.9,12.5,14.3,13.9,14.3c8.6,0,15.9-6.2,15.9-13.5C-224.3,17.5-230.2,17.4-230.3,17.4z M-240.8,11.6c0,0-0.1,4.6-5.3,6.9
					c0.5-6.1,2-11.6,3-11.6C-242,7-240.8,8.7-240.8,11.6z"/>
				<path class="st0" d="M-300.7,6.1c0,0.2,0.1,0.3,0.3,0.4c4.1,0.6,6.8-0.7,6.8-7.3c0-6.2-6.4-1.3-7.6-0.4
					c-0.1,0.1-0.1,0.2-0.1,0.4C-300.2,1.6-300.6,5.1-300.7,6.1z"/>
			</g>
			<linearGradient id="SVGID_1_" gradientUnits="userSpaceOnUse" x1="-289.5844" y1="26.768" x2="-282.8823" y2="24.534">
				<stop  offset="0" style="stop-color:#66BB6A"/>
				<stop  offset="1" style="stop-color:#378F43"/>
			</linearGradient>
			<path class="st2" d="M-284.2,19.4c-1.6,2.7-4,6.4-6.1,8.7c0.5,1.2,1.1,2.7,1.7,3.9c1.9-2.1,3.8-4.8,5.5-7.6L-284.2,19.4z"/>
			<linearGradient id="SVGID_2_" gradientUnits="userSpaceOnUse" x1="-269.0194" y1="28.4777" x2="-265.1322" y2="21.6416">
				<stop  offset="0" style="stop-color:#66BB6A"/>
				<stop  offset="1" style="stop-color:#378F43"/>
			</linearGradient>
			<path class="st3" d="M-265.2,21.5c-0.8-0.4-1.5-1-1.5-1c-1.4,3.1-3.3,6-4.8,7.9c0.7,1,1.9,2.3,2.8,3.3c1.8-2.5,3.7-5.8,5.1-9.3
				C-263.5,22.3-264.4,22-265.2,21.5z"/>
			<linearGradient id="SVGID_3_" gradientUnits="userSpaceOnUse" x1="-248.6254" y1="31.6147" x2="-249.4297" y2="24.4659">
				<stop  offset="0" style="stop-color:#66BB6A"/>
				<stop  offset="1" style="stop-color:#378F43"/>
			</linearGradient>
			<path class="st4" d="M-246.2,23.5c0,0-2,0.4-4,0.6c-2,0.2-3.9,0.1-3.9,0.1c0.3,4,1.4,6.8,2.9,8.9l7.3-0.6
				C-245.4,30.5-246.1,27.1-246.2,23.5z"/>
			<linearGradient id="SVGID_4_" gradientUnits="userSpaceOnUse" x1="-249.7267" y1="16.419" x2="-249.7267" y2="23.6237">
				<stop  offset="0" style="stop-color:#66BB6A"/>
				<stop  offset="1" style="stop-color:#378F43"/>
			</linearGradient>
			<path class="st5" d="M-252,11.3L-252,11.3c-0.2,0.6-0.5,1.3-0.7,2c0,0.2-0.1,0.3-0.1,0.5c-0.4,1.3-0.7,2.6-0.9,3.9
				c0,0.2-0.1,0.3-0.1,0.5c-0.1,0.6-0.2,1.2-0.2,1.8c4.7,0,7.9-1.4,7.9-1.4c0-0.5,0.1-0.9,0.1-1.4c0-0.1,0-0.2,0-0.3
				c0-0.4,0.1-0.7,0.1-1.1c0-0.1,0-0.2,0-0.3c0.1-0.9,0.3-1.8,0.4-2.6L-252,11.3z M-254.1,19.9C-254.1,19.9-254.1,19.9-254.1,19.9
				L-254.1,19.9C-254.1,19.9-254.1,19.9-254.1,19.9z"/>
			<linearGradient id="SVGID_5_" gradientUnits="userSpaceOnUse" x1="-313.0272" y1="28.2278" x2="-313.0272" y2="19.2917">
				<stop  offset="0" style="stop-color:#66BB6A"/>
				<stop  offset="1" style="stop-color:#378F43"/>
			</linearGradient>
			<path class="st6" d="M-317.7,28.6l4.4,1.9c2.1-3,3.4-6.1,4.2-8.5l0.8-3.2l-2.1,0.3C-312.3,23.1-314.9,26.3-317.7,28.6z"/>
			<linearGradient id="SVGID_6_" gradientUnits="userSpaceOnUse" x1="-277.5239" y1="9.788" x2="-278.6463" y2="11.5756">
				<stop  offset="0" style="stop-color:#66BB6A"/>
				<stop  offset="1" style="stop-color:#378F43"/>
			</linearGradient>
			<path class="st7" d="M-277.9,14.2c1.1-3,1.7-5.5,1.7-6.7c0-0.1,0-0.2,0-0.3l-2.6,0.8C-278.8,8-278.7,9.7-277.9,14.2z"/>
			<linearGradient id="SVGID_7_" gradientUnits="userSpaceOnUse" x1="-262.5529" y1="13.5248" x2="-263.1866" y2="15.9326">
				<stop  offset="0" style="stop-color:#66BB6A"/>
				<stop  offset="1" style="stop-color:#378F43"/>
			</linearGradient>
			<path class="st8" d="M-263.9,12c0,0-0.7,2.1,2.2,4.7c0.5-2.1,0.8-4.2,0.9-6L-263.9,12z"/>
		</g>
	</g>
	<g>
		<g>
			<path class="st0" d="M-356.8,136.2l-0.2,0l0,0.2c0.3,1.7,0,4.1-1.2,5.7c-0.7,0.9-1.7,1.4-2.8,1.4c-1.8,0-2.5-2.2-2.6-4.6
				c3-0.7,5-2.6,5-4.8c0-1.6-0.5-4.2-3.6-4.2c-2.9,0-4.4,4.4-4.7,7.4c-1.5,0-2.6-0.7-3.3-1.4c0.3-1.1,0.4-2,0.4-2.9
				c0-1.2-0.9-1.8-1.6-1.8c-1.2,0-2.3,1.1-2.3,3.2c0,1.3,0.5,2.3,1.5,3.1c-0.9,2-2.3,3.7-2.8,4.2c-0.4-0.8-1.6-3.8-2-6.9
				c0.5-1.3,0.7-2.3,0.7-2.8c0-0.8-0.5-1.3-1.4-1.3c-1.2,0-3,0.7-3,0.8l-0.1,0.1l0,0.1c0,0,0.5,2.6,1.1,5.4
				c-1.1,1.7-2.9,4.6-3.9,4.6c-1.7,0,1.1-8.7-0.1-9c0,0-0.1,0-0.1,0c-0.6,0.4-7.3,4.1-16.1,4.1c0,0,0,0.2,0.1,0.3
				c0.1,0.1,0.2,0.2,0.2,0.2c2.5,0.3,6.1,0,8.8-0.4c-1.6,3.3-4.3,5.6-6.9,5.6c-4.8,0-8.5-5.8-8.5-5.8c1.5-1.3,3.9-5.6,7.5-5.6
				c3.5,0,5.1,1.9,5.1,1.9l0.4-0.6c0,0-1.7-5.8-6.3-5.8s-9.6,7.7-12.5,9.4c0,0,4,9.5,12.7,9.5c7.3,0,9.2-7,9.5-8.7
				c1.8-0.3,3-0.5,3-0.5s-0.4,3.6-0.4,5.1s1.6,3.1,3,3.1c1.2,0,3.5-2.4,5.2-5.3l0.1,0.3c0.9,3.3,2,5,3.3,5c1.3,0,3.5-2.7,4.9-6.1
				c1.4,0.6,3.1,0.8,4,0.8c0.4,5.9,5.3,6.1,5.9,6.1c3.7,0,6.8-2.6,6.8-5.7C-354.3,136.3-356.8,136.2-356.8,136.2z M-361.2,133.7
				c0,0,0,2-2.3,3c0.2-2.6,0.8-4.9,1.3-4.9C-361.8,131.8-361.2,132.5-361.2,133.7z"/>
			<path class="st0" d="M-386.7,131.4c0,0.1,0,0.1,0.1,0.2c1.7,0.2,2.9-0.3,2.9-3.1c0-2.6-2.7-0.6-3.2-0.2c0,0-0.1,0.1,0,0.2
				C-386.5,129.5-386.7,130.9-386.7,131.4z"/>
		</g>
		<linearGradient id="SVGID_8_" gradientUnits="userSpaceOnUse" x1="-381.9993" y1="140.1769" x2="-379.1504" y2="139.2272">
			<stop  offset="0" style="stop-color:#66BB6A"/>
			<stop  offset="1" style="stop-color:#378F43"/>
		</linearGradient>
		<path class="st9" d="M-379.7,137c-0.7,1.1-1.7,2.7-2.6,3.7c0.2,0.5,0.5,1.1,0.7,1.7c0.8-0.9,1.6-2,2.4-3.2L-379.7,137z"/>
		<linearGradient id="SVGID_9_" gradientUnits="userSpaceOnUse" x1="-373.2575" y1="140.9037" x2="-371.6051" y2="137.9978">
			<stop  offset="0" style="stop-color:#66BB6A"/>
			<stop  offset="1" style="stop-color:#378F43"/>
		</linearGradient>
		<path class="st10" d="M-371.6,137.9c-0.3-0.2-0.6-0.4-0.6-0.4c-0.6,1.3-1.4,2.5-2,3.4c0.3,0.4,0.8,1,1.2,1.4
			c0.8-1.1,1.6-2.4,2.2-4C-370.9,138.3-371.3,138.1-371.6,137.9z"/>
		<linearGradient id="SVGID_10_" gradientUnits="userSpaceOnUse" x1="-364.5884" y1="142.2372" x2="-364.9303" y2="139.1983">
			<stop  offset="0" style="stop-color:#66BB6A"/>
			<stop  offset="1" style="stop-color:#378F43"/>
		</linearGradient>
		<path class="st11" d="M-363.6,138.8c0,0-0.8,0.2-1.7,0.3c-0.8,0.1-1.7,0-1.7,0c0.1,1.7,0.6,2.9,1.2,3.8l3.1-0.3
			C-363.2,141.8-363.5,140.3-363.6,138.8z"/>
		<linearGradient id="SVGID_11_" gradientUnits="userSpaceOnUse" x1="-365.0566" y1="135.7777" x2="-365.0566" y2="138.8403">
			<stop  offset="0" style="stop-color:#66BB6A"/>
			<stop  offset="1" style="stop-color:#378F43"/>
		</linearGradient>
		<path class="st12" d="M-366,133.6L-366,133.6c-0.1,0.3-0.2,0.6-0.3,0.8c0,0.1,0,0.1-0.1,0.2c-0.2,0.6-0.3,1.1-0.4,1.7
			c0,0.1,0,0.1,0,0.2c0,0.3-0.1,0.5-0.1,0.8c2,0,3.4-0.6,3.4-0.6c0-0.2,0-0.4,0.1-0.6c0,0,0-0.1,0-0.1c0-0.2,0-0.3,0.1-0.4
			c0,0,0-0.1,0-0.1c0.1-0.4,0.1-0.8,0.2-1.1L-366,133.6z M-366.9,137.3C-366.9,137.3-366.9,137.3-366.9,137.3L-366.9,137.3
			C-366.9,137.3-366.9,137.3-366.9,137.3z"/>
		<linearGradient id="SVGID_12_" gradientUnits="userSpaceOnUse" x1="-391.9644" y1="140.7975" x2="-391.9644" y2="136.9989">
			<stop  offset="0" style="stop-color:#66BB6A"/>
			<stop  offset="1" style="stop-color:#378F43"/>
		</linearGradient>
		<path class="st13" d="M-394,141l1.9,0.8c0.9-1.3,1.4-2.6,1.8-3.6l0.3-1.4l-0.9,0.1C-391.7,138.6-392.7,140-394,141z"/>
		<linearGradient id="SVGID_13_" gradientUnits="userSpaceOnUse" x1="-376.8726" y1="132.959" x2="-377.3498" y2="133.7189">
			<stop  offset="0" style="stop-color:#66BB6A"/>
			<stop  offset="1" style="stop-color:#378F43"/>
		</linearGradient>
		<path class="st14" d="M-377,134.8c0.5-1.3,0.7-2.3,0.7-2.8c0,0,0-0.1,0-0.1l-1.1,0.3C-377.4,132.2-377.4,132.9-377,134.8z"/>
		<linearGradient id="SVGID_14_" gradientUnits="userSpaceOnUse" x1="-370.5088" y1="134.5475" x2="-370.7781" y2="135.571">
			<stop  offset="0" style="stop-color:#66BB6A"/>
			<stop  offset="1" style="stop-color:#378F43"/>
		</linearGradient>
		<path class="st15" d="M-371.1,133.9c0,0-0.3,0.9,0.9,2c0.2-0.9,0.4-1.8,0.4-2.6L-371.1,133.9z"/>
	</g>
	<g>
		<rect x="-313.4" y="115.1" class="st16" width="42" height="42"/>
		<g>
			<path class="st0" d="M-292.6,137.5c0.1,0.2,0.2,0.3,0.2,0.3c3.4,0.4,8.3,0,12-0.6c-2.1,4.6-5.9,7.6-9.4,7.6
				c-6.5,0-11.6-7.9-11.6-7.9c2-1.8,5.4-7.6,10.2-7.6s6.9,2.6,6.9,2.6l0.5-0.9c0,0-2.3-7.9-8.6-7.9c-6.4,0-13.1,10.4-17.1,12.8
				c0,0,5.4,12.9,17.3,12.9c10,0,12.5-9.5,13-11.9c1.3-0.2,2.4-0.4,3.2-0.5c0.2-0.5,0.5-1.5,0.3-2.8c-4,1.5-10,3.3-17.1,3.3
				C-292.7,137-292.7,137.2-292.6,137.5z"/>
			<linearGradient id="SVGID_15_" gradientUnits="userSpaceOnUse" x1="-281.7962" y1="142.4813" x2="-281.7962" y2="137.3489">
				<stop  offset="0" style="stop-color:#66BB6A"/>
				<stop  offset="1" style="stop-color:#378F43"/>
			</linearGradient>
			<path class="st17" d="M-279.1,137.1l-1.2,0.1c0,0.1-0.1,0.2-0.2,0.3c-0.2,0.4-0.4,0.7-0.6,1.1c-0.1,0.2-0.2,0.3-0.3,0.5
				c-0.2,0.4-0.5,0.8-0.8,1.1c-0.1,0.1-0.1,0.1-0.2,0.2c-0.7,0.9-1.4,1.7-2.2,2.3l2.5,1.1C-280.1,141.2-279.3,138.2-279.1,137.1z"/>
		</g>
	</g>
	<g>
		<defs>
			<circle id="SVGID_16_" cx="-199.4" cy="136.1" r="16.6"/>
		</defs>
		<clipPath id="SVGID_17_">
			<use xlink:href="#SVGID_16_"  style="overflow:visible;"/>
		</clipPath>
		<path class="st18" d="M-197,137.3c0.1,0.1,0.2,0.3,0.2,0.3c2.9,0.4,7.1,0,10.3-0.5c-1.8,3.9-5.1,6.5-8,6.5c-5.6,0-9.9-6.8-9.9-6.8
			c1.7-1.5,4.6-6.5,8.7-6.5s5.9,2.3,5.9,2.3l0.5-0.7c0,0-1.9-6.7-7.4-6.7s-11.2,8.9-14.6,11c0,0,4.7,11,14.8,11
			c8.5,0,10.7-8.2,11.1-10.2c1.1-0.2,2.1-0.3,2.7-0.4c0.2-0.5,0.4-1.3,0.3-2.4c-3.4,1.3-8.5,2.8-14.6,2.8
			C-197.1,136.9-197.1,137.1-197,137.3z"/>
	</g>
</g>
<g id="Layer_2">
	<path class="st19" d="M144.3,82.5c-1.9,9.6-12.1,48.2-52.5,48.2c-48.2,0-70.2-52.2-70.2-52.2c16.1-9.8,43.4-52,69.2-52
		s34.9,31.9,34.9,31.9l-2.2,3.5c0,0-8.5-10.7-28-10.7S62.6,74.7,54.4,82c0,0,20.5,32.1,46.9,32.1c14.2,0,29.5-12.3,38.1-30.8
		c-15,2.1-34.7,4-48.6,2.2c0,0-0.7-0.6-1-1.3c-0.4-0.9-0.5-1.8-0.5-1.8c27.6,0,51.3-6.5,67.4-12.5C152.3,30.5,119,0,78.6,0
		C35.2,0,0,35.2,0,78.6c0,43.4,35.2,78.6,78.6,78.6c42.8,0,77.6-34.2,78.6-76.8C154.2,80.9,149.7,81.7,144.3,82.5z"/>
</g>
</svg>
