<?xml version='1.0' encoding='UTF-8' standalone='no'?>
<!DOCTYPE svg PUBLIC '-//W3C//DTD SVG 1.1//EN' 'http://www.w3.org/Graphics/SVG/1.1/DTD/svg11.dtd'>
<svg width="100%" height="100%" xmlns="http://www.w3.org/2000/svg" xmlns:xlink="http://www.w3.org/1999/xlink" viewBox="0 0 100 100" preserveAspectRatio="xMidYMid" class="lds-money" id="svg3229" xmlns:svg="http://www.w3.org/2000/svg" xmlns:sodipodi="http://sodipodi.sourceforge.net/DTD/sodipodi-0.dtd" xmlns:inkscape="http://www.inkscape.org/namespaces/inkscape">
<sodipodi:namedview id="base" bordercolor="#666666" borderopacity="1" inkscape:cx="56.360019869106935" inkscape:cy="-42.189971157455616" inkscape:zoom="8.000000000000002"></sodipodi:namedview><style id="style6589">
.st0{fill:#66bb6a}.st1{fill:#546e7a}.st2{fill:url(#SVGID_1_)}.st3{fill:url(#SVGID_2_)}.st4{fill:url(#SVGID_3_)}.st5{fill:url(#SVGID_4_)}.st6{fill:url(#SVGID_5_)}.st7{fill:url(#SVGID_6_)}.st8{fill:url(#SVGID_7_)}.st9{fill:url(#SVGID_8_)}.st10{fill:url(#SVGID_9_)}.st11{fill:url(#SVGID_10_)}.st12{fill:url(#SVGID_11_)}.st13{fill:url(#SVGID_12_)}.st14{fill:url(#SVGID_13_)}.st15{fill:url(#SVGID_14_)}.st16{fill:#fff}.st17{fill:url(#SVGID_15_)}.st18,.st19{clip-path:url(#SVGID_17_);fill:#fff}.st19{clip-path:url(#SVGID_19_)}
</style>
<defs id="defs691">
    <clipPath id="lds-money-cpid-51929356b3473">
    <rect x="0" y="0" width="100" height="82.235" id="rect8119"></rect>
    </clipPath>
</defs>
<path ng-attr-stroke="{{config.c4}}" stroke-width="1" ng-attr-fill="{{config.c4}}" d="M85.529,75.177H14.471c-2.469,0-4.471,2.002-4.471,4.471h80C90,77.179,87.998,75.177,85.529,75.177z" stroke="#eaf9ed" fill="#eaf9ed" id="path4683"></path>
<g ng-attr-clip-path="url(#{{config.cpid}})" clip-path="url(#lds-money-cpid-51929356b3473)" id="g973">
    <g transform="translate(0 75)" id="g7676">
        <animateTransform attributeName="transform" type="translate" calcMode="linear" values="0 0 ;0 150" keyTimes="0;1" dur="1s" begin="0s" repeatCount="indefinite" id="animateTransform6035">
        </animateTransform>
        <g id="Layer_2" transform="translate(0 -75)">
            <circle class="st0" cx="50" cy="40" r="35" id="circle9981"></circle>
            <defs id="defs9529">
                <circle id="SVGID_18_" cx="78.6" cy="78.6" r="78.6"></circle>
            </defs>
            <clipPath id="SVGID_1_">
                <use xlink:href="#SVGID_18_" overflow="visible" id="use7689"></use>
            </clipPath>
            <path d="M89.8 84.2c.3.7 1 1.3 1 1.3 13.9 1.7 33.6-.2 48.6-2.2-8.6 18.5-24 30.8-38.1 30.8-26.5 0-46.9-32.1-46.9-32.1 8.2-7.2 21.7-30.8 41.2-30.8s28 10.7 28 10.7l2.2-3.5s-9.1-31.9-34.9-31.9-53.2 42.3-69.2 52c0 0 22 52.2 70.2 52.2 40.4 0 50.6-38.6 52.5-48.2 5.4-.8 9.9-1.6 12.8-2.1 1-2.2 2.1-6.1 1.3-11.3-16.1 6.2-40.5 13.2-69.1 13.2-.1 0 0 1 .4 1.9z" clip-path="url(#SVGID_1_)" fill="#fff" id="path9794" transform="matrix(0.47328001260757446 0 0 0.47574734687805176 10.464872360229492 2.0481481552124023)" inkscape:transform-center-x="56.5" inkscape:transform-center-y="60.25"></path>
        </g>
    </g>
</g>
<path ng-attr-stroke="{{config.c4}}" stroke-width="1" ng-attr-fill="{{config.c4}}" d="M14.471,84.823h71.058c2.469,0,4.471-2.002,4.471-4.471v-0.704H10v0.704C10,82.821,12.002,84.823,14.471,84.823z" stroke="#eaf9ed" fill="#eaf9ed" id="path7605"></path>
</svg>
