<svg viewBox="0 0 750 471" xmlns="http://www.w3.org/2000/svg"><g fill="none"><rect width="750" height="471" rx="40" fill="#000"/><path d="M675 235.51c0 99.133-80.35 179.5-179.48 179.5-99.121 0-179.48-80.363-179.48-179.5C316.04 136.368 396.398 56 495.52 56 594.653 56 675 136.367 675 235.51" fill="#D9222A"/><path d="M356.87 349.49a177.908 177.908 0 0 1-13.675-19.008h63.612a178.69 178.69 0 0 0 10.342-19.013h-84.292a178.418 178.418 0 0 1-7.596-19h99.475c5.988-17.904 9.23-37.05 9.23-56.962 0-13.046-1.392-25.762-4.03-38.013h-109.86a178.214 178.214 0 0 1 5.208-19.008h99.442a181.442 181.442 0 0 0-7.591-19.004H332.88a180.85 180.85 0 0 1 10.338-19.008h63.57a181.433 181.433 0 0 0-13.67-18.992h-36.225a181.088 181.088 0 0 1 18.112-19c-31.854-28.883-74.138-46.483-120.52-46.483-99.13 0-179.49 80.367-179.49 179.51 0 99.133 80.358 179.5 179.49 179.5 46.388 0 88.667-17.596 120.52-46.475a180.337 180.337 0 0 0 18.133-19.038h-36.267" fill="#0097D0"/><path d="M651.08 335.54c0-3.2 2.596-5.796 5.8-5.796 3.2 0 5.792 2.596 5.792 5.796 0 3.204-2.592 5.8-5.792 5.8a5.799 5.799 0 0 1-5.8-5.8zm5.8 4.408a4.401 4.401 0 0 0 4.404-4.408 4.396 4.396 0 0 0-4.404-4.396 4.4 4.4 0 0 0-4.408 4.396 4.405 4.405 0 0 0 4.408 4.408zm-.787-1.862h-1.184v-5.092h2.15c.446 0 .904.004 1.3.258.417.284.646.775.646 1.271 0 .584-.337 1.113-.88 1.317l.934 2.246h-1.317l-.775-2.009h-.875v2.009zm0-2.88h.658c.246 0 .504.017.725-.1a.712.712 0 0 0 .3-.591.652.652 0 0 0-.288-.513c-.212-.125-.541-.1-.762-.1h-.634v1.305zM372.45 284.01c-7.67 2.033-15.088 3.025-22.929 3.008-25.017-.025-38.046-11.417-38.046-33.2 0-25.458 16.588-44.183 39.1-44.183 18.417 0 30.175 10.5 30.175 26.946 0 5.459-.796 10.771-2.746 18.296h-44.488c-1.583 10.633 6.188 15.304 19.412 15.304 7.925 0 15.092-1.425 23.025-4.612l-3.504 18.442zm-11.962-44.15c0-1.608 2.475-13.033-10.4-13.283-7.108 0-12.208 4.725-14.271 13.283h24.671zm27.032-5c0 9.404 5.296 15.9 17.329 20.738 9.2 3.77 10.65 4.858 10.65 8.22 0 4.663-4.067 6.805-13.092 6.747-6.78-.05-12.962-.871-20.262-2.896l-3.23 17.154c6.488 1.504 15.589 2 23.65 2.187 24.026 0 35.118-7.866 35.118-24.867 0-10.217-4.625-16.233-16.033-20.712-9.538-3.808-10.658-4.637-10.658-8.083 0-4.05 3.779-6.1 11.15-6.1 4.462 0 10.579.412 16.379 1.108l3.258-17.242c-5.912-.825-14.883-1.483-20.075-1.483-25.45 0-34.258 11.458-34.183 25.229m-88.241 50.93h-18.662l.446-7.82c-5.692 6.17-13.271 9.04-23.558 9.04-12.175 0-20.517-8.324-20.517-20.295 0-18.196 14.5-28.692 39.429-28.692 2.562 0 5.82.192 9.167.562.691-2.433.879-3.479.879-4.808 0-4.98-3.921-6.812-14.412-6.812-10.342.041-17.321 1.57-23.796 3.312l3.187-16.7c11.196-2.846 18.53-3.942 26.825-3.942 19.304 0 29.5 7.567 29.5 21.796.167 3.796-1.158 11.412-1.82 14.746-.759 4.855-6.109 32.975-6.667 39.612zm-16.379-33.192c-2.367-.242-3.396-.313-5.013-.313-12.729 0-19.183 3.788-19.183 11.268 0 4.691 3.15 7.633 8.059 7.633 9.146 0 15.75-7.65 16.138-18.588zM477 284.61c-6.125 1.68-10.896 2.408-16.058 2.408-11.433 0-17.675-5.841-17.675-16.25-.358-2.858 2.433-16.058 3.067-19.738.633-3.691 10.538-57.492 10.538-57.492h22.212l-3.363 17.8h11.392l-3.096 18.171h-11.442s-6.279 31.53-6.279 33.933c0 3.825 2.317 5.488 7.634 5.488 2.545 0 4.508-.238 6.029-.692L477 284.61m99.25-74.98c-16.279 0-29 6.7-36.388 17.892l6.412-16.596c-11.817-4.338-19.433 1.85-26.325 10.65 0 0-1.154 1.462-2.3 2.8v-13.05h-20.858c-2.825 23.029-7.82 46.379-11.729 69.446l-.941 5.02h22.438c2.125-11.707 3.875-21.211 5.617-28.787 4.766-20.788 12.788-27.142 24.829-24.333-2.78 5.979-4.305 12.892-4.305 20.554 0 18.579 10.092 33.788 35.15 33.788 25.288 0 43.596-13.508 43.596-44.308 0-18.58-12.2-33.075-35.196-33.075zm-6.53 59.317c-7.924.125-12.728-6.525-12.728-16.471 0-11.792 7.012-25.112 18.275-25.112 9.087 0 12.2 7.204 12.2 14.879 0 16.779-6.875 26.704-17.746 26.704zM226.53 285.79h-22.34l13.28-69.95-30.57 69.95h-20.37l-3.73-69.55-13.32 69.55h-20.27l17.27-90.99h34.91l2.91 50.72 22.12-50.72h37.72l-17.61 90.99" fill="#000"/><path d="M613.15 274.39a5.8 5.8 0 0 1 5.796-5.796c3.204 0 5.796 2.6 5.796 5.796a5.796 5.796 0 1 1-11.592 0zm5.796 4.412a4.414 4.414 0 0 0 4.408-4.412 4.407 4.407 0 0 0-4.408-4.404 4.406 4.406 0 0 0-4.409 4.404 4.414 4.414 0 0 0 4.409 4.412zm-.784-1.866h-1.187v-5.083h2.15c.45 0 .908 0 1.304.25.409.279.646.766.646 1.27 0 .58-.338 1.117-.883 1.317l.933 2.246h-1.317l-.77-2.008h-.876v2.008zm0-2.888h.659c.241 0 .504.017.725-.096a.702.702 0 0 0 .296-.587.635.635 0 0 0-.284-.513c-.212-.129-.541-.095-.762-.095h-.634v1.291zM378.05 278.4c-7.667 2.033-15.088 3.03-22.925 3.013-25.017-.026-38.046-11.422-38.046-33.209 0-25.45 16.579-44.179 39.096-44.179 18.421 0 30.175 10.496 30.175 26.942 0 5.467-.8 10.771-2.742 18.3H339.12c-1.583 10.63 6.18 15.308 19.408 15.308 7.925 0 15.088-1.425 23.03-4.616l-3.509 18.442zm-11.962-44.15c0-1.604 2.47-13.033-10.4-13.279-7.108 0-12.204 4.73-14.271 13.279h24.671zm27.042-5c0 9.408 5.287 15.9 17.325 20.746 9.204 3.767 10.65 4.858 10.65 8.213 0 4.666-4.067 6.808-13.088 6.75-6.783-.046-12.967-.871-20.262-2.896l-3.238 17.146c6.492 1.516 15.596 2.012 23.654 2.2 24.025 0 35.121-7.871 35.121-24.871 0-10.217-4.629-16.238-16.042-20.712-9.537-3.809-10.654-4.638-10.654-8.084 0-4.05 3.784-6.1 11.146-6.1 4.471 0 10.583.417 16.388 1.113l3.25-17.246c-5.912-.825-14.879-1.483-20.067-1.483-25.458 0-34.262 11.454-34.183 25.225m-88.24 50.929h-18.667l.45-7.82c-5.696 6.157-13.275 9.032-23.558 9.032-12.175 0-20.521-8.325-20.521-20.288 0-18.204 14.496-28.696 39.429-28.696 2.562 0 5.817.192 9.17.563.692-2.433.876-3.475.876-4.808 0-4.984-3.917-6.813-14.408-6.813-10.342.042-17.321 1.575-23.796 3.313l3.183-16.696c11.2-2.85 18.53-3.946 26.83-3.946 19.303 0 29.495 7.567 29.495 21.792.167 3.8-1.158 11.412-1.817 14.754-.762 4.85-6.112 32.97-6.666 39.612zm-16.388-33.196c-2.358-.246-3.392-.313-5.013-.313-12.72 0-19.178 3.788-19.178 11.268 0 4.695 3.154 7.633 8.054 7.633 9.154 0 15.758-7.654 16.138-18.588zM482.61 279c-6.12 1.675-10.896 2.408-16.054 2.408-11.433 0-17.671-5.846-17.671-16.254-.362-2.854 2.433-16.058 3.063-19.738.633-3.691 10.538-57.492 10.538-57.492h22.208l-3.355 17.8h11.392l-3.095 18.171h-11.442s-6.284 31.53-6.284 33.933c0 3.825 2.321 5.48 7.634 5.48 2.541 0 4.508-.23 6.029-.692l-2.963 16.383m110.47-42.359c0 16.775-6.88 26.708-17.754 26.708-7.92.112-12.725-6.525-12.725-16.475 0-11.792 7.008-25.112 18.271-25.112 9.092 0 12.208 7.212 12.208 14.879zm23.979.467c0-18.58-12.208-33.08-35.196-33.08-26.45 0-43.55 17.626-43.55 43.597 0 18.579 10.083 33.792 35.15 33.792 25.288 0 43.596-13.512 43.596-44.308zM502.4 205.72c-2.82 23.029-7.817 46.375-11.721 69.45l-.946 5.02h22.433c8.088-44.557 10.8-57.253 27.742-52.782l8.15-21.088c-11.817-4.338-19.425 1.854-26.308 10.658.621-3.963 1.792-7.784 1.508-11.258H502.4m-270.26 74.47H209.8l13.27-69.96-30.57 69.96h-20.36l-3.73-69.55-13.32 69.55h-20.27l17.26-91H187l1.85 56.33 24.57-56.33h36.33l-17.61 91" fill="#fff"/></g></svg>